<?xml version="1.0" encoding="UTF-8"?>
<svg id="Capa_2" data-name="Capa 2" xmlns="http://www.w3.org/2000/svg" viewBox="0 0 671.94 258.09">
  <defs>
    <style>
      .cls-1 {
        fill: #2965e1;
      }

      .cls-2 {
        fill: #97c1fb;
      }
    </style>
  </defs>
  <g id="Capa_1-2" data-name="Capa 1">
    <g>
      <polygon class="cls-2" points="5.78 190.75 5.78 213.27 73.81 218.21 76.49 196.57 5.78 190.75"/>
      <path class="cls-2" d="M190.48,213.05s-4.19-26.27-38.93-34.29c-34.74-8.02,23.03,37.91,23.03,37.91l15.9-3.62Z"/>
      <path class="cls-2" d="M551.35,220.79v-16.54l93.14-1.79,7.53-4.98,8-1.16h4.96s-2.99,27.67-2.99,27.67l-110.64-3.2Z"/>
      <path class="cls-1" d="M33.21,181.64l.17,8.5c.02.37.3.67.67.71,12.38,1.11,25.02,1.91,37.93,2.41,1.58.06,3.54-.03,5.91-.28.37-.04.71-.25.92-.57,2.95-4.48,6.61-8.34,10.95-11.58,17.42-10.79,35.84-12.49,55.28-5.1,3.62,1.37,6.87,3.06,9.77,5.08,4.77,3.58,8.74,7.66,11.91,12.22.25.36.65.57,1.09.57h20.54s81.74.18,81.74.18c.46,0,.83-.37.83-.83-.02-30.52-.02-68.12,0-112.81,0-3.15.26-5.32.77-6.51,2.23-5.18,8.74-7.67,14.1-7.68,36.68-.15,60.82-.04,72.42.33,1.41.04,3.32.97,5.72,2.78,4.74,3.58,4.49,7.1,4.49,13.62,0,11.32.03,48.06.07,110.23,0,.42.34.76.76.76h0l70.13-.07,12.74.08c.41,0,.8-.23.99-.6,2.88-5.55,8.35-9.93,13.25-13.77,18.56-10.13,37.41-10.86,56.56-2.2,6.51,2.94,12.18,7.54,17,13.8,2.82,4.1,6.69,10.93,6.68,16.02,0,.39.32.71.71.71h0l21.58-.12c25.48.18,50.78.11,75.89-.2,4.69-.06,9.98.15,15.87.6.75.07,1.42-.5,1.48-1.26,0-.05,0-.11,0-.16l-.74-22.17c-.01-.38-.33-.68-.71-.66,0,0-.02,0-.03,0-17.48,1.41-33.39,1.6-47.74.56-10.22-.74-17.55-1.14-21.99-1.19-7.56-.09-14.92-.35-22.07-.77-5.74-.34-10.61-2.51-14.32-7.48-3.91-5.23-6.68-10.52-8.31-15.87-.93-3.08.22-5.67,3.45-7.76.19-.12.4-.18.61-.19l9.28-.54c.23,0,.42-.21.41-.44,0-.16-.11-.31-.26-.37-7.38-3.51-16.38-7.46-27-11.85-6.2-2.57-12.09-5.83-17.67-9.78-3.91-2.77-6.62-6.31-10.11-9.81-12.42-12.41-21.76-21.57-28.02-27.46-5.53-5.21-10.23-9.8-14.11-13.75-1.54-1.57-2.43-2.76-2.67-3.58-.98-3.28,1.95-5.53,5.01-5.88l51.45.05c.65,0,1.27-.27,1.71-.74,2.46-2.62,5.6-4.93,9.43-6.95.17-.08.24-.28.16-.46-.06-.13-.21-.21-.35-.19-9.9.93-24.47.41-46.7.38-4.64,0-8.83-1.33-12.56-3.97-2.93-2.07-5.86-5.75-8.73-8.58-6.96-8.29-13.08-14.59-18.39-18.89-8.79-7.16-20.26-12.95-34.4-17.38-3.73-1.17-7.98-1.28-11.77-2.69-.28-.1-.58-.16-.89-.17-10.48-.12-26.98-.18-49.49-.18-99.99-.02-154.93,0-164.83.09-22.05.19-43.03-.37-63.43-.12-18.46.21-38.17.19-59.15-.06-11.77-.14-21.14.2-31.43,3.71-9.4,3.21-14.49,9.88-15.29,20-.04.52.35.97.86,1.01.02,0,.05,0,.07,0,40.1-.13,93.54-.2,160.32-.2,27.15,0,54.59.33,84.77-.02,11.62-.14,25.17.45,37,.2,18.99-.41,43.12.31,58.21.11,18.88-.24,36.16-.39,51.84-.44,1.04,0,3.11-.09,6.2-.27,2.21-.13,4.29-.1,6.22.08,3.99,2.99,7.78,5.88,11.34,8.7,3.4,2.67,5.59,5.23,6.59,7.68.2.51.68.86,1.23.92,3.51.35,6.05.7,7.62,1.04,5.22,1.11,14.07,4.75,16.59,9.13.95,1.66.6,2.49-1.06,2.47-1.63-.28-3.21-.74-4.74-1.38-8.17-3.44-16.71-5.1-25.62-4.99-18.31.24-29.63.35-33.97.34-117.65-.15-232.23.2-367.47.08-3.09,0-9.56.25-19.43.74-.86.04-1.59-.62-1.63-1.49,0-.05,0-.1,0-.15v-.06c.07-.95.82-1.72,1.77-1.8l7.98-.74c.34-.01.6-.3.59-.64s-.3-.6-.64-.59h0l-10.43-.28c-1.48-.04-2.67-1.23-2.71-2.72-.17-7.09.11-14.05.84-20.89.79-7.49,5.15-14.55,11.9-18.63C22.88,3.65,33.98,1.07,43.03.61,53.22.1,72.13-.09,99.74.04c32.75.15,54.63-.04,85.47.07,24.48.08,53.1.07,85.87-.04,31.47-.1,84.25-.06,158.35.13,16.24.04,31.25,1.44,45.03,4.21,7.89,1.58,14.53,3.46,19.93,5.66,5.38,2.19,11.86,5.6,15.85,9.31,2.23,2.08,6.59,5.28,9.81,8.28,6.55,6.12,12.95,11.84,19.22,17.17,3.2,2.72,3.36,7.49,2.41,11.31-1.47,5.83-9.19,10.63-14.5,12.44-.5.16-.76.7-.59,1.2.05.15.14.28.25.39,14.2,13.35,28.35,26.73,42.48,40.13,5.29,5.02,9.17,8.35,11.64,10.01,1.68,1.13,4.79,2.33,9.33,3.6,18.22,5.11,34.61,10.58,49.16,16.41,3.51,1.39,8.11,4.02,13.8,7.88,8.49,5.76,13.6,14.76,15.33,27.01,1.8,12.76,1.6,18.06,1.78,30.7.15,9.82-1.45,16.28-8.61,22.16-7.72,6.33-18.88,5.66-28.13,5.88-.37,0-.7.21-.89.54-3.09,5.62-7.34,10.3-12.75,14.06-1.87,1.3-3.6,1.8-6.01,2.74-.17.07-.26.27-.19.45.05.13.17.21.31.2l55.11.2c1.52,0,2.75,1.24,2.75,2.76v.21c.05,1.59-1.21,2.91-2.8,2.95-.03,0-.06,0-.08,0l-666.05-.04c-1.53,0-2.78-1.24-2.78-2.78,0-.03,0-.06,0-.1v-.33c-.06-1.52,1.14-2.79,2.66-2.83.03,0,.06,0,.08,0h92.7c.15,0,.27-.13.27-.28,0-.1-.05-.18-.14-.23-8.29-4.73-14.58-11.06-18.85-18.96-.27-.5-.79-.8-1.36-.78-10.13.32-20.75.41-31.86.27-9.6-.12-18.46-1.32-26.57-3.62-8.25-2.32-13.64-7.53-16.19-15.62-1.48-4.7-.78-12.06-.97-17.89-.02-.49.12-.98.4-1.38l1.47-2.1c.32-.44.48-.96.48-1.5v-103.08c0-1.2.97-2.17,2.16-2.17.02,0,.04,0,.06,0l3.62.09c1.41.04,2.53,1.19,2.53,2.6v73.95c0,.42.34.76.76.76.01,0,.02,0,.04,0,3.44-.15,9.23.01,11.64.37,3.93.58,6.9,2.7,8.9,6.37.23.41.36.86.39,1.32l.77,11.52ZM466.03,43.19c4.86,5.86,8.24,10.11,16.57,10.16,15.27.08,31.77.01,49.5-.2,1.02-.02,1.84-.87,1.82-1.89,0-.47-.2-.93-.53-1.26l-2.01-2.03c-8.7-7.58-16.99-14.8-24.87-21.66-9.75-8.48-22.01-13.73-36.77-15.77-18.63-2.58-37.28-2.42-54.17-3.07-.22,0-.39.16-.4.38,0,.18.12.34.29.39,20.08,5.41,37.47,19.22,50.57,34.96ZM24.95,38.54l-13.69-.13c-.63,0-1.13.51-1.13,1.13,0,.01,0,.02,0,.04l.25,7.23c.02.65.55,1.18,1.21,1.18l15.87.28c7.2.18,15.64-.19,21.58-.17,35.18.16,70.36.18,105.55.06,1.95,0,8.13.04,18.56.15,9.85.1,19.56.03,29.13-.21,5.4-.14,18.83-.13,40.3.02,9.44.07,14.86.09,16.26.06,13.73-.32,28.63.13,40.72-.17,14.99-.38,27.84.22,44.38.2,40.64-.05,66.97.1,78.99.44,1.02.03,1.87-.77,1.9-1.78.02-.62-.28-1.22-.79-1.57l-7.89-5.51c-1.69-1.18-3.69-1.82-5.74-1.84-7.8-.08-16.91.66-24.16.64-16.24-.06-31.38,0-45.43.14-13.71.15-28.87.22-45.48.2-84.99-.1-130.39-.18-136.19-.22-20.72-.19-39.32-.17-55.8.07-8.54.12-18.21-.32-27.32-.08-16.7.45-34.04-.02-51.06-.17ZM279.64,193.63h79.37c.53,0,.96-.43.96-.96v-115.89c0-.24-.05-.48-.15-.7-.8-1.69-2.03-2.55-3.67-2.59-5.59-.12-17.17-.04-34.76.25-5.07.09-17.67.07-37.8-.05-1.54,0-3.02,1.12-4.43,3.39-.04.06-.06.14-.06.21l-.14,115.63c0,.38.31.7.7.7ZM567.2,120.8c.45-.05.77-.45.73-.9-.02-.19-.11-.37-.24-.5-16.19-15.86-31.41-30.11-45.66-42.75-1.3-1.15-3.21-1.69-5.74-1.62-5.38.16-13.81.23-25.29.22-4.83,0-12.06-1.02-17.22-.58-.65.06-1.13.64-1.07,1.29.02.17.07.34.16.49.36.61.89,1.22,1.58,1.82,5.25,4.53,10.38,9.15,15.37,13.87,2.14,2.02,4.15,4.71,6.5,6.63,3.21,2.62,5.64,6.11,8.84,8.66,4.04,3.21,6.85,6.84,10.72,10.63,1.52,1.5,3.14,2.28,4.84,2.35,5.62.25,15.27.33,28.95.25,5.71-.04,11.67.8,17.52.13ZM526.93,127.44c-.26,0-.48.21-.47.47,0,.19.12.37.3.45,11.12,4.6,21.83,9.54,32.12,14.81,11.2,5.74,19.46,6.85,32.08,9.54,4.82,1.02,9.8,1.6,14.92,1.73,21.27.52,35.47.87,42.61,1.04.3,0,.54-.24.54-.54,0-.18-.09-.35-.24-.45-8.74-5.77-18.17-10.26-28.29-13.46-22.99-7.26-37.29-11.8-42.9-13.64-.4-.13-.81-.19-1.22-.19l-49.45.25ZM600.95,175.74c-.51-5.08-5.73-11.62-8.9-15.6-.26-.32-.6-.58-.99-.73-.86-.34-2.26-.58-4.19-.72-11.08-.84-21.51-1.17-31.29-1.02-.66.02-1.18.56-1.17,1.22,0,.16.04.31.1.46,1.8,4.02,4.11,7.77,6.92,11.27,4.54,5.66,9.52,5.19,17.51,5.33,8.45.16,15.54.35,21.26.58.4.02.73-.3.75-.71,0-.03,0-.06,0-.09ZM603.8,161.64c-.11,0-.2.09-.2.19,0,.04.01.08.04.11l4.08,5.19c.25.32.65.48,1.05.44,6.55-.7,10.98-1,13.27-.9,10.37.47,16.61.73,18.69.77.65.01,1.26-.3,1.63-.83l2.03-2.92c.2-.28.13-.66-.15-.86-.1-.07-.22-.11-.34-.11l-40.1-1.09ZM659.59,175.64l-2.85-12.45c-.23-.99-1.22-1.61-2.21-1.38-.26.06-.5.18-.71.34-4.49,3.5-4.25,9.15-2.03,13.86.15.31.47.51.82.51h6.27c.4,0,.72-.31.73-.7,0-.06,0-.11-.02-.17ZM10.82,169.32v19c0,.6.47,1.09,1.06,1.1l12.67.34c.25.01.47-.19.48-.45,0,0,0-.02,0-.02v-16.79c0-1.68-1.3-3.07-2.97-3.18l-10.49-.71c-.39-.03-.73.27-.75.66,0,.02,0,.03,0,.05ZM643.33,174.87c-.62-1.12-1.79-1.82-3.07-1.83-6.5-.09-11.22-.1-14.16-.04-4.84.09-9.31-.56-15.08-.83-.4-.02-.75.29-.77.7,0,.04,0,.08,0,.13l.38,2.91c.07.52.5.92,1.03.96,1.63.11,4.79.58,6.71.58,15.98.02,24.25.08,24.83.17.5.07.96-.27,1.03-.77.03-.2,0-.4-.11-.57l-.79-1.41ZM81.18,214.28c-.14,19.43,18.21,35.3,40.98,35.46h0c22.77.16,41.34-15.46,41.47-34.89.14-19.43-18.21-35.3-40.98-35.46h0c-22.77-.16-41.34,15.46-41.47,34.89ZM456.45,213.93c-.25,16.8,12.79,30.51,28.48,34.09,13.56,3.09,25.94,1.26,37.14-5.49,9.55-5.75,16.11-16.27,16.27-27.38.17-11.11-6.09-21.82-15.44-27.86-11-7.07-23.32-9.27-36.97-6.58-15.79,3.11-29.22,16.42-29.47,33.23ZM8.63,207.5c.2,3.85,1.63,7.31,4.28,10.37.31.38.69.7,1.11.95,4.14,2.49,8.69,4,13.66,4.54,6.04.65,10.24,1.35,14.98,1.29,9.35-.13,19.21.03,29.58.46.46.02.84-.33.87-.79,0-.09,0-.17-.03-.25-1.95-7.61-1.71-15.09.73-22.44.42-.56.65-1.04.71-1.45.05-.37-.21-.71-.57-.75-.03,0-.06,0-.09,0-11.12-.02-21.1-.39-29.94-1.09-11.71-.92-23.26-1.51-34.64-1.76-.46-.01-.85.35-.86.81,0,.02,0,.03,0,.05l.22,10.07ZM437.73,210.96l8.91.25c.52.01.96-.4.97-.92,0-.03,0-.07,0-.1-.28-3.3.29-6.32,1.73-9.06.1-.2.02-.45-.18-.56-.06-.03-.13-.05-.2-.05l-6.42.26-73.77-.37c-.17,0-.31.13-.32.3,0,0,0,0,0,.01v9.94c0,.18.15.33.33.33h0l68.95-.04ZM171.42,202.79l1.23,7.7c.08.45.46.77.91.77l9.75-.05h87.03c.27.01.48-.21.48-.47h0v-9.75c0-.21-.17-.38-.38-.38h-99.04c-.17,0-.34.09-.43.25-.28.49-.13,1.13.45,1.93ZM360.06,201.09c0-.29-.23-.52-.52-.52l-79.9.14c-.29,0-.52.23-.52.52h0s.02,9.38.02,9.38c0,.29.23.52.52.52l79.9-.14c.29,0,.52-.23.52-.52h0s-.02-9.38-.02-9.38ZM630.18,214.41l-73.04.37-8.86-.6c-.46-.03-.86.33-.89.8,0,.03,0,.06,0,.09.23,3.8-.43,7.49-1.99,11.08-.08.19,0,.41.19.5.05.02.11.03.16.03,35.44-.25,67.85-.37,97.22-.37,7.1,0,15.4-3.53,17.59-10.74.15-.47-.11-.98-.58-1.13-.09-.03-.18-.04-.27-.04h-29.55ZM309.74,226.66c9.79,0,19.35.01,28.69.06,36.46.15,75.75-.43,109.52-.17.18,0,.33-.14.33-.33,0-.02,0-.03,0-.05l-.96-7.35c-.04-.35-.34-.61-.69-.6-25.59.08-51.12.09-76.6.05-19.92-.04-40.02-.06-60.3-.06-20.28,0-40.38.04-60.3.08-25.48.06-51.02.06-76.6,0-.35,0-.64.25-.69.6l-.95,7.35c-.03.18.1.35.28.37.02,0,.03,0,.05,0,33.77-.28,73.06.28,109.52.11,9.33-.05,18.89-.07,28.68-.07ZM191.24,251.89c.22,0,.39-.18.38-.4,0-.15-.09-.28-.23-.35-7.94-3.47-13.19-8.83-15.75-16.08-.15-.43-.57-.72-1.03-.72h-6c-.57,0-1.1.28-1.42.76-4.57,6.79-10.6,12.12-18.1,16-.2.11-.28.37-.18.57.07.14.21.22.37.22h41.96ZM471.6,251.52c-6.24-3.07-15.38-9.81-17.96-16.7-.1-.27-.35-.45-.63-.45h-198.44c-.4,0-.77.23-.95.59-3.72,7.61-9.48,13.08-17.29,16.41-.16.08-.22.27-.14.43.05.1.15.17.27.17h235.02c.14-.01.24-.13.23-.27,0-.08-.05-.15-.12-.19ZM571.03,251.19c-5.57-2.88-14.11-9.61-15.36-16.13-.07-.38-.41-.65-.79-.65h-11.92c-.51,0-.98.26-1.25.69-4.55,7.02-10.55,12.44-17.98,16.27-.16.08-.23.28-.15.44.06.11.17.18.3.18h46.96c.23,0,.43-.18.43-.42,0-.16-.09-.31-.23-.38ZM213.68,238.57c3.89.06,10.61-.26,13.55-3.04.14-.12.15-.33.03-.47-.07-.08-.17-.12-.28-.11-5.34.38-9.76.54-13.26.5-3.51-.06-7.92-.34-13.25-.86-.18,0-.34.13-.35.31,0,.09.03.18.09.24,2.86,2.87,9.57,3.37,13.46,3.43ZM592.05,238.6c4.03.07,11-.24,14.06-3.11.14-.13.14-.35.01-.48-.07-.07-.17-.11-.27-.11-5.53.37-10.11.52-13.75.46-3.63-.06-8.2-.37-13.72-.93-.19-.01-.35.13-.37.32,0,.1.03.19.09.26,2.95,2.98,9.9,3.53,13.94,3.59Z"/>
      <path class="cls-2" d="M459.56,47.02c2.87,2.82,5.8,6.51,8.73,8.58,3.73,2.64,7.92,3.96,12.56,3.97,22.23.04,36.8.56,46.7-.38.19-.02.36.11.38.3.02.15-.06.29-.19.35-3.83,2.02-6.97,4.33-9.43,6.95-.44.48-1.06.74-1.71.74l-51.45-.05,5-1.28c.15-.04.24-.19.21-.34-.02-.09-.09-.17-.18-.2l-11.88-3.91c1.66.02,2.02-.81,1.06-2.47-2.52-4.38-11.37-8.02-16.59-9.13-1.58-.34-4.12-.69-7.62-1.04-.55-.06-1.03-.41-1.23-.92-1-2.45-3.2-5.01-6.59-7.68-3.57-2.81-7.35-5.71-11.34-8.7,1.86.2,3.63.46,5.32.77,13.92,2.47,23.84,15.53,38.26,14.44Z"/>
      <path class="cls-2" d="M27.44,48.28c-.85-2.61-1-5.2-.44-7.77.18-.85.09-1.39-.28-1.62-.38-.23-.97-.34-1.77-.34,17.02.14,34.36.61,51.06.17,9.11-.24,18.78.2,27.32.08,16.48-.24,35.08-.26,55.8-.07,5.81.05,51.2.12,136.19.22,16.61.02,31.77-.05,45.48-.2,14.05-.15,29.2-.2,45.43-.14,7.26.02,16.37-.72,24.16-.64,2.06.02,4.06.67,5.74,1.84l7.89,5.51c.84.58,1.04,1.73.46,2.57-.36.51-.95.81-1.57.79-12.02-.34-38.35-.48-78.99-.44-16.54.02-29.39-.58-44.38-.2-12.09.3-26.99-.15-40.72.17-1.39.03-6.81.01-16.26-.06-21.47-.16-34.91-.17-40.3-.02-9.56.24-19.27.32-29.13.21-10.43-.11-16.62-.16-18.56-.15-35.19.12-70.37.1-105.55-.06-5.93-.02-14.38.34-21.58.17Z"/>
      <path class="cls-2" d="M531.38,47.97l2.01,2.03c.72.73.71,1.91-.02,2.62-.34.33-.79.52-1.26.53-17.72.21-34.22.28-49.5.2-8.33-.05-11.71-4.3-16.57-10.16l2.49-3.59c.21-.31.59-.46.96-.39,2.32.48,3.63.78,3.92.9,9.75,4.03,18.6,7.8,29.1,8.18,9.3.34,18.92.23,28.87-.32Z"/>
      <path class="cls-2" d="M164.21,127.41c1.86-2.09,2.84-4.08,2.94-5.98.34-6.68.39-19.7.15-39.06-.05-3.57-.42-6.03-1.12-7.37-2.28-4.4-7.72-7.18-12.4-7.23-11.06-.11-44.14-.18-99.24-.21-5.47,0-11.21,2.23-13.67,7.11-.77,1.54-1.17,2.75-1.21,3.64-.23,5.99-.33,19-.31,39.02l-.39-23.51c0-.2-.17-.36-.37-.36-.14,0-.26.08-.31.21l-.7,1.47c-.2.43-.71.62-1.15.42-.29-.13-.48-.41-.5-.72-.49-6.09-.72-10.87-.69-14.33.06-7.9,2.19-14.26,10.66-16.19,5.09-1.16,10.54-1.72,16.37-1.69,43.01.27,69.19.25,78.54-.05,5.51-.18,11.68-.02,18.52.47,3.95.28,7.59.88,10.94,1.78.68.19,1.24.68,1.51,1.35,1.51,3.71,1.88,7.28,1.8,11.5-.38,18.03-.48,32.66-.3,43.9.09,5.74-1.17,10.62-3.79,14.63-.17.28-.54.36-.83.19-3.38-2.09-3.51-5.52-4.47-8.96Z"/>
      <rect class="cls-1" x="1.98" y="64.3" width="7.85" height="10.47" rx="2.25" ry="2.25" transform="translate(-1.82 .18) rotate(-1.5)"/>
      <path class="cls-1" d="M164.21,127.41c-3.28,3.02-7.14,4.53-11.59,4.53-32.99-.02-65.98-.13-98.96-.34-9.02-.06-14.27-5.49-14.3-14.27-.02-20.02.08-33.02.31-39.02.03-.89.43-2.1,1.21-3.64,2.46-4.88,8.2-7.11,13.67-7.11,55.1.03,88.18.1,99.24.21,4.68.05,10.11,2.84,12.4,7.23.7,1.35,1.08,3.8,1.12,7.37.24,19.36.19,32.38-.15,39.06-.1,1.9-1.08,3.89-2.94,5.98ZM70.79,75.18c-8.07-.41-13.61-.41-16.63-.01-2.19.29-3.83,1.37-4.92,3.23-.69,1.19-1.04,3.15-1.03,5.9.08,17.14.04,27.86-.12,32.15-.21,5.73,2.63,8.5,8.52,8.33,8.26-.24,23.82-.38,46.69-.41,16.14.25,32.26.23,48.36-.06,3.93-.06,7.59-.7,7.72-5.26.07-2.58.13-15.33.17-38.23,0-.42-.08-.84-.25-1.22-.85-1.94-2.23-3.39-4.14-4.36-.43-.22-.9-.33-1.37-.33-6.96.05-11.04-.45-16.92-.12-1.09.06-5.99-.1-14.68-.47-10.25-.44-27.39-.15-51.41.86Z"/>
      <path class="cls-1" d="M490.61,120.51c5.28,5.7-.27,10.21-6,10.24-38.8.21-68.12.21-87.98-.01-4.42-.05-9.78-2.89-11.17-7.35-.17-.57-.27-3.07-.28-7.5-.02-10.56,0-22.01.05-34.33.05-11.73,7.76-13,17.61-12.87,15.16.2,23.92.26,26.29.19,7.42-.21,12.28,1.7,17.06,6.3,14.61,14.05,29.42,29.16,44.43,45.33ZM436.98,122.96c.03-.25-.06-.52-.28-.82-.21-.28-.37-.67-.48-1.17-1.91-8.97,4.37-17.98,13.94-17.69,6.03.18,9.12.37,11.62-.15.53-.1.87-.61.77-1.13-.04-.2-.14-.38-.28-.52l-24.73-23.87c-1-.97-2.33-1.54-3.72-1.58-11.89-.43-24.27-.5-37.16-.24-1.09.02-2.23.93-3.39,2.71-.22.33-.32.72-.31,1.12.38,7.55.52,20.36.44,38.41-.01,2.73.52,5.62,3.67,5.59,5.99-.06,19.14-.14,39.44-.22.25,0,.46-.19.48-.44ZM444.34,119.62c1.13,2.21,3.02,3.36,5.68,3.43,10.18.26,20.25.25,30.21-.04.39,0,.7-.34.69-.73,0-.18-.08-.35-.2-.48l-6.5-6.56c-1.31-1.83-2.89-3.38-4.74-4.64-.47-.32-1.03-.48-1.61-.45-4.97.22-9.95.25-14.94.08-6.24-.2-10.03,2.8-8.6,9.39Z"/>
      <path class="cls-2" d="M103.31,124.36c.8-.41,1.21-.63,1.21-.67.03-.96-.72-1.76-1.68-1.8-.01,0-.02,0-.04,0-8.94-.1-17.35-.31-25.22-.63-4.55-.18-7.31-.26-8.28-.22-6.69.21-14.26-.13-14.25-8.92.02-14.2.04-21.36.04-21.47.37-9.49,9.52-11.01,16.64-14.34.21-.1.3-.35.2-.57-.05-.1-.13-.17-.23-.21l-.91-.34c24.03-1.02,41.16-1.3,51.41-.86,8.69.37,13.58.53,14.68.47,5.88-.33,9.96.17,16.92.12.47,0,.94.11,1.37.33,1.91.97,3.28,2.42,4.14,4.36.16.38.25.8.25,1.22-.04,22.9-.09,35.64-.17,38.23-.13,4.56-3.78,5.2-7.72,5.26-16.1.29-32.22.31-48.36.06Z"/>
      <path class="cls-2" d="M567.2,120.8c-5.85.67-11.82-.17-17.52-.13-13.68.09-23.33,0-28.95-.25-1.71-.07-3.32-.85-4.84-2.35-3.86-3.79-6.68-7.42-10.72-10.63-3.2-2.55-5.62-6.04-8.84-8.66-2.35-1.91-4.36-4.61-6.5-6.63-4.99-4.72-10.12-9.34-15.37-13.87-.69-.6-1.22-1.21-1.58-1.82-.33-.56-.14-1.29.42-1.62.15-.09.31-.14.49-.16,5.15-.44,12.38.58,17.22.58,11.48,0,19.91-.07,25.29-.22,2.53-.07,4.44.47,5.74,1.62,14.25,12.64,29.47,26.89,45.66,42.75.32.31.33.83.01,1.15-.13.14-.31.22-.5.24Z"/>
      <path class="cls-2" d="M436.49,123.4c-20.3.09-33.45.16-39.44.22-3.15.04-3.69-2.86-3.67-5.59.09-18.06-.06-30.86-.44-38.41-.02-.4.09-.79.31-1.12,1.17-1.78,2.3-2.68,3.39-2.71,12.89-.27,25.27-.19,37.16.24,1.39.05,2.72.61,3.72,1.58l24.73,23.87c.39.37.4.98.04,1.37-.14.15-.32.25-.52.28-2.49.52-5.59.33-11.62.15-9.57-.3-15.86,8.72-13.94,17.69.11.5.27.89.48,1.17.22.29.32.56.28.82-.02.25-.23.44-.48.44Z"/>
      <path class="cls-1" d="M344.99,115.73c0,5.08-4.14,9.2-9.22,9.19h0l-31.6-.06c-5.08,0-9.2-4.14-9.19-9.22l.04-24.25c0-5.08,4.14-9.2,9.22-9.19h0l31.6.06c5.08,0,9.2,4.14,9.19,9.22l-.04,24.25ZM336.82,92.16c.05-1.79-1.37-3.27-3.15-3.32-.03,0-.06,0-.08,0h-26.96c-1.76,0-3.19,1.4-3.24,3.15l-.61,22.6c-.05,1.79,1.37,3.27,3.15,3.32.03,0,.06,0,.08,0h26.96c1.76,0,3.19-1.4,3.24-3.15l.61-22.6Z"/>
      <path class="cls-1" d="M252.74,111.4c0,6.26-5.08,11.34-11.34,11.34h-42.99c-6.26,0-11.34-5.08-11.34-11.34v-16.4c0-6.26,5.08-11.34,11.34-11.34h42.99c6.26,0,11.34,5.08,11.34,11.34v16.4ZM244.09,94.69c0-2.49-2.02-4.5-4.5-4.5h-39.54c-2.49,0-4.5,2.02-4.5,4.5v16.26c0,2.49,2.02,4.5,4.5,4.5h39.54c2.49,0,4.5-2.02,4.5-4.5v-16.26Z"/>
      <path class="cls-2" d="M336.82,92.16l-.61,22.6c-.04,1.76-1.48,3.16-3.24,3.15h-26.96c-1.79,0-3.24-1.45-3.24-3.24,0-.03,0-.06,0-.08l.61-22.6c.04-1.76,1.48-3.16,3.24-3.15h26.96c1.79,0,3.24,1.45,3.24,3.24,0,.03,0,.06,0,.08Z"/>
      <rect class="cls-2" x="195.55" y="90.19" width="48.54" height="25.26" rx="3.81" ry="3.81"/>
      <path class="cls-2" d="M444.34,119.62l30.63-.79c.33,0,.59-.28.58-.6,0,0,0-.02,0-.02-.06-.95-.5-1.94-1.32-2.97l6.5,6.56c.28.29.27.74,0,1.02-.13.13-.3.2-.48.2-9.96.28-20.04.3-30.21.04-2.66-.07-4.56-1.21-5.68-3.43Z"/>
      <rect class="cls-1" x="285.9" y="142.1" width="24.88" height="5.39" rx="2.23" ry="2.23" transform="translate(-1.5 3.13) rotate(-.6)"/>
      <rect class="cls-1" x="398.92" y="130.07" width="5.62" height="30.56" rx="2.33" ry="2.33" transform="translate(255.68 546.82) rotate(-89.9)"/>
      <path class="cls-1" d="M42.57,145.69l-.02-.08c-.22-1.19.57-2.34,1.76-2.56.13-.02.26-.04.39-.04,43.8-.39,71.71.08,111.18-.44,2.47-.04,5.2.21,8.16.76.44.08.89.11,1.35.09,2.13-.06,7.18-.79,8.83.72.75.69.79,1.86.09,2.62-.06.07-.13.13-.21.19-1.86,1.48-5.87.61-9.68.25-.54-.05-1.08.02-1.58.2-1.98.7-4.1,1.05-6.37,1.04-39.93-.13-76.86-.19-110.8-.18-1.52,0-2.82-1.08-3.1-2.58Z"/>
      <path class="cls-2" d="M603.8,161.64l40.1,1.09c.34,0,.61.29.6.63,0,.12-.04.24-.11.34l-2.03,2.92c-.37.53-.98.84-1.63.83-2.09-.04-8.32-.3-18.69-.77-2.29-.1-6.72.2-13.27.9-.4.04-.8-.12-1.05-.44l-4.08-5.19c-.06-.08-.04-.2.04-.27.04-.03.08-.04.12-.04Z"/>
      <path class="cls-2" d="M10.82,169.32c0-.39.32-.71.71-.71.02,0,.03,0,.05,0l10.49.71c1.67.11,2.96,1.5,2.97,3.18v16.79c0,.26-.21.47-.46.47,0,0-.02,0-.02,0l-12.67-.34c-.59-.01-1.06-.5-1.06-1.1v-19Z"/>
      <path class="cls-2" d="M643.33,174.87l.79,1.41c.25.43.09.98-.34,1.23-.18.1-.38.14-.58.11-.58-.09-8.85-.14-24.83-.17-1.93,0-5.08-.47-6.71-.58-.53-.03-.96-.44-1.03-.96l-.38-2.91c-.05-.41.24-.78.64-.82.04,0,.08,0,.12,0,5.77.27,10.23.92,15.08.83,2.94-.06,7.66-.05,14.16.04,1.28.01,2.45.71,3.07,1.83Z"/>
      <path class="cls-2" d="M466.34,179.3c-4.89,3.84-10.36,8.21-13.25,13.77-.2.37-.58.6-.99.6l-12.74-.08c8.85-5.81,15.01-9.68,18.48-11.59,1.91-1.06,4.75-1.95,8.5-2.69Z"/>
      <path class="cls-2" d="M81.18,214.28c.14-19.43,18.7-35.05,41.47-34.89,22.77.16,41.12,16.04,40.98,35.46h0c-.14,19.43-18.7,35.05-41.47,34.89-22.77-.16-41.12-16.04-40.98-35.46h0ZM94.88,214.25c-.14,13.14,12.05,23.91,27.22,24.07h0c15.17.16,27.58-10.36,27.72-23.5h0c.14-13.14-12.05-23.91-27.22-24.07-15.17-.16-27.58,10.36-27.72,23.5Z"/>
      <path class="cls-2" d="M538.33,215.14c-.17,11.11-6.72,21.62-16.27,27.38-11.19,6.75-23.57,8.58-37.14,5.49-15.69-3.58-28.72-17.29-28.48-34.09s13.68-30.12,29.47-33.23c13.65-2.69,25.98-.49,36.97,6.58,9.36,6.04,15.61,16.76,15.44,27.86ZM469.99,213.54c-.44,13.12,11.45,24.15,26.54,24.66s27.68-9.73,28.12-22.84c.44-13.12-11.45-24.15-26.54-24.66s-27.68,9.73-28.12,22.84Z"/>
      <path class="cls-2" d="M89.76,180.83c-4.35,3.24-8,7.1-10.95,11.58-.21.32-.55.52-.92.57-2.36.25-4.33.35-5.91.28-12.91-.5-25.55-1.3-37.93-2.41-.37-.04-.66-.34-.67-.71l-.17-8.5c3.02.51,5.16,1.05,6.42,1.62,8.47,3.83,17.27,5.75,26.41,5.78,3.57,0,6.77-1.02,10.26-2.87,4.28-2.29,8.77-4.07,13.47-5.34Z"/>
      <path class="cls-1" d="M469.99,213.54c.44-13.12,13.02-23.34,28.12-22.84s26.97,11.54,26.54,24.66c-.44,13.12-13.02,23.34-28.12,22.84s-26.97-11.54-26.54-24.66ZM479.19,213.49c-.42,8.68,7.39,16.11,17.45,16.6,10.06.49,18.57-6.14,18.99-14.82h0c.42-8.68-7.39-16.11-17.45-16.6h0c-10.06-.49-18.57,6.14-18.99,14.82h0Z"/>
      <path class="cls-1" d="M94.88,214.25c.14-13.14,12.55-23.66,27.72-23.5,15.17.16,27.36,10.94,27.22,24.07-.14,13.14-12.55,23.66-27.72,23.5h0c-15.17-.16-27.36-10.94-27.22-24.07h0ZM104.03,214.22c-.09,8.72,7.99,15.87,18.04,15.98h0c10.06.11,18.28-6.88,18.37-15.59h0c.09-8.72-7.99-15.87-18.04-15.98h0c-10.06-.11-18.28,6.88-18.37,15.59h0Z"/>
      <path class="cls-2" d="M628.69,200.9l24.45.06c-2.84,1.57-5.08,2.52-6.7,2.87-4.16.87-10.17.24-14.55.57-17.96,1.36-35.93,1.09-53.92,1.31-4.44.06-7.48.66-9.11,1.81l-21.58.12c-.39,0-.71-.32-.71-.71h0c.01-5.09-3.85-11.92-6.68-16.02,4.73.77,7.03,3.79,11.59,7.95,4.76,4.34,8.07,4.4,14.39,4.31,14.05-.17,28.5-.64,43.33-1.42.8-.04,3.61-.45,8.44-1.24,3.8-.62,7.48-.49,11.04.39Z"/>
      <path class="cls-1" d="M655.49,196.3c.52.67.88,1.45,1.08,2.35l-3.43,2.32-24.45-.06c-.85-.87-1.45-1.76-1.78-2.65-.14-.35-.12-.75.05-1.09.87-1.81,2.32-2.78,4.35-2.91,4.41-.28,11.15-.29,20.22-.02,1.97.06,3.29.75,3.97,2.06Z"/>
      <path class="cls-2" d="M656.57,198.65c-.2-.9-.56-1.68-1.08-2.35h4.54c.32.02.57.29.57.6,0,.24-.15.44-.38.52l-3.65,1.23Z"/>
      <path class="cls-2" d="M437.73,210.96l4.81-10.17,6.42-.26c.23,0,.42.17.42.4,0,.07-.01.14-.05.2-1.43,2.74-2.01,5.76-1.73,9.06.04.52-.35.97-.87,1.01-.03,0-.07,0-.1,0l-8.91-.25Z"/>
      <path class="cls-2" d="M73.81,201.62c-2.44,7.35-2.69,14.83-.73,22.44.12.44-.14.89-.59,1.01-.08.02-.17.03-.25.03-10.37-.43-20.23-.59-29.58-.46-4.74.06-8.94-.64-14.98-1.29-4.97-.54-9.52-2.05-13.66-4.54-.42-.25-.8-.57-1.11-.95-2.65-3.06-4.07-6.52-4.28-10.37.8-.5,1.33-1.02,1.6-1.57.64-1.28,2.2-1.79,3.47-1.15.06.03.12.06.18.1,13.41,8.08,27.28,11.19,41.6,9.32,1.67-.21,3.57.04,5.44-.99.36-.19.66-.47.89-.8,3.75-5.55,5.95-8.72,6.59-9.49,1.14-1.35,2.95-1.78,5.41-1.29Z"/>
      <path class="cls-2" d="M183.31,211.22l-9.75.05c-.45,0-.83-.32-.91-.77l-1.23-7.7c2.36.13,4,.55,4.92,1.25,1.73,1.32,3.28,3.41,4.66,6.27.15.31.47.51.83.52.54,0,1.03.13,1.49.38Z"/>
      <path class="cls-2" d="M557.15,214.78c6.59,1.98,14.53,2.63,23.82,1.97,3.36-.24,7.23.26,11.6,1.5,4.56,1.28,7.59,2.01,9.1,2.19,9.43,1.06,18.94-.3,28.54-4.08.38-.14.65-.5.69-.91.02-.17-.22-.51-.71-1.04h29.55c.5,0,.9.4.89.89,0,.09-.01.18-.04.27-2.2,7.21-10.49,10.74-17.59,10.74-29.37,0-61.78.11-97.22.37-.21,0-.38-.16-.39-.37,0-.06,0-.11.03-.16,1.55-3.59,2.21-7.29,1.99-11.08-.02-.47.34-.87.8-.89.03,0,.06,0,.08,0l8.86.6Z"/>
      <path class="cls-2" d="M309.74,218.21c20.28,0,40.38.02,60.3.06,25.48.05,51.02.03,76.6-.05.35,0,.64.25.69.6l.96,7.35c.03.18-.1.35-.28.37-.02,0-.03,0-.05,0-33.77-.26-73.06.32-109.52.17-9.33-.05-18.9-.07-28.69-.06-9.78,0-19.34.02-28.68.07-36.46.18-75.75-.39-109.52-.11-.18,0-.33-.14-.33-.33,0-.02,0-.03,0-.05l.95-7.35c.04-.35.34-.61.69-.6,25.59.06,51.12.06,76.6,0,19.92-.05,40.02-.07,60.3-.08Z"/>
      <path class="cls-2" d="M213.68,238.57c-3.89-.06-10.6-.56-13.46-3.43-.12-.13-.12-.34.02-.47.07-.06.15-.09.24-.09,5.33.52,9.74.81,13.25.86,3.5.05,7.92-.12,13.26-.5.18-.02.34.12.36.3,0,.11-.03.21-.11.28-2.94,2.78-9.67,3.1-13.55,3.04Z"/>
    </g>
  </g>
</svg>