<?xml version="1.0" encoding="UTF-8"?>
<svg id="Capa_2" data-name="Capa 2" xmlns="http://www.w3.org/2000/svg" viewBox="0 0 425.42 157.33">
  <defs>
    <style>
      .cls-1 {
        fill: #2965e1;
      }

      .cls-2 {
        fill: #97c1fb;
      }
    </style>
  </defs>
  <g id="Capa_1-2" data-name="Capa 1">
    <g>
      <path class="cls-1" d="M20.79,81.87l-8.56.16c-.2,0-.36.17-.36.37v7.63c0,.18.15.33.33.33h6.39c6.22-.03,10.62.09,13.2.36,3.25.35,2.66,5.35-.71,5.4-7.11.12-14.24.22-21.39.3-.25,2.63-.4,6.7-.47,12.23-.11,9.04,3.8,14.32,11.74,15.85,4.78.92,9.46,1.47,14.05,1.64.49.02.9-.37.92-.86,0-.03,0-.05,0-.08-.23-3.81.03-7.6.77-11.37,2.62-11.26,12.46-21.47,23.18-24.88,13.43-4.28,25.63-3.06,36.62,3.66,8.22,5.03,13.08,11.1,15.87,20.29.13.43.53.73.98.73h26.8c.36,0,.66-.3.66-.67h0v-54.57c0-.25-.2-.45-.45-.46-7.83-.17-16.58-.66-26.27-1.47-8.85-.73-17.66-1.45-26.42-2.15-1.8-.14-3.2-.38-4.19-.71-.33-.12-.7-.02-.94.25-2.71,3.09-2.97,7.94-3.13,12.5-.06,1.52-1.24,2.76-2.76,2.88h-.12c-1.44.12-2.71-.93-2.87-2.37-1.04-9.71,2.27-17.69,9.94-23.93,5.39-4.38,11.18-8.92,17.35-13.63,6.11-4.66,12.32-8.37,18.64-11.13,3.16-1.38,6.88-2.17,11.16-2.38,7.47-.35,15.07-.45,22.79-.3,6.28.13,13.84-.09,19.95,1.02,7.2,1.32,13.47,6.02,20.03,11.72,3.75,3.25,10.54,9.64,20.36,19.15,1.71,2.49,3.18,5.01,4.39,7.57,1.41,2.98,3.01,9.87-1.93,9.99-6.48.15-13.98.17-22.51.06-2.39-.03-4.95-1.29-7.66-3.78l-2.16-1.89c-.14-.12-.32-.18-.51-.19l-36.35-.99c-.36-.01-.67.27-.68.63,0,0,0,.01,0,.02v54.54c0,.23.19.42.42.42h65.63c.27,0,.5-.19.56-.45.35-1.6.86-3.07,1.51-4.4,6.92-14.15,18.6-21.7,35.05-22.65,18.96-1.1,36.06,9.57,41.43,28.17.46,4.58.37,9.2-.26,13.85-.03.24.13.45.37.49.02,0,.04,0,.06,0,29.13-.13,58.58-.18,88.35-.15,7.5.01,15.33.05,23.5.1,2.79.02,5.09-.54,6.9-1.68,2.75-1.73,4.12-4.28,4.11-7.65-.02-4.07-.12-8.04-.29-11.91l-.15-5.8c0-.24-.21-.44-.46-.43-.03,0-.05,0-.08,0-7.09,1.59-14.68,2.58-22.77,2.97-12.76.63-26.37.87-38.34,0-1.16-.09-11.85-.69-32.08-1.8-4.54-.25-7.68-.81-9.42-1.68-6.23-3.1-8-9.81-10.27-16.54-1.2-3.59-.13-6.3,3.21-8.14.15-.09.32-.14.5-.17l6.21-.88c.14-.03.23-.16.21-.3-.02-.1-.09-.18-.19-.2-21.75-4.32-42.6-9.45-62.56-15.39-7.26-2.17-10.98-4.54-16.24-10.43-9.12-10.19-18.85-19.49-29.19-27.88-2.55-2.07-.59-5.11,2.12-5.2,6.79-.23,12.02-.48,15.68-.76,12.13-.92,23.28-1.03,34.32-.59.26,0,.49-.2.5-.46,0-.19-.1-.36-.27-.44-10.31-5.01-20.14-6.69-33.06-6.72-53.85-.11-85.48-.13-94.87-.04-11.11.1-21.63,3.26-31.57,9.48-1.33.83-3.08.51-4.03-.74l-.12-.16c-.91-1.19-.68-2.9.51-3.82.02-.02.05-.03.07-.05C104.06,2.28,118.49.32,133.92.18c35.19-.31,66.44-.23,93.75.26,3.57.06,8.4.74,14.49,2.05,8.57,1.83,16.05,4.97,22.44,9.43,19.01,13.24,34.53,25.1,52.46,36.84,2.91,1.9,5.83,1.87,9.29,2.51,1.59.29,9.08,1.22,22.46,2.78,18.26,2.14,37.39,5.4,54.25,12.9,3.39,1.51,6.85,3.7,10.39,6.59,4.54,3.71,5.76,8.13,6.34,14.38,1.07,11.57,1.3,22.79.71,33.68-.81,14.95-18.75,13.71-29.05,13.56-.36,0-.7.18-.89.48-.99,1.53-1.55,2.4-1.66,2.6-3.64,6.47-8.91,11.04-15.81,13.7-.2.08-.3.32-.22.52.06.15.2.24.36.25l50.12.06c1.14,0,2.07.93,2.07,2.08,0,.03,0,.07,0,.1v.09c0,1.23-.98,2.24-2.21,2.26-.01,0-.02,0-.03,0l-420.71.03c-1.27,0-2.33-.97-2.44-2.24l-.02-.14c-.1-1.18.77-2.23,1.95-2.33.07,0,.13,0,.2,0l52.33.32c.21,0,.38-.16.39-.37,0-.15-.08-.28-.21-.35-8.4-4.31-14.08-10.78-17.05-19.43-.07-.2-.26-.34-.48-.34-13.88.05-32.79-2.03-34.63-19.74-.53-5.17-.45-10.21.26-15.12.17-1.19.99-3.32,2.48-6.39.16-.33.24-.71.22-1.08-.31-6.03-.52-14.44-.61-25.21-.05-5.5.45-9.71,1.51-12.63,6.19-17.17,24.74-9.72,39.43-12.48,10.24-1.92,17.26-7.76,25.64-13.92.94-.69,2.22-.71,3.18-.04l1.29.9c.83.57,1.03,1.71.46,2.53-.09.13-.2.25-.33.36-10.22,8.61-19.92,15.71-32,16.72-6.2.52-12.6.64-19.2.37-5.29-.21-9.26,1.96-11.93,6.52-.12.21-.05.48.16.6.05.03.1.05.15.05,5.19.76,10.66,1.67,16.43,2.72,1.79.33,3.17.82,4.12,1.46,3.77,2.53,2.54,5.74,1.2,9.63-2.71,7.87-5.3,13.8-14.18,14.18ZM212.44,22.03c.64.83,2.15,1.65,3.42,2.72,7.82,6.63,15.09,13.87,21.82,21.73,2.38,2.78,4.83,4.59,7.35,5.43,6.37,2.12,13.39,3.06,21.06,2.83,18.39-.57,28.31-.91,29.75-1.02,4.79-.38,8.82-.89,12.08-1.53.43-.08.72-.5.64-.94-.04-.2-.16-.38-.33-.5l-43.63-30.43c-.49-.34-1.06-.52-1.65-.53-5.74-.07-8.78-.09-9.11-.06-13.4.87-26.89,1.04-40.47.5-.62-.02-1.14.46-1.16,1.08,0,.26.07.51.23.72ZM199.12,43.13c.29,0,.52-.24.52-.52,0-.14-.06-.28-.17-.38-4.98-4.85-10.14-9.34-15.48-13.48-4.48-3.47-8.26-5.61-11.35-6.42-.2-.05-.4-.08-.6-.09l-24.28-.66c-.53-.02-.97.4-.99.93,0,.01,0,.02,0,.03v28.79c0,.52.41.94.93.96l33.56.91c.53.02.99-.37,1.07-.9,1.35-9.13,9.56-8.9,16.79-9.17ZM139.83,52.35c.34.03.63-.22.66-.56,0-.02,0-.03,0-.05v-29.32c0-.31-.25-.56-.56-.57-5.44-.09-12.99-.19-18.02,1.83-3.28,1.31-5.45,2.33-6.51,3.05-2.44,1.65-9.44,6.74-20.99,15.27-2.06,1.53-4.59,3.96-6.05,5.84-.22.29-.16.7.13.92.1.08.22.12.34.13l51,3.46ZM189.68,54.36c1.99,3.03,4.61,4.58,7.88,4.64,3.4.06,7.93.08,13.6.07.63,0,1.14-.52,1.13-1.15,0-.2-.05-.39-.15-.56l-3.7-6.41c-.61-1.06-1.76-1.69-2.98-1.62-2.11.11-6.08.25-11.91.41-2.26.06-4.85,1.2-4.24,3.76.07.31.2.6.37.86ZM273.65,60.49c.37.22,1.02.45,1.93.69,6.18,1.62,13.23,3.31,21.14,5.07,6.82,1.53,11.26,2.89,19.38,5.11,4.03,1.11,8.57,2.1,13.62,2.98,5.71.99,10.33,1.47,13.87,1.42,18.19-.23,37.11-.13,56.77.3,1.67.03,3.07-.03,4.18-.19.36-.05.6-.38.55-.73-.03-.2-.15-.38-.32-.48-3.99-2.35-7.94-4.13-11.83-5.34-11.91-3.7-24.99-6.52-37.78-8.24-15.96-2.14-27.87-3.75-35.73-4.84-.52-.07-1.04-.05-1.54.06-14.63,3.04-29.34,4.28-44.11,3.72-.14,0-.26.1-.26.24,0,.1.05.19.13.23ZM15.71,76.1l6.19-.39c1.14-.07,2.19-.63,2.9-1.53,2.33-2.98,3.98-6.46,4.93-10.43.15-.61-.22-1.23-.84-1.38-.02,0-.04,0-.05-.01l-5.24-1.03-11.37-1.62c-.22-.03-.43.12-.47.35,0,.02,0,.04,0,.05v15.63c0,.31.25.57.57.57.01,0,.03,0,.04,0l3.34-.21ZM344.65,97c-.42-5.01-2.32-9.44-5.71-13.3-1.52-1.73-2.7-2.61-3.54-2.66-8.51-.44-17.85-.42-28.02.06-.51.02-.91.46-.89.97,0,.07.02.15.04.22,1.39,4.73,4.98,12.82,10.05,14.2.19.05.39.08.6.09l26.87,1.04c.32.01.59-.24.6-.56,0-.02,0-.04,0-.06ZM413.25,94.58l-1.62-12.45c-.12-.94-.98-1.61-1.93-1.49-.3.04-.59.16-.83.35-5.21,4.03-7.14,8.98-5.79,14.85.11.47.56.78,1.03.72l8.46-1.1c.43-.06.73-.45.68-.88ZM372.59,86.35c4.89,0,12.27.03,22.16.06.41,0,.8-.16,1.08-.45l3.24-3.36c.2-.21.19-.54-.01-.74-.1-.1-.24-.15-.38-.14-8.39.4-17.05.41-26.08.4-9.04,0-17.7-.02-26.09-.43-.29,0-.53.22-.53.5,0,.14.05.27.14.38l3.24,3.36c.28.29.67.46,1.08.46,9.88-.03,17.26-.04,22.15-.04ZM351.53,93.23l.02,5.02c0,.18.15.33.33.33l41.26-.15c1.52,0,2.74-.73,2.74-1.61v-2.48c0-.88-1.24-1.6-2.76-1.59,0,0,0,0,0,0l-41.26.15c-.18,0-.33.15-.33.33h0ZM283.91,121.03c-.19-15.87-14.65-28.56-32.3-28.35h0c-17.64.22-31.79,13.26-31.6,29.13h0c.19,15.87,14.65,28.56,32.3,28.35h0c17.64-.22,31.79-13.26,31.6-29.13h0ZM106,119.81c-.94-15.84-15.8-27.84-33.19-26.81h0c-17.39,1.03-30.72,14.71-29.78,30.55.94,15.84,15.8,27.84,33.19,26.81h0c17.39-1.03,30.72-14.71,29.78-30.55ZM163.25,128.79c31.62,0,48.15-.03,49.59-.06.18,0,.32-.15.31-.33,0,0,0,0,0-.01l-.28-8.43c-.01-.3-.26-.55-.57-.55-24.78-.11-41.13-.17-49.05-.17-7.91,0-24.26.07-49.04.18-.31,0-.56.25-.57.55l-.28,8.43c-.01.18.12.33.3.34,0,0,0,0,.01,0,1.43.04,17.96.06,49.58.05ZM117.33,152.57c11.93.14,19.36.32,22.29.53.33.02.47-.14.43-.48-.02-.16-.15-.3-.4-.41-7.58-3.54-11.3-9.2-14.71-16.54-.13-.29-.4-.49-.72-.52-.51-.06-2.74-.11-6.69-.16-3.95-.05-6.18-.05-6.69,0-.32.03-.6.22-.73.51-3.58,7.25-7.43,12.83-15.1,16.19-.25.11-.38.24-.4.4-.05.34.08.5.41.49,2.93-.15,10.37-.15,22.31-.01ZM175.03,152.72h58.07c.06,0,.1-.04.1-.1,0-.02,0-.04-.02-.06-.13-.19-.31-.34-.55-.46-7.75-3.69-13.38-9.26-16.87-16.69-.12-.25-.37-.41-.64-.41h-23.85c-.35,0-.66.2-.8.52-2.93,6.62-8.65,13.78-15.59,16.36-.23.07-.35.31-.28.54.06.19.24.31.43.3ZM337.86,152.92c.07,0,.13-.06.13-.13,0-.04-.02-.08-.06-.1-1.04-.64-2.38-1.37-4.03-2.19-6.23-3.1-10.7-8.42-13.56-14.88-.13-.3-.43-.5-.76-.5h-30.87c-.3,0-.57.17-.71.43-3.73,7.21-9.04,12.75-15.92,16.6-.08.04-.1.13-.06.2.03.05.08.08.14.09l65.7.48ZM153.76,140.8c4.06,0,7.41-.31,10.04-.93,2.63-.62,4.84-1.83,6.65-3.62.22-.21.22-.55.02-.76-.11-.12-.27-.18-.43-.17-5.69.31-11.12.46-16.29.47-5.16,0-10.59-.15-16.28-.46-.3-.02-.56.2-.58.5-.01.16.05.32.17.43,1.81,1.79,4.02,3,6.65,3.62,2.63.61,5.98.92,10.05.92ZM335.7,136.36c2.8,1.72,8.64,4.4,11.65,4.71,8.02.8,15.51.92,21.1-4.99.16-.17.15-.44-.02-.59-.08-.07-.18-.11-.28-.11h-32.17c-.29,0-.53.24-.53.53,0,.18.09.35.25.45Z"/>
      <rect class="cls-1" x="77.96" y="17.9" width="9.24" height="6.18" rx="2.69" ry="2.69" transform="translate(4.11 54.2) rotate(-37.2)"/>
      <path class="cls-2" d="M212.44,22.03c-.38-.49-.28-1.19.21-1.57.21-.16.46-.24.72-.23,13.58.54,27.07.37,40.47-.5.33-.03,3.37,0,9.11.06.59,0,1.16.19,1.65.53l43.63,30.43c.36.25.45.75.19,1.11-.12.17-.3.29-.5.33-3.26.64-7.29,1.15-12.08,1.53-1.44.11-11.36.45-29.75,1.02-7.67.23-14.69-.71-21.06-2.83-2.52-.84-4.97-2.65-7.35-5.43-6.73-7.86-14-15.1-21.82-21.73-1.27-1.07-2.78-1.89-3.42-2.72Z"/>
      <path class="cls-2" d="M199.12,43.13c-7.23.27-15.44.04-16.79,9.17-.08.53-.54.92-1.07.9l-33.56-.91c-.52-.02-.93-.44-.93-.96v-28.79c0-.53.43-.96.96-.96.01,0,.02,0,.03,0l24.28.66c.2,0,.4.04.6.09,3.09.81,6.87,2.95,11.35,6.42,5.34,4.14,10.5,8.63,15.48,13.48.21.2.22.53.03.73-.1.1-.23.16-.38.17Z"/>
      <path class="cls-2" d="M139.83,52.35l-51-3.46c-.36-.02-.63-.34-.6-.7,0-.13.05-.25.13-.35,1.46-1.88,3.99-4.31,6.05-5.84,11.55-8.53,18.55-13.62,20.99-15.27,1.06-.72,3.23-1.74,6.51-3.05,5.03-2.02,12.58-1.92,18.02-1.83.31,0,.56.26.56.57v29.32c0,.34-.27.61-.61.61-.02,0-.03,0-.05,0Z"/>
      <path class="cls-2" d="M186.17,61.22c2.71,2.49,5.27,3.75,7.66,3.78,8.53.11,16.03.09,22.51-.06,4.94-.12,3.34-7.01,1.93-9.99-1.21-2.56-2.68-5.08-4.39-7.57l4.26,1.72c.3.12.57.3.8.52,3.99,3.86,7.66,9.5,6.7,15.25-.09.53-.35,1.02-.74,1.38-1.99,1.85-4.43,2.92-7.3,3.19-4.61.44-11.51.45-20.72.02-6.65-.31-11.82-3.93-17.59-6.62-.08-.04-.12-.15-.08-.23.02-.05.07-.08.12-.08l6.84-1.31Z"/>
      <path class="cls-2" d="M15.71,76.1c1.69-5.15,4.32-10.08,7.89-14.77l5.24,1.03c.62.12,1.02.72.9,1.34,0,.02,0,.04-.01.05-.95,3.97-2.6,7.45-4.93,10.43-.71.9-1.76,1.46-2.9,1.53l-6.19.39Z"/>
      <rect class="cls-1" x="95.64" y="58.79" width="5.3" height="19.46" rx="2.56" ry="2.56" transform="translate(28.57 165.97) rotate(-89.3)"/>
      <rect class="cls-1" x="156.06" y="69.14" width="19.5" height="5.16" rx="2.51" ry="2.51"/>
      <path class="cls-2" d="M20.79,81.87c-.25,2.94-.98,5.77-2.2,8.49h-6.39c-.18,0-.33-.15-.33-.33h0v-7.63c0-.2.16-.36.36-.37l8.56-.16Z"/>
      <path class="cls-2" d="M351.53,93.23c0-.18.15-.33.33-.33h0l41.26-.15c1.52,0,2.75.7,2.76,1.59h0v2.48c0,.88-1.22,1.6-2.74,1.61l-41.26.15c-.18,0-.33-.15-.33-.33l-.02-5.02Z"/>
      <path class="cls-2" d="M283.91,121.03c.19,15.87-13.95,28.91-31.6,29.13h0c-17.64.22-32.1-12.48-32.3-28.35h0c-.19-15.87,13.95-28.91,31.6-29.13h0c17.64-.22,32.1,12.48,32.3,28.35h0ZM230.86,119.93c-.84,10.69,7.97,20.11,19.67,21.03,11.71.92,21.88-7,22.72-17.69h0c.84-10.69-7.97-20.11-19.67-21.03-11.71-.92-21.88,7-22.72,17.69h0Z"/>
      <path class="cls-2" d="M106,119.81c.94,15.84-12.39,29.52-29.78,30.55-17.39,1.03-32.25-10.97-33.19-26.81h0c-.94-15.84,12.39-29.52,29.78-30.55,17.39-1.03,32.25,10.97,33.19,26.81h0ZM53.5,121.05c-.35,10.69,8.74,19.66,20.32,20.04h0c11.58.38,21.25-7.97,21.6-18.65h0c.35-10.69-8.74-19.66-20.32-20.04h0c-11.58-.38-21.25,7.97-21.6,18.65h0Z"/>
      <path class="cls-2" d="M9.69,96.42c.05.87.19,1.3.41,1.28,1.93-.22,3.49.45,4.67,2.01,2.21,2.94,4.62,5.71,7.24,8.3,3.96,3.93,8.86,5.87,14.69,5.82-.74,3.77-1,7.56-.77,11.37.03.49-.35.91-.84.94-.03,0-.05,0-.08,0-4.59-.17-9.27-.72-14.05-1.64-7.94-1.53-11.85-6.81-11.74-15.85.07-5.53.22-9.6.47-12.23Z"/>
      <path class="cls-1" d="M230.86,119.93c.84-10.69,11.01-18.61,22.72-17.69h0c11.71.92,20.51,10.34,19.67,21.03-.84,10.69-11.01,18.61-22.72,17.69h0c-11.71-.92-20.51-10.34-19.67-21.03ZM265.81,120.91c-.36-7.08-6.86-12.5-14.53-12.11h0c-7.67.39-13.59,6.44-13.23,13.52.36,7.08,6.86,12.5,14.53,12.11h0c7.67-.39,13.59-6.44,13.23-13.52h0Z"/>
      <path class="cls-1" d="M53.5,121.05c.35-10.69,10.03-19.04,21.6-18.65h0c11.58.38,20.67,9.36,20.32,20.04,0,0,0,0,0,0-.35,10.69-10.03,19.04-21.6,18.65h0c-11.58-.38-20.67-9.36-20.32-20.04h0ZM88.26,120.48c-.67-6.93-7.38-11.96-14.98-11.23-7.61.73-13.24,6.95-12.57,13.88.67,6.93,7.38,11.96,14.98,11.23s13.24-6.95,12.57-13.88Z"/>
      <path class="cls-2" d="M413.81,107.48c.17,3.87.27,7.84.29,11.91.01,3.37-1.36,5.92-4.11,7.65-1.81,1.14-4.11,1.7-6.9,1.68-8.17-.05-16-.09-23.5-.1-29.77-.03-59.22.02-88.35.15-.24,0-.43-.19-.43-.43,0-.02,0-.04,0-.06.63-4.65.72-9.27.26-13.85,4.73,8.16,13.24,6.61,22.75,6.68,6.79.06,13.29-.91,19.07-.41,8.47.73,12.36.52,21.28.81.43.02.86-.01,1.29-.09,2.08-.38,3.93-.84,5.95-.85,7.05-.05,14.04-.17,20.97-.36.53-.01,1.51.06,2.96.23.58.07.85-.18.8-.75,8.17.35,13.82.3,16.95-.16,2.37-.34,3.75-3.06,1.43-4.71-.82-.59-1.8-.86-2.95-.81,3.83-2.62,7.91-4.8,12.24-6.53Z"/>
      <rect class="cls-1" x="335.87" y="114.16" width="23.34" height="5.46" rx="2.65" ry="2.65" transform="translate(-.61 1.82) rotate(-.3)"/>
      <path class="cls-1" d="M401.57,114.01c1.15-.05,2.13.22,2.95.81,2.32,1.65.94,4.37-1.43,4.71-3.13.46-8.78.51-16.95.16-1.3-.71-2.8-2-1.78-3.61.76-1.21,2.09-1.83,3.98-1.88,4.45-.11,8.86-.17,13.23-.19Z"/>
      <path class="cls-2" d="M163.25,119.24c7.92,0,24.27.06,49.05.17.31,0,.56.25.57.55l.28,8.43c.01.18-.12.33-.3.34,0,0,0,0-.01,0-1.44.03-17.97.05-49.59.06s-48.15-.01-49.58-.05c-.18,0-.32-.15-.31-.33,0,0,0,0,0-.01l.28-8.43c.01-.3.26-.55.57-.55,24.78-.11,41.13-.17,49.04-.18Z"/>
      <path class="cls-2" d="M153.75,135.79c5.17,0,10.6-.16,16.29-.47.3-.02.56.2.58.5.01.16-.05.32-.17.43-1.81,1.79-4.02,3-6.65,3.62-2.63.62-5.98.93-10.04.93s-7.42-.31-10.05-.92c-2.63-.62-4.84-1.83-6.65-3.62-.22-.21-.22-.55-.02-.76.11-.12.27-.18.43-.17,5.69.31,11.12.46,16.28.46Z"/>
      <path class="cls-2" d="M335.7,136.36c-.25-.15-.32-.48-.17-.73.1-.16.27-.25.45-.25h32.17c.23,0,.41.18.41.41,0,.11-.04.21-.11.29-5.59,5.91-13.08,5.79-21.1,4.99-3.01-.31-8.85-2.99-11.65-4.71Z"/>
    </g>
  </g>
</svg>