<?xml version="1.0" encoding="UTF-8"?>
<svg id="Capa_2" data-name="Capa 2" xmlns="http://www.w3.org/2000/svg" viewBox="0 0 861.49 296.05">
  <defs>
    <style>
      .cls-1 {
        fill: #fff;
      }
    </style>
  </defs>
  <g id="Capa_1-2" data-name="Capa 1">
    <g>
      <path class="cls-1" d="M281.51,75.64h-5.84c-.1,5.55-1.19,10.71-3.29,15.48-2.1,4.77-5.04,8.62-8.83,11.54-3.8,2.92-8.42,4.38-13.87,4.38h-24.83V5.7h17.23V1.31h-54.18v4.38h13.87v101.34h-13.87v4.38h93.6v-35.78Z"/>
      <path class="cls-1" d="M383.07,95.94c4.92-5.35,8.76-11.44,11.54-18.25,2.77-6.81,4.16-13.97,4.16-21.47s-1.39-14.63-4.16-21.39c-2.77-6.77-6.62-12.75-11.54-17.96-4.92-5.21-10.69-9.32-17.3-12.34-6.62-3.02-13.73-4.53-21.32-4.53s-14.68,1.51-21.25,4.53c-6.57,3.02-12.32,7.13-17.23,12.34-4.92,5.21-8.76,11.2-11.54,17.96-2.77,6.77-4.16,13.9-4.16,21.39s1.39,14.65,4.16,21.47c2.77,6.82,6.62,12.9,11.54,18.25,4.92,5.35,10.66,9.59,17.23,12.7,6.57,3.11,13.65,4.67,21.25,4.67s14.7-1.56,21.32-4.67c6.62-3.11,12.39-7.35,17.3-12.7ZM356.86,105.94c-3.41,1.51-7.59,2.26-12.56,2.26s-8.83-.75-12.19-2.26c-3.36-1.51-6.09-4.14-8.18-7.89-2.09-3.75-3.6-9-4.53-15.77-.93-6.76-1.39-15.45-1.39-26.07s.46-18.81,1.39-25.48c.92-6.67,2.41-11.85,4.45-15.55,2.05-3.7,4.75-6.3,8.11-7.81,3.36-1.51,7.47-2.26,12.34-2.26s9.15.76,12.56,2.26c3.41,1.51,6.16,4.14,8.25,7.89,2.09,3.75,3.6,8.96,4.53,15.63.92,6.67,1.39,15.21,1.39,25.63s-.46,18.98-1.39,25.7c-.93,6.72-2.43,11.97-4.53,15.77-2.09,3.8-4.84,6.45-8.25,7.96Z"/>
      <path class="cls-1" d="M468.58,46.07c-5.06-3.07-11.3-5.48-18.69-7.23-2.92-.68-5.99-1.41-9.2-2.19-3.21-.78-6.23-1.75-9.05-2.92-2.82-1.17-5.11-2.75-6.86-4.75-1.75-1.99-2.63-4.55-2.63-7.67,0-3.31,1.02-6.18,3.07-8.62,2.05-2.43,4.79-4.31,8.25-5.62,3.45-1.31,7.28-1.97,11.46-1.97,6.91,0,12.75,2.02,17.52,6.06,4.77,4.04,8.57,10.68,11.39,19.93h4.38V1.31h-4.53l-5.69,6.13c-3.89-2.43-7.57-4.28-11.02-5.55-3.46-1.26-7.38-1.9-11.76-1.9-5.94,0-11.54,1.19-16.79,3.58-5.26,2.39-9.49,6.01-12.7,10.88-3.21,4.87-4.82,11.05-4.82,18.55,0,6.82,1.43,12.51,4.31,17.09,2.87,4.58,6.89,8.3,12.05,11.17,5.16,2.87,11.14,5.18,17.96,6.94,2.82.68,5.81,1.41,8.98,2.19,3.16.78,6.13,1.83,8.91,3.14,2.78,1.31,5.04,3.14,6.79,5.48,1.75,2.34,2.63,5.4,2.63,9.2s-.95,7.08-2.85,10.15c-1.9,3.07-4.67,5.48-8.32,7.23-3.65,1.75-8.2,2.63-13.65,2.63-6.62,0-12.22-1.29-16.79-3.87-4.58-2.58-8.2-5.96-10.88-10.15-2.68-4.18-4.6-8.66-5.77-13.43h-4.53v30.67h4.38l6.86-7.01c3.6,2.63,7.54,4.77,11.83,6.43,4.28,1.65,9.4,2.48,15.33,2.48,11.58,0,20.47-3.21,26.65-9.64,6.18-6.43,9.27-15.38,9.27-26.87,0-7.5-1.32-13.73-3.94-18.69-2.63-4.96-6.47-8.98-11.53-12.05Z"/>
      <path class="cls-1" d="M311.81,167.28c-6.57-6.95-14.27-12.44-23.1-16.47-8.84-4.03-18.32-6.04-28.46-6.04s-19.59,2.02-28.37,6.04c-8.77,4.03-16.44,9.52-23.01,16.47-6.56,6.95-11.7,14.95-15.4,23.98-3.7,9.04-5.56,18.55-5.56,28.56s1.85,19.56,5.56,28.66c3.7,9.1,8.84,17.22,15.4,24.37,6.56,7.15,14.23,12.8,23.01,16.96,8.77,4.16,18.23,6.24,28.37,6.24s19.63-2.08,28.46-6.24c8.84-4.16,16.54-9.81,23.1-16.96,6.56-7.15,11.7-15.27,15.4-24.37,3.7-9.1,5.56-18.65,5.56-28.66s-1.85-19.53-5.56-28.56c-3.7-9.03-8.84-17.03-15.4-23.98ZM293.87,254.53c-1.24,8.97-3.25,15.99-6.05,21.06-2.8,5.07-6.47,8.61-11.02,10.62-4.55,2.02-10.14,3.02-16.77,3.02s-11.8-1.01-16.28-3.02c-4.48-2.01-8.12-5.52-10.92-10.53-2.8-5-4.81-12.02-6.04-21.06-1.24-9.03-1.85-20.63-1.85-34.8s.62-25.12,1.85-34.02c1.23-8.9,3.22-15.82,5.95-20.76,2.73-4.94,6.34-8.41,10.82-10.43,4.48-2.01,9.97-3.02,16.47-3.02s12.22,1.01,16.77,3.02c4.55,2.02,8.22,5.53,11.02,10.53,2.79,5,4.81,11.96,6.05,20.86,1.23,8.9,1.85,20.31,1.85,34.22s-.62,25.35-1.85,34.31Z"/>
      <path class="cls-1" d="M444.28,219.14c-.63-.16-1.28-.29-1.93-.44,1.12-.32,2.22-.66,3.29-1.02,8.45-2.86,15.08-7.18,19.89-12.97,4.81-5.78,7.21-12.9,7.21-21.35s-2.18-15.01-6.53-20.47c-4.36-5.46-10.21-9.55-17.55-12.28-7.34-2.73-15.57-4.09-24.66-4.09h-78.57v5.85h19.5v135.3h-19.5v5.85h78.57c10.26,0,19.5-1.33,27.68-4,8.19-2.66,14.65-6.79,19.4-12.38,4.74-5.59,7.12-12.74,7.12-21.45,0-9.88-2.99-17.77-8.97-23.69-5.98-5.91-14.3-10.2-24.95-12.87ZM395.74,152.37h20.47c5.46,0,9.91.78,13.35,2.34,3.44,1.56,5.98,4.58,7.6,9.07,1.63,4.48,2.44,11.08,2.44,19.79s-.81,15.14-2.44,19.69c-1.62,4.55-4.16,7.67-7.6,9.36-3.45,1.69-7.9,2.54-13.35,2.54h-20.47v-62.78ZM440.19,274.71c-2.21,5-5.33,8.42-9.36,10.24-4.03,1.82-8.91,2.73-14.62,2.73h-20.47v-65.7h17.16c7.67,0,13.75.91,18.23,2.73,4.48,1.82,7.67,5.01,9.55,9.55,1.88,4.55,2.83,10.92,2.83,19.11,0,9.23-1.1,16.35-3.31,21.35Z"/>
      <path class="cls-1" d="M603.66,266.42c-2.8,6.37-6.72,11.5-11.79,15.4-5.07,3.9-11.24,5.85-18.52,5.85h-33.14v-135.3h23.01v-5.85h-72.33v5.85h18.52v135.3h-18.52v5.85h124.97v-47.76h-7.8c-.13,7.41-1.59,14.3-4.39,20.67Z"/>
      <path class="cls-1" d="M736.43,266.42c-2.8,6.37-6.72,11.5-11.79,15.4-5.07,3.9-11.24,5.85-18.52,5.85h-33.14v-63.55c8.21.06,14.85,1.02,19.89,2.91,5.2,1.95,8.97,4.94,11.31,8.97,2.34,4.03,3.57,9.16,3.7,15.4h7.8v-58.49h-7.8c-.13,5.72-1.36,10.46-3.7,14.23-2.34,3.77-6.11,6.57-11.31,8.38-5.04,1.76-11.68,2.66-19.89,2.72v-65.89h33.14c6.63,0,12.28,1.53,16.96,4.58,4.68,3.06,8.29,7.09,10.82,12.09,2.53,5.01,3.87,10.5,4,16.47h7.8v-38.99h-122.05v5.85h18.52v135.3h-18.52v5.85h124.97v-47.76h-7.8c-.13,7.41-1.59,14.3-4.39,20.67Z"/>
      <path class="cls-1" d="M856.23,222.36c-3.51-6.63-8.64-11.99-15.4-16.08-6.76-4.09-15.08-7.31-24.96-9.65-3.9-.91-7.99-1.88-12.28-2.92-4.29-1.04-8.32-2.34-12.09-3.9-3.77-1.56-6.82-3.67-9.16-6.34-2.34-2.66-3.51-6.07-3.51-10.24,0-4.42,1.36-8.25,4.09-11.5,2.73-3.25,6.4-5.75,11.02-7.51,4.61-1.75,9.71-2.63,15.3-2.63,9.23,0,17.02,2.7,23.39,8.09,6.37,5.4,11.44,14.27,15.21,26.61h5.85v-39.77h-6.04l-7.6,8.19c-5.2-3.25-10.11-5.72-14.72-7.41-4.62-1.69-9.85-2.53-15.69-2.53-7.93,0-15.4,1.59-22.42,4.78-7.02,3.19-12.67,8.03-16.96,14.53-4.29,6.5-6.43,14.75-6.43,24.76,0,9.1,1.92,16.7,5.75,22.81,3.83,6.11,9.19,11.08,16.08,14.91,6.89,3.83,14.88,6.92,23.98,9.26,3.77.91,7.76,1.89,11.99,2.92,4.22,1.04,8.19,2.44,11.89,4.19,3.7,1.75,6.72,4.19,9.07,7.31,2.34,3.12,3.51,7.21,3.51,12.28s-1.27,9.46-3.8,13.55c-2.53,4.09-6.24,7.31-11.11,9.65-4.87,2.34-10.95,3.51-18.23,3.51-8.84,0-16.31-1.72-22.42-5.17-6.11-3.44-10.95-7.96-14.52-13.55-3.58-5.59-6.14-11.57-7.7-17.94h-6.04v40.94h5.85l9.16-9.36c4.8,3.51,10.07,6.37,15.79,8.58,5.72,2.21,12.54,3.31,20.47,3.31,15.46,0,27.32-4.29,35.58-12.87,8.25-8.58,12.38-20.53,12.38-35.87,0-10.01-1.76-18.33-5.27-24.96Z"/>
      <path class="cls-1" d="M152.4,273.78c-3.91-6.51-5.86-18.76-5.86-36.73v-17.58c0-12.51-3.52-24.09-10.55-34.78-7.03-10.68-16.09-19.79-27.16-27.35-11.08-7.55-22.47-12.63-34.19-15.24-2.12-.43-4.36-.8-6.7-1.1-.59-.08-1.15-.11-1.73-.17,11.7-1.43,22.4-3.6,32.08-6.54,18.89-5.73,33.41-14.13,43.57-25.21,10.16-11.07,15.24-24.55,15.24-40.45,0-14.32-4.43-26.44-13.29-36.34-8.86-9.9-20.78-17.52-35.75-22.86C93.06,4.09,76.2,1.41,57.44,1.41H0v11.72h37.9c9.9,0,18.17,1.43,24.82,4.3,6.64,2.87,11.66,8.4,15.04,16.61,3.38,8.21,5.08,20.65,5.08,37.32s-1.76,28.92-5.28,37.52c-3.52,8.6-9.18,14.46-17,17.58-7.81,3.13-17.97,4.69-30.48,4.69H0v11.72h18.75c14.59,0,26.57,4.1,35.95,12.31,9.38,8.21,14.46,21.04,15.24,38.49l1.95,42.59c.52,11.99,3.97,22.47,10.35,31.46,6.38,8.99,14.78,15.96,25.2,20.91,10.42,4.95,22.14,7.42,35.17,7.42h45.72v-12.5h-14.85c-10.16,0-17.19-3.26-21.1-9.77Z"/>
    </g>
  </g>
</svg>