<?xml version="1.0" encoding="UTF-8"?>
<svg id="Capa_2" data-name="Capa 2" xmlns="http://www.w3.org/2000/svg" viewBox="0 0 621.37 174.64">
  <g id="Capa_1-2" data-name="Capa 1">
    <g>
      <path d="M202.77,17.15c-5-5.29-10.86-9.48-17.59-12.54-6.73-3.07-13.95-4.6-21.68-4.6s-14.92,1.54-21.6,4.6c-6.68,3.07-12.52,7.25-17.52,12.54-5,5.3-8.91,11.38-11.73,18.26-2.82,6.88-4.23,14.13-4.23,21.75s1.41,14.9,4.23,21.82c2.82,6.93,6.73,13.12,11.73,18.56,5,5.44,10.84,9.75,17.52,12.92,6.68,3.17,13.88,4.75,21.6,4.75s14.94-1.58,21.68-4.75c6.73-3.17,12.59-7.47,17.59-12.92,5-5.44,8.91-11.63,11.73-18.56,2.82-6.93,4.23-14.2,4.23-21.82s-1.41-14.87-4.23-21.75c-2.82-6.88-6.73-12.97-11.73-18.26ZM189.12,83.59c-.94,6.83-2.48,12.17-4.6,16.03-2.13,3.86-4.93,6.56-8.39,8.09-3.47,1.54-7.72,2.3-12.77,2.3s-8.98-.77-12.4-2.3c-3.41-1.53-6.19-4.2-8.31-8.02-2.13-3.81-3.66-9.15-4.6-16.03-.94-6.88-1.41-15.71-1.41-26.5s.47-19.13,1.41-25.91c.94-6.78,2.45-12.05,4.53-15.81,2.08-3.76,4.83-6.41,8.24-7.94,3.41-1.53,7.59-2.3,12.55-2.3s9.3.77,12.77,2.3c3.46,1.54,6.26,4.21,8.39,8.02,2.13,3.81,3.66,9.11,4.6,15.89.94,6.78,1.41,15.47,1.41,26.06s-.47,19.3-1.41,26.13Z"/>
      <path d="M303.66,56.64c-.48-.12-.98-.22-1.47-.34.85-.24,1.69-.5,2.51-.78,6.43-2.18,11.48-5.47,15.14-9.87,3.66-4.4,5.49-9.82,5.49-16.26s-1.66-11.43-4.97-15.59c-3.32-4.16-7.77-7.28-13.36-9.35-5.59-2.08-11.85-3.12-18.78-3.12h-59.83v4.45h14.85v103.03h-14.85v4.45h59.83c7.82,0,14.85-1.01,21.08-3.04,6.24-2.03,11.16-5.17,14.77-9.43,3.61-4.25,5.42-9.7,5.42-16.33,0-7.52-2.28-13.53-6.83-18.04-4.55-4.5-10.89-7.77-19-9.8ZM266.69,5.79h15.59c4.16,0,7.55.59,10.17,1.78,2.62,1.19,4.55,3.49,5.79,6.9,1.24,3.41,1.86,8.44,1.86,15.07s-.62,11.53-1.86,15c-1.24,3.47-3.17,5.84-5.79,7.13-2.62,1.29-6.01,1.93-10.17,1.93h-15.59V5.79ZM300.54,98.95c-1.68,3.81-4.06,6.41-7.13,7.79-3.07,1.39-6.78,2.08-11.14,2.08h-15.59v-50.03h13.06c5.84,0,10.47.69,13.88,2.08,3.41,1.39,5.84,3.81,7.27,7.28,1.43,3.47,2.15,8.31,2.15,14.55,0,7.03-.84,12.45-2.52,16.26Z"/>
      <path d="M434.3,76.9h-5.94c-.1,5.64-1.21,10.89-3.34,15.74-2.13,4.85-5.12,8.76-8.98,11.73-3.86,2.97-8.56,4.45-14.1,4.45h-25.24V5.79h17.52V1.34h-55.08v4.45h14.11v103.03h-14.11v4.45h95.17v-36.37Z"/>
      <path d="M535.41,76.9h-5.94c-.1,5.64-1.21,10.89-3.34,15.74-2.13,4.85-5.12,8.76-8.98,11.73-3.86,2.97-8.56,4.45-14.1,4.45h-25.24v-48.39c6.25.05,11.31.78,15.14,2.22,3.96,1.48,6.83,3.76,8.61,6.83,1.78,3.07,2.72,6.98,2.82,11.73h5.94v-44.54h-5.94c-.1,4.36-1.04,7.97-2.82,10.84-1.78,2.87-4.65,5-8.61,6.38-3.84,1.34-8.89,2.03-15.14,2.07V5.79h25.24c5.05,0,9.35,1.16,12.92,3.49,3.56,2.33,6.31,5.4,8.24,9.2,1.93,3.81,2.94,7.99,3.04,12.55h5.94V1.34h-92.94v4.45h14.1v103.03h-14.1v4.45h95.17v-36.37Z"/>
      <path d="M617.36,59.09c-2.67-5.05-6.58-9.13-11.73-12.25-5.15-3.12-11.48-5.57-19.01-7.35-2.97-.69-6.09-1.43-9.35-2.23-3.27-.79-6.33-1.78-9.2-2.97-2.87-1.19-5.2-2.8-6.98-4.82-1.78-2.03-2.67-4.63-2.67-7.8,0-3.36,1.04-6.28,3.12-8.76,2.08-2.47,4.87-4.38,8.39-5.72,3.51-1.34,7.4-2.01,11.65-2.01,7.03,0,12.96,2.06,17.81,6.16,4.85,4.11,8.71,10.86,11.58,20.26h4.45V1.34h-4.6l-5.79,6.24c-3.96-2.47-7.7-4.35-11.21-5.64-3.52-1.29-7.5-1.93-11.95-1.93-6.04,0-11.73,1.21-17.07,3.64-5.35,2.43-9.65,6.11-12.92,11.06-3.27,4.95-4.9,11.23-4.9,18.85,0,6.93,1.46,12.72,4.38,17.37,2.92,4.65,7,8.44,12.25,11.36,5.24,2.92,11.33,5.27,18.26,7.05,2.87.69,5.91,1.44,9.13,2.23,3.21.79,6.24,1.86,9.06,3.19,2.82,1.34,5.12,3.19,6.9,5.57,1.78,2.38,2.67,5.49,2.67,9.35s-.96,7.2-2.9,10.32c-1.93,3.12-4.75,5.57-8.46,7.35s-8.34,2.67-13.88,2.67c-6.73,0-12.42-1.31-17.07-3.93-4.65-2.62-8.34-6.06-11.06-10.32-2.72-4.25-4.68-8.81-5.86-13.66h-4.6v31.18h4.45l6.98-7.13c3.66,2.67,7.67,4.85,12.02,6.53,4.36,1.68,9.55,2.52,15.59,2.52,11.78,0,20.81-3.27,27.09-9.8,6.28-6.53,9.43-15.64,9.43-27.32,0-7.62-1.34-13.96-4.01-19Z"/>
      <path d="M88,157.27c-2.26-3.76-3.39-10.83-3.39-21.21v-10.15c0-7.22-2.03-13.91-6.09-20.08-4.06-6.17-9.29-11.43-15.68-15.79-6.4-4.36-12.98-7.29-19.74-8.8-1.23-.25-2.52-.46-3.87-.64-.34-.04-.66-.06-1-.1,6.75-.83,12.93-2.08,18.52-3.78,10.91-3.31,19.29-8.16,25.16-14.55,5.87-6.39,8.8-14.18,8.8-23.35,0-8.27-2.56-15.27-7.67-20.98-5.11-5.72-12-10.11-20.65-13.2C53.74,1.54,44,0,33.17,0H0v6.77h21.89c5.72,0,10.49.83,14.33,2.48,3.84,1.66,6.73,4.85,8.69,9.59,1.95,4.74,2.93,11.92,2.93,21.55s-1.02,16.7-3.05,21.66c-2.03,4.96-5.3,8.35-9.82,10.15-4.51,1.8-10.38,2.71-17.6,2.71H0v6.77h10.83c8.42,0,15.34,2.37,20.76,7.11,5.42,4.74,8.35,12.15,8.8,22.23l1.13,24.6c.3,6.92,2.29,12.97,5.98,18.16,3.69,5.19,8.54,9.22,14.55,12.07,6.02,2.86,12.79,4.29,20.31,4.29h26.4v-7.22h-8.57c-5.87,0-9.93-1.88-12.18-5.64Z"/>
      <path d="M179.75,147.42c-1.6-3.24-5.18-5.41-9.05-5.41-7.01,0-12.22,5.44-12.22,12.96s5.14,12.92,12.25,12.92c5.78,0,10.48-3.84,11.52-9.68h-2.57c-1.07,4.47-4.61,7.15-8.95,7.15-5.58,0-9.48-4.37-9.48-10.38s3.97-10.45,9.45-10.45c4.51,0,8.08,3.14,8.95,7.31h2.6v-9.45h-2.5v5.04Z"/>
      <path d="M202.1,148.76c-5.14,0-8.95,4.11-8.95,9.58s3.81,9.55,8.95,9.55,8.98-4.01,8.98-9.55-3.74-9.58-8.98-9.58ZM202.1,165.52c-3.57,0-6.14-2.94-6.14-7.18s2.57-7.18,6.14-7.18,6.21,2.97,6.21,7.18-2.57,7.18-6.21,7.18Z"/>
      <path d="M251.02,164.05v-9.02c0-3.91-2.4-6.28-6.18-6.28-2.84,0-5.38,1.74-6.54,4.21-.9-2.74-3.04-4.21-5.71-4.21s-5.34,1.7-6.31,4.24v-3.77h-5.01v2.34h1.44c.63,0,1,.4,1,1.03v11.45c0,.63-.37,1.04-1,1.04h-1.44v2.34h8.21v-2.34h-2.07c-.67,0-1.03-.4-1.03-1.04v-6.54c0-3.91,2.34-6.48,5.61-6.48,2.54,0,4.11,1.7,4.11,4.51v8.51c0,.63-.37,1.04-1,1.04h-2.14v2.34h8.91v-2.34h-2.1c-.63,0-1-.4-1-1.04v-6.98c0-3.64,2.3-6.04,5.51-6.04,2.54,0,4.07,1.67,4.07,4.41v8.61c0,.63-.37,1.04-1,1.04h-2.07v2.34h8.21v-2.34h-1.44c-.63,0-1.03-.4-1.03-1.04Z"/>
      <path d="M274.23,148.76c-2.6,0-5.34,1.47-6.68,4.57v-4.11h-4.77v2.34h1.37c.6,0,.97.4.97,1.03v18.3c0,.63-.37,1.04-.97,1.04h-1.37v2.34h8.48v-2.34h-2.54c-.6,0-.97-.4-.97-1.04v-7.35c1.3,2.94,3.97,4.34,6.44,4.34,4.81,0,8.35-4.11,8.35-9.58s-3.51-9.55-8.31-9.55ZM273.79,165.52c-3.64,0-6.34-3.07-6.34-7.15s2.7-7.25,6.34-7.25,5.98,2.94,5.98,7.18-2.47,7.21-5.98,7.21Z"/>
      <path d="M297.94,164.05v-22.67h-5.44v2.34h1.74c.67,0,1.03.4,1.03,1.03v19.3c0,.63-.37,1.04-1.03,1.04h-1.74v2.34h8.21v-2.34h-1.77c-.63,0-1-.4-1-1.04Z"/>
      <path d="M319.15,148.76c-4.84,0-8.65,4.01-8.65,9.48,0,5.84,3.77,9.65,9.42,9.65,3,0,5.78-1.24,7.18-2.87l-.07-2.57h-.13c-1.24,1.64-3.67,3.04-6.81,3.04-4.01,0-6.44-2.37-6.78-6.44h13.79c.1-.37.13-.87.13-1.4,0-5.31-3.34-8.88-8.08-8.88ZM313.37,156.94c.4-3.57,2.74-5.78,5.71-5.78,3.44,0,5.34,2.37,5.48,5.78h-11.19Z"/>
      <path d="M341.62,141.08c-1.14,0-1.84.6-1.84,1.8s.7,1.8,1.84,1.8,1.8-.63,1.8-1.8-.63-1.8-1.8-1.8Z"/>
      <path d="M338.01,151.56h1.74c.63,0,1,.4,1,1.03v15.39c0,2.7-1.27,4.34-3.47,4.34-.83,0-1.6-.17-2.17-.5v2.27c.6.33,1.54.53,2.5.53,3.54,0,5.81-2.47,5.81-6.58v-18.83h-5.41v2.34Z"/>
      <path d="M364.46,148.76c-5.14,0-8.95,4.11-8.95,9.58s3.81,9.55,8.95,9.55,8.98-4.01,8.98-9.55-3.74-9.58-8.98-9.58ZM364.46,165.52c-3.57,0-6.14-2.94-6.14-7.18s2.57-7.18,6.14-7.18,6.21,2.97,6.21,7.18-2.57,7.18-6.21,7.18Z"/>
      <path d="M399.13,150.53h2.57v-4.91c0-.63.37-1.04,1-1.04h4.67v19.47c0,.63-.4,1.04-1,1.04h-1.74v2.34h8.18v-2.34h-1.7c-.67,0-1.04-.4-1.04-1.04v-19.47h4.67c.63,0,1,.4,1,1.04v4.91h2.54v-8.15h-19.17v8.15Z"/>
      <path d="M445.48,164.05v-14.83h-6.34v2.34h2.64c.63,0,1.03.4,1.03,1.03v6.48c0,4.17-2.7,6.54-5.78,6.54-2.54,0-4.04-1.6-4.04-4.24v-12.15h-5.81v2.34h2.14c.63,0,1,.4,1,1.03v9.15c0,3.84,2.27,6.14,5.94,6.14,3.01,0,5.68-1.77,6.64-4.34v3.87h5.01v-2.34h-1.44c-.63,0-1-.4-1-1.04Z"/>
      <path d="M463.44,152.9v-3.67h-5.24v2.34h1.7c.63,0,1,.4,1,1.03v11.45c0,.63-.37,1.04-1,1.04h-1.7v2.34h9.01v-2.34h-2.6c-.67,0-1.03-.4-1.03-1.04v-6.94c0-3.74,2.37-5.78,5.54-5.78.67,0,1.24.1,1.64.2v-2.54c-.37-.13-.93-.23-1.47-.23-2.64,0-4.94,1.67-5.84,4.14Z"/>
      <path d="M486.48,164.05v-14.83h-5.44v2.34h1.77c.63,0,1,.4,1,1.03v11.45c0,.63-.37,1.04-1,1.04h-1.77v2.34h8.21v-2.34h-1.74c-.67,0-1.03-.4-1.03-1.04Z"/>
      <polygon points="488.99 143.68 488.99 141.18 482.14 144.12 482.14 146.36 488.99 143.68"/>
      <path d="M508.76,156.91l-3.01-.53c-.97-.2-1.67-.47-2.1-.87-.4-.43-.6-.94-.6-1.6,0-.73.27-1.34.73-1.8.7-.67,1.74-1.03,2.97-1.03,1.1,0,2.14.27,2.87.87.7.5,1.2,1.24,1.27,2.14v.2h2.3v-5.04h-2.24l-.07,1.94c-.97-1.64-2.74-2.4-4.78-2.4-1.74,0-3.27.6-4.27,1.64-.93.9-1.44,2.14-1.44,3.51s.4,2.3,1.14,3.07c.8.77,1.97,1.27,3.51,1.54l2.97.53c1.14.2,1.94.53,2.47,1.1.57.53.77,1.24.77,2.1s-.3,1.64-.87,2.2c-.73.73-1.87,1.14-3.21,1.14-1.54,0-2.8-.5-3.67-1.4-.67-.7-1.03-1.57-1.1-2.57v-.27h-2.4v6.08h2.34l.1-2.4c1.1,1.87,3.04,2.87,5.48,2.87,1.74,0,3.34-.6,4.44-1.7.97-.97,1.57-2.34,1.57-3.97,0-1.47-.43-2.67-1.34-3.61-.83-.83-2.1-1.4-3.84-1.7Z"/>
      <path d="M529.5,143.72h-2.64v5.51h-3.51v2.34h2.5c.63,0,1,.4,1,1.03v9.25c0,3.77,2.14,5.94,5.71,5.94,1.07,0,2.24-.2,2.91-.6v-2.47c-.63.4-1.77.6-2.64.6-2.1,0-3.34-1.24-3.34-3.47v-9.25c0-.63.37-1.03,1-1.03h4.98v-2.34h-5.98v-5.51Z"/>
      <path d="M551.44,164.05v-14.83h-5.44v2.34h1.77c.63,0,1,.4,1,1.03v11.45c0,.63-.37,1.04-1,1.04h-1.77v2.34h8.21v-2.34h-1.74c-.67,0-1.03-.4-1.03-1.04Z"/>
      <path d="M551.54,142.88c0-1.2-.63-1.8-1.8-1.8s-1.84.6-1.84,1.8.7,1.8,1.84,1.8,1.8-.63,1.8-1.8Z"/>
      <path d="M578.92,152.3c-1.1-2.2-3.37-3.54-5.98-3.54-4.71,0-8.48,4.04-8.48,9.58s3.77,9.55,9.28,9.55c3.11,0,6.11-1.57,7.51-3.47l-.03-2.74h-.17c-1.37,1.97-3.91,3.81-7.21,3.81-3.94,0-6.58-2.9-6.58-7.18s2.57-7.18,6.08-7.18c3.1,0,5.44,2.34,5.74,5.38v.27h2.17v-7.55h-2.34v3.07Z"/>
      <path d="M601.19,148.76c-5.14,0-8.95,4.11-8.95,9.58s3.81,9.55,8.95,9.55,8.98-4.01,8.98-9.55-3.74-9.58-8.98-9.58ZM601.19,165.52c-3.57,0-6.14-2.94-6.14-7.18s2.57-7.18,6.14-7.18,6.21,2.97,6.21,7.18-2.57,7.18-6.21,7.18Z"/>
    </g>
  </g>
</svg>