<?xml version="1.0" encoding="UTF-8"?>
<svg id="Capa_2" data-name="Capa 2" xmlns="http://www.w3.org/2000/svg" viewBox="0 0 552.81 310.1">
  <defs>
    <style>
      .cls-1 {
        fill: #c46a2d;
      }

      .cls-2 {
        fill: #d6a27d;
      }
    </style>
  </defs>
  <g id="Capa_1-2" data-name="Capa 1">
    <g>
      <path class="cls-1" d="M80.71,113.16c.15,0,.27-.11.28-.26,0-.1-.05-.2-.15-.25-5.51-3.15-10.72-5.43-15.67-8.02-16.83-8.79-27.55-14.44-32.16-16.94-6.19-3.35-9.28-8.38-9.27-15.11,0-6.53,3.71-11.48,9.93-13.06,1.97-.51,4.56-.65,7.78-.43,6.31.43,14.8.91,25.49,1.43,11.57.56,26.82,1.42,45.74,2.57,5.57.34,13.37,2.69,17.1,7.47,4.34,5.59,5.61,11.4,7.69,18.52.33,1.12.93,2.13,1.75,2.96,1.33,1.34,3.15,2.71,5.48,4.1,5.91,3.55,10.01,5.72,15.42,7.55,15.9,5.36,32.67,8.6,50.32,9.71,8.86.56,16.37-.06,24.94.37.48.03.9-.29,1.02-.76.47-1.95,1.31-4.13,2.53-6.52,6.34-12.45,16-21.68,28.99-27.69,16.43-7.61,36.94-8.93,54.33-6.31.56.08,4.02.65,10.39,1.7,10.1,1.67,20.95,5.81,28.98,10.47.17.11.39.05.49-.12.07-.12.07-.26,0-.38l-3.96-6.85c-.16-.28-.48-.42-.8-.35-6.59,1.56-14.85-.29-14.25-8.84.03-.37-.25-.7-.63-.73-.01,0-.02,0-.03,0-4.83-.13-8.47-.1-10.93.08-3.89.29-6.42.1-7.57-.55-4.15-2.34-4.46-9.56-.57-12.5,1.17-.89,3.29-1.36,6.36-1.41,4.91-.1,9.17-.07,12.78.09.33.02.6-.23.62-.56,0,0,0,0,0,0,.09-1.94.62-3.65,1.59-5.14,2.85-4.35,6.76-6.5,11.71-6.45.26,0,.47-.21.48-.46,0-.16-.07-.3-.21-.39-8.38-5.67-9.76-14.26-8.48-23.79,1.26-9.33,6.55-14.72,15.88-16.16,2.27-.35,6.2-.11,11.8.71,3.84.57,8.86,2.04,15.07,4.42,16.3,6.25,31.3,14.84,44.99,25.77,1.11.89,4.2,3.56,9.26,8.01,11.77,10.37,21.66,22.26,29.86,35.78,3.02,4.96,5.03,10.06,7.33,14.85,3.14,6.53,4.36,14.46,4.89,21.51.77,10.15-3.13,20.53-12.36,25.34-4.21,2.19-11.48,4.03-17.4,4.7-5.9.67-11.66,1.23-17.26,2.74-4.19,1.14-7.32,1.92-9.39,2.34-.34.07-.56.4-.49.74.01.06.03.11.06.17l5,9.61c.31.59.99.86,1.62.65,16.59-5.63,33.01-5.57,49.26.19,33.25,11.77,53.72,43.68,52.04,78.6-.47,9.96-3.69,22.67-9.32,32.19-2.91,4.93-5.08,8.41-6.51,10.44-3,4.27-6.58,7.22-11.34,11.69-3.52,3.31-8,6.33-13.45,9.04-.31.15-.52.32-.65.51-.1.15-.06.35.08.44.06.04.13.06.2.06,16.23-.44,33.46-.38,51.69.18,4.26.14,4.99,6.75,1.55,8.6-.83.44-2.66.66-5.49.66-125.89.01-234.79.01-326.72,0-5.49,0-76.66,0-213.5,0-2.6,0-4.75-2.03-4.9-4.63l-.02-.32c-.14-2.47,1.74-4.59,4.21-4.73.09,0,.17,0,.26,0h47.93c.17,0,.31-.13.32-.3,0-.11-.05-.21-.14-.27-.31-.21-.55-.37-.72-.46-8.84-4.97-15.94-10.71-21.29-17.22-2.63-3.21-5.97-8.34-10-15.41-2.93-5.15-5.08-11-6.44-17.57-1.4-6.76-2.11-12.99-2.14-18.69-.05-10.39,2.11-20.6,6.48-30.62.23-.53,1.88-3.48,4.95-8.85,1.85-3.22,3.76-6,5.75-8.34,4.74-5.58,8.78-9.67,12.13-12.27,16.41-12.75,34.52-18.29,54.32-16.63,9.93.83,18.78,3.13,26.55,6.92,17.83,8.68,29.08,21.07,37.92,39.08,1.43,2.91,2.5,7.34,3.16,9.7.14.48.59.81,1.09.78l6.6-.39c.35-.02.62-.32.6-.68,0-.03,0-.06-.01-.08-1.84-9.48.33-17.56,6.52-24.23,3.48-3.75,7.58-6.01,12.3-6.78.31-.05.52-.34.47-.65,0-.02,0-.05-.02-.07-.11-.34-.36-.66-.76-.95-10.39-7.69-19.8-15.34-28.25-22.95-1.12-1.01-2.39-1.85-3.76-2.49-9.91-4.62-20.03-9.52-30.36-14.71-12.02-6.03-19.16-9.62-21.43-10.75-3.7-1.84-5.42-2.59-9.22-2.67-8.13-.19-13.78.2-20.47.08-4.1-.07-14.69-.04-31.76.09-2.63.02-4.78-2.09-4.8-4.73,0-.06,0-.13,0-.19v-.08c.15-2.8,2.47-4.98,5.27-4.97l35.44.11ZM327.5,127.29l42.48-24.48c.26-.15.35-.49.19-.75-.03-.05-.07-.1-.11-.14l-2.61-2.19c-6.79-4.84-11.62-7.93-14.5-9.26-2.25-1.04-7.72-2.89-16.43-5.54-8.24-2.52-17.36-3.04-25.08-3.64-5.05-.39-11.06-.22-18.02.51-8.79.92-16.88,3.33-24.28,7.23-14.04,7.39-22.75,18.84-26.12,34.33-.79,3.63-1.63,7.65-2.53,12.06-.99,4.85-2.26,8.74-3.81,11.67-5.57,10.53-16.28,13.78-28.25,11.93-12.78-1.98-24.96-5.37-36.55-10.16-.12-.05-.25,0-.3.12-.02.06-.03.12,0,.17.17.51.54.99,1.11,1.42,4.96,3.83,12.29,9.74,22,17.73,3.48,2.86,6.49,5.17,9.02,6.92,11.53,7.96,20.07,17.74,17.39,32.48-1.63,8.98-7.48,15.62-15.86,18.6-4.34,1.54-8.41,1.42-12.81,1.74-3.91.28-3.71,5.77-3.1,8.53,2.36,10.36,13.09,15.04,22.86,14.97,29.85-.2,60.77-.33,92.75-.39,3.65,0,7.38-.01,11.19-.02,5.12-.01,8.76-.47,10.93-1.37,3.55-1.47,6.5-3.71,8.84-6.72,1.33-1.72,2.82-5.1,4.47-10.15,2.77-8.51,4.27-13.12,4.48-13.83,2.48-8.22,6.55-16.08,9.55-22.96,1.07-2.45,2.3-4.67,3.71-6.66,3.72-5.26,6.72-10.95,10.89-15.66,7.32-8.27,14.03-14.54,20.12-18.83,4.79-3.38,12.44-7.51,22.95-12.39,6.55-3.04,12.71-3.92,18.63-5.99,2.87-1,7.16-1.92,12.85-2.76,3.67-.54,8.01-1.25,13.02-2.14,1.43-.25,2.82-.63,4.18-1.13,2.27-.24,8.65-.96,10.12-2.83.15-.19.11-.46-.08-.61-.08-.06-.17-.09-.26-.09-6.27-.07-12.8-1.22-19.59-3.43-5.31-1.73-10.05-5.28-14.22-10.66-5.32-6.86-10.33-17.8-1.82-24.12,3.57-2.65,7.77-2.74,12.54-2.59,8.59.27,15.95.33,22.08.19.33,0,.6-.28.59-.62,0-.1-.03-.19-.07-.27-4.61-8.72-10.11-16.85-16.51-24.4-.81-.96-2-1.51-3.26-1.5-9.01.05-16.75-2.7-23.24-8.25-4.12-3.52-7.4-10.88-5.14-17.02.25-.68.02-1.44-.57-1.86-14.96-10.72-31.87-19.01-50.12-22.72-12.13-2.46-16.27,7.22-13.14,17.28.97,3.11,3.19,5.61,6.66,7.48,1.75.95,5.03,2.86,9.86,5.74,6.22,3.72,11.93,9.41,16.11,13.78,10.4,10.84,13.58,27.35,4.37,40.06-2.54,3.51-5.17,6.31-7.9,8.42-13.37,10.35-25.73,16.86-44.55,27.37-4.21,2.35-7.89,4.89-11.55,6.73-5.61,2.82-10.5,6.32-16.18,9.09-1.56.76-4.05,2.15-7.47,4.16-9.89,5.83-18.01,10.39-24.36,13.69-1.96,1.03-4.39.27-5.41-1.7-.08-.14-.14-.29-.2-.44l-.07-.19c-.91-2.41.06-5.12,2.3-6.41l47.84-27.53ZM441.55,49.15l-9.4-8.59s-.13-.04-.17,0c0,0,0,0,0,0l-.06.07c-.54.59,1.13,2.99,3.73,5.37l.16.15c2.6,2.38,5.15,3.82,5.69,3.23,0,0,0,0,0,0l.06-.07s.04-.13,0-.17c0,0,0,0,0,0ZM354.43,59.05c-.02,2.84-.76,5.38-2.22,7.63-.35.54-.19,1.27.34,1.62.18.12.4.18.62.18,2.81.05,5.55.02,8.22-.08,3.37-.13,5.99-.75,7.86-1.86,3.63-2.15,4.77-5.8,3.44-10.95.75-4.87-1.44-7.01-6.26-6.51-3.28.35-6.21.47-8.79.36-3.22-.14-5.25.84-5.76,3.9-.06.42,0,.86.21,1.24l2.34,4.47ZM391.7,79c.08-.25.08-.65,0-1.22-.95-6.55-3.58-12.31-7.89-17.26-.18-.2-.49-.22-.69-.04-.08.07-.14.17-.16.28-.31,1.92,0,3.84,1.11,5.62,2.41,3.85,4.62,8.08,6.64,12.67.12.27.43.39.7.27.14-.06.25-.18.29-.32ZM156.41,139.4c.09,0,.16-.07.16-.16,0-.05-.02-.09-.05-.12-9.15-8.49-16.27-18.5-21.36-30.05-3.03-6.87-6.12-15.21-9.26-25.02-1.22-3.8-2.48-6.32-3.77-7.56-2.14-2.05-4.88-3.19-8.23-3.4-21.19-1.35-45.5-2.74-72.94-4.19-2.88-.15-4.55-.17-5.01-.04-3.97,1.06-3.47,6.5-.92,8.62.55.45,2.14,1.38,4.78,2.81,15.11,8.15,28.5,15.19,40.19,21.14,15.76,8.03,27.09,13.82,33.98,17.37,5.57,2.87,8.72,4.47,9.46,4.8,3.74,1.63,6.92,3.18,9.55,4.67,6.47,3.64,13.61,6.7,22.48,11.03.18.09.38.13.58.12.15,0,.27-.01.36-.02ZM368.32,76.04c-.14.08-.2.26-.12.41l10.63,20.46c.08.15.26.22.41.14.03-.02.06-.04.09-.06l6.77-6.77c.1-.09.12-.24.06-.36l-9.5-18.26c-.08-.15-.26-.21-.42-.14,0,0,0,0-.01,0l-7.91,4.57ZM476.77,117.31c.41-.02.75-.36.76-.78.33-6.79-.53-13.34-2.56-19.66-.18-.55-.69-.92-1.26-.92h-32.6c-.82,0-1.48.66-1.48,1.48,0,.09,0,.18.02.27.93,5.06,3.19,9.3,6.78,12.73,2.85,2.72,7.2,4.67,13.05,5.85,5.2,1.04,10.96,1.38,17.29,1.03ZM144.95,107.8c-.03.22.07.52.28.91,6.15,11.31,13.04,20.98,24.08,28.84,1.27.91,2.35,1.51,3.23,1.8,5.91,1.94,10.7,4.38,16.67,5.84,11.99,2.93,17.77,4.36,27.85,4.75.47.02.94-.03,1.4-.14,12.56-3.03,11.82-15.39,14.51-25.53.11-.41-.13-.82-.54-.93-.07-.02-.14-.03-.21-.02-25,.66-50.58-1.9-73.62-10.31-5.09-1.85-9.38-3.72-12.87-5.61-.26-.14-.58-.05-.72.21-.03.06-.05.12-.06.19ZM414.44,163.77c5.19,10.35,10.68,20.56,16.46,30.63,1.85,3.22,3.1,5.55,3.76,7,2.8,6.18,6.48,11.56,9.39,17.13,1.86,3.55,5.09,9.36,9.69,17.45.12.21.26.39.43.56,4.41,4.44,10.85,3.42,13.01-2.68.8-2.25.06-4.45-1.17-6.13-4.61-6.29-8.15-12.89-12.37-20.13-9.77-16.81-15.14-26.11-16.11-27.9-5.88-10.93-9.73-17.94-11.56-21.04l-4.85-8.58c-.24-.42-.74-.6-1.19-.42l-9.88,3.95c-.48.19-.71.73-.52,1.21.01.03.03.07.05.1l4.86,8.85ZM423.81,300.67c.15.02.28-.09.3-.24.01-.11-.05-.22-.15-.27-19.92-11.31-32.92-28.21-39.01-50.72-2.53-9.36-2.25-16.68-1.31-26.36.53-5.46,1.11-9.23,1.74-11.32,4.47-14.73,12.15-27.29,23.02-37.68.33-.31.4-.81.19-1.21l-7.21-13.37c-.25-.47-.84-.65-1.31-.4-.03.01-.05.03-.08.05-.59.36-3.78,2.71-9.55,7.05-3.12,2.35-5.82,4.74-8.09,7.17-4.34,4.63-6.78,7.31-7.32,8.03-11.63,15.59-18.97,32.34-24.22,50.86-1.64,5.8-3.15,9.88-4.52,12.25-6.24,10.76-16.89,16.81-29.36,16.78-11.25-.03-46.74-.06-106.49-.08-9.35,0-17.09-3.3-23.2-9.9-.4-.43-.97-.67-1.56-.67h-21.52c-.2,0-.37.13-.42.32-5.26,21.03-19.22,39.1-38.56,49.06-.18.08-.24.3-.15.47.06.12.19.2.33.2,5.23-.17,9.01-.25,11.32-.25,107.82.09,197.11.1,267.86.03,6.29-.01,12.82-.32,19.27.2ZM25.16,252.27c3.41,12.67,10.8,22.54,19.74,30.6,2.21,1.99,5.71,4.48,10.5,7.49,13.9,8.73,31.35,11.03,47.44,7.57,5.39-1.15,8.47-1.89,9.26-2.2,9.9-3.87,18.6-9.66,26.11-17.36,2.81-2.9,4.4-5.98,6.94-9.13,4.25-5.26,6.22-10.98,8.28-17.92.07-.24-.06-.49-.3-.56-.04-.01-.09-.02-.13-.02h-19.14c-.68,0-1.29.43-1.53,1.08-2.59,7.28-7.47,12.11-13.98,17.87-4.5,3.98-10.06,5.89-15.61,7.73-3.25,1.07-6.24,1.69-8.98,1.86-13.95.87-26-3.06-36.13-11.81-7.25-6.26-12.36-15.89-14.75-24.13-3.35-11.57-1.28-23.54,4.19-34.49,4.85-9.73,16.43-19.85,27.13-22.99,5.28-1.55,8.42-2.37,9.42-2.46,3.53-.31,8-.16,13.41.43,11.45,1.25,23.29,9.22,30.27,17.79,1.96,2.4,2.77,4.07,4.42,7.24.37.7,1.09,1.14,1.87,1.14h18.75c.42,0,.76-.34.76-.76,0-.09-.01-.17-.04-.25-1.47-4.23-3.1-8.14-4.9-11.73-3.32-6.61-8.43-11.99-13.72-16.98-6.14-5.79-13.15-10.01-21.02-12.64-6.95-2.89-14.11-4.38-21.48-4.49-4.39-.06-8.46.2-12.21.79-12.23,1.91-23.37,6.93-33.42,15.05-3.3,2.67-6.25,5.66-8.84,8.97-3.62,4.63-6.02,8.09-7.2,10.38-3.77,7.34-6.5,15.63-8.18,24.88-1.73,9.51-.7,19.2,3.07,29.05ZM406.89,190.45c-5.33,6.89-9.15,14.44-11.46,22.65-1.5,5.32-2.66,10.46-2.58,15.93.12,8.44.77,18.21,4.46,25.99,2.22,6.73,4.8,12.03,7.74,15.88,1.36,1.78,5.54,6.3,12.53,13.56.58.6,1.24,1.13,1.95,1.57,7.28,4.47,12.76,7.44,16.43,8.92,6.35,2.57,13.52,4.05,21.49,4.44,10.99.54,21.81-1.51,32.45-6.16,5.86-2.56,10.33-6.91,15.93-10.71,4.3-2.92,7.14-7.97,9.91-11.27,3.6-4.29,5.84-8.34,7.3-12.59,2.3-6.74,3.77-11.11,4.4-13.1,1.99-6.22,1.51-9.95,1.4-18.65-.05-3.83-.54-7.23-1.45-10.21-3.07-10-5.39-17.58-11.35-25.03-4.33-5.41-6.72-8.32-7.17-8.73-7.61-7.06-16.54-12.97-27.06-16.42-7.93-2.61-16.44-3.67-25.53-3.19-4.79.25-10.95,1.64-14.67,2.43-.23.04-.38.27-.33.49,0,.04.02.08.04.12l8.74,16.81c.31.59.99.88,1.63.68,2.83-.87,5.58-1.21,8.23-1.04,10.21.65,20.8,3,28.66,9.26,6.4,5.09,11.47,9.75,14.69,17.02,2.13,4.81,3.47,8.09,4.02,9.82,3.32,10.66,1.46,22.2-2.78,32.57-1.9,4.65-4.71,8.92-8.44,12.82-9.95,10.41-22.41,15.46-37.38,15.15-6.46-.14-10.6-1.75-17.43-4.02-5.6-1.87-10.64-6.38-15.13-10.4-5.23-4.68-7.94-10.41-10.88-17.02-1.43-3.21-2.31-6.46-2.65-9.73-1.41-13.69,1.79-25.53,9.62-35.53.91-1.17.99-2.55.23-4.13-2.54-5.29-5.16-10.44-7.86-15.46-.23-.44-.78-.61-1.22-.37-.1.06-.2.13-.27.22l-6.21,7.43ZM180.33,205.12c.6,3.77,2.49,7.2,5.34,9.67,5.4,4.7,13.25,5.19,19.26,1.22,1.43-.94,2.71-2.11,3.78-3.45,1.96-2.47,3.19-5.45,3.52-8.58.82-7.76-3.89-14.97-11.23-17.21-4.81-1.47-10.05-.57-14.15,2.44-4.97,3.65-7.49,9.81-6.52,15.91ZM120.28,209.68c.2,0,.37-.14.38-.34,0-.08-.02-.16-.07-.23-6.17-8.85-14.4-14.12-24.68-15.82-10.78-1.79-22.9,1.6-30.99,8.53-10.76,9.21-15.15,21.11-13.18,35.69.71,5.28,2.21,9.73,4.5,13.35,3.66,5.81,8.88,11.44,15.49,14.47,8.83,4.04,14.13,5.05,23.3,4.02,10.99-1.24,20.95-8.4,26.79-17.4.23-.36.13-.85-.23-1.08-.11-.07-.24-.11-.38-.12-9.31-.48-19-.26-29.09.65-7.67.69-15.6-1.37-19.84-8.05-3.03-4.78-4.16-10.06-3.37-15.83,1.17-8.68,7.58-16.44,16.53-17.18,5.25-.44,9.82-.56,13.71-.35,7.75.41,13.95-.5,21.13-.31ZM456.62,193.81c2.62,5.19,6.38,11.71,11.29,19.58,1.53,2.45,2.75,4.23,3.64,5.34,5.18,6.43,7.89,14.01,3.05,21.7-3.92,6.24-9.78,8.89-17.58,7.96-7.03-.84-10.79-5.61-14.22-12.17-5.15-9.85-9.61-18.33-13.39-25.44-.23-.42-.76-.58-1.18-.35-.14.08-.26.19-.34.33-8.99,15.85-7.76,33.59,4.77,47.22,8.61,9.37,22.07,13.28,34.69,11.21,12.01-1.96,21.49-8.89,27.22-19.75,2.29-4.33,4.11-8.6,4.32-13.38.38-8.51-.21-17.14-4.93-24.17-2.58-3.83-4.47-6.35-5.67-7.56-7.78-7.79-20-12.74-31.31-11.21-.26.04-.44.28-.41.54,0,.05.02.1.05.15ZM78.46,232.41c1.45,8.03,7.3,9.2,14.84,8.85,4.13-.19,8.22-.16,12.26.07,5.94.34,10.46-.63,16.05-.2,4.49.34,8.36.38,11.61.12,4.23-.34,8.05-.43,11.45-.27,9.29.42,14.57-.28,23.01.15,3.41.17,7.4-.03,11.97-.58.36-.05.61-.37.56-.73,0,0,0,0,0,0l-1.21-8.04c.22-2.83,1.15-5.31,2.78-7.45.3-.4.22-.96-.18-1.27,0,0,0,0,0,0l-4.24-3.14c-.25-.19-.57-.3-.89-.3-17.37-.16-37.39-.13-60.06.08-8.19.07-15.85-.18-24.95-.31-5.58-.08-9.28,1.38-11.68,6.27-1.01,2.07-1.45,4.32-1.32,6.75Z"/>
      <path class="cls-2" d="M441.55,49.15s.05.12.01.17h0s-.06.07-.06.07c-.54.59-3.08-.85-5.68-3.23,0,0,0,0,0,0l-.16-.15c-2.6-2.38-4.27-4.78-3.73-5.37l.06-.07s.12-.05.17-.01c0,0,0,0,0,0l9.4,8.59Z"/>
      <path class="cls-2" d="M354.43,59.05l.49.93c.11.22.38.31.6.2.01,0,.02-.01.04-.02,3.79-2.36,6.7-4.12,10.97-3.55,1.88.25,3.71.5,5.49.77.28.04.54-.14.58-.41,0-.02,0-.04,0-.06l.08-1.32c1.33,5.15.19,8.8-3.44,10.95-1.87,1.11-4.49,1.73-7.86,1.86-2.67.1-5.41.13-8.22.08-.64,0-1.15-.53-1.15-1.18,0-.22.07-.44.19-.62,1.46-2.25,2.2-4.79,2.22-7.63Z"/>
      <path class="cls-2" d="M368.32,76.04l7.91-4.57c.15-.08.34-.03.42.12,0,0,0,0,0,.01l9.5,18.26c.06.12.04.27-.06.36l-6.77,6.77c-.12.12-.32.12-.44,0-.03-.02-.05-.05-.06-.09l-10.63-20.46c-.08-.15-.02-.33.12-.41Z"/>
      <path class="cls-2" d="M476.77,117.31c-6.33.35-12.09.01-17.29-1.03-5.85-1.18-10.2-3.13-13.05-5.85-3.59-3.43-5.85-7.67-6.78-12.73-.15-.8.38-1.58,1.19-1.73.09-.02.18-.03.27-.02h32.6c.57,0,1.08.37,1.26.92,2.03,6.32,2.89,12.87,2.56,19.66-.01.42-.34.76-.76.78Z"/>
      <path class="cls-2" d="M144.95,107.8c.04-.29.3-.5.59-.46.07,0,.13.03.19.06,3.49,1.89,7.78,3.76,12.87,5.61,23.04,8.41,48.62,10.97,73.62,10.31.41-.01.76.31.77.73,0,.07,0,.15-.02.22-2.69,10.14-1.95,22.5-14.51,25.53-.46.11-.93.16-1.4.14-10.08-.39-15.86-1.82-27.85-4.75-5.97-1.46-10.76-3.9-16.67-5.84-.88-.29-1.96-.89-3.23-1.8-11.04-7.86-17.93-17.53-24.08-28.84-.21-.39-.31-.69-.28-.91Z"/>
      <rect class="cls-1" x="11.58" y="113.24" width="18.34" height="9.66" rx="4.57" ry="4.57" transform="translate(-.82 .15) rotate(-.4)"/>
      <path class="cls-2" d="M460.74,130.54c-1.36.5-2.75.88-4.18,1.13-5.01.89-9.35,1.6-13.02,2.14-5.69.84-9.98,1.76-12.85,2.76-5.92,2.07-12.08,2.95-18.63,5.99-10.51,4.88-18.16,9.01-22.95,12.39-6.09,4.29-12.8,10.56-20.12,18.83-4.17,4.71-7.17,10.4-10.89,15.66-1.41,1.99-2.64,4.21-3.71,6.66-3,6.88-7.07,14.74-9.55,22.96-.21.71-1.71,5.32-4.48,13.83-1.65,5.05-3.14,8.43-4.47,10.15-2.34,3.01-5.29,5.25-8.84,6.72-2.17.9-5.81,1.36-10.93,1.37-3.81,0-7.54.01-11.19.02-31.98.06-62.9.19-92.75.39-9.77.07-20.5-4.61-22.86-14.97,4.33-.76,8.5-.34,12.53,1.25,1.7.67,2.98.77,4.67,1.02,12.81,1.89,28.44,2.7,46.87,2.44,6.04-.09,11.28.49,16.56-.07,4.86-.52,7.68-.74,8.47-.66,7.24.75,11.87.9,13.9.47,4.67-.99,9.42-1.59,14.25-1.81,3.89-.18,8.16-2.41,12.76-4.5,4.96-2.25,8.59-5.8,11.13-10.65,2.43-4.66,4.14-8.05,5.12-10.16.03-.07.05-.13.07-.19l1.84-6.91c.19-.72.47-1.42.83-2.08,1.15-2.1,2.46-4.34,3.92-6.73,1.42-2.3,2.13-4.8,3.32-7.11,3.79-7.33,8.96-15.24,15.5-23.72,2.64-3.42,6.23-5.96,9.2-9.14,9.13-9.74,21.27-16.75,33.59-22.26,3.05-1.37,6.32-2.54,9.81-3.53,8.43-2.37,11.82-3.56,19.4-5.43,3.23-.79,6.33-1.7,9.28-2.73,1.94-.68,4.42-.43,7.43.75.35.14.64.39.83.71l3.19,5.41c.16.29.49.44.82.4l6.13-.8Z"/>
      <path class="cls-2" d="M425.97,158.66l-11.53,5.11-4.86-8.85c-.25-.45-.08-1.02.37-1.26.03-.02.07-.03.1-.05l9.88-3.95c.45-.18.95,0,1.19.42l4.85,8.58Z"/>
      <path class="cls-1" d="M327.88,201.64c-5.29,3.48-7.99.16-10.77-4.81-2.05-3.67-4.92-8.27-8.61-13.82-3.75-5.64-6.11-13.54,2.26-16.37,4.61-1.55,10.59-3.42,17.94-5.6,2.91-.86,5.07-1.03,6.48-.51,4.59,1.71,5.27,6.43,3.86,10.87-3.16,9.95-7.32,19.96-9.45,27.87-.26.97-.87,1.82-1.71,2.37ZM328.91,171.39c.09-.27-.06-.57-.33-.66-.1-.03-.21-.03-.31,0l-12.01,3.65c-.69.21-1.08.95-.86,1.64.03.09.07.18.11.26l6.59,11.4c.19.34.63.46.97.27.15-.09.27-.22.32-.39l5.52-16.17Z"/>
      <path class="cls-2" d="M397.31,255.02c2.49-4.14,2.73-10.5,2.14-14.76-.76-5.5-1.13-10.67-1.12-15.52,0-3.26.36-5.61,1.07-7.05,2.01-4.07,3.46-7.87,4.36-11.38,1.16-4.54,2.93-7.33,5.71-10.2.24-.25.32-.6.23-.92-.54-1.83-1.48-3.41-2.81-4.74l6.21-7.43c.32-.38.88-.44,1.27-.12.09.08.17.17.22.27,2.7,5.02,5.32,10.17,7.86,15.46.76,1.58.68,2.96-.23,4.13-7.83,10-11.03,21.84-9.62,35.53.34,3.27,1.22,6.52,2.65,9.73,2.94,6.61,5.65,12.34,10.88,17.02,4.49,4.02,9.53,8.53,15.13,10.4,6.83,2.27,10.97,3.88,17.43,4.02,14.97.31,27.43-4.74,37.38-15.15,3.73-3.9,6.54-8.17,8.44-12.82,4.24-10.37,6.1-21.91,2.78-32.57-.55-1.73-1.89-5.01-4.02-9.82-3.22-7.27-8.29-11.93-14.69-17.02-7.86-6.26-18.45-8.61-28.66-9.26-2.65-.17-5.4.17-8.23,1.04-.64.2-1.32-.09-1.63-.68l-8.74-16.81c-.11-.2-.03-.46.17-.57.04-.02.08-.03.12-.04,3.72-.79,9.88-2.18,14.67-2.43,9.09-.48,17.6.58,25.53,3.19,10.52,3.45,19.45,9.36,27.06,16.42.45.41,2.84,3.32,7.17,8.73,5.96,7.45,8.28,15.03,11.35,25.03.91,2.98,1.4,6.38,1.45,10.21.11,8.7.59,12.43-1.4,18.65-.63,1.99-2.1,6.36-4.4,13.1-1.46,4.25-3.7,8.3-7.3,12.59-2.77,3.3-5.61,8.35-9.91,11.27-5.6,3.8-10.07,8.15-15.93,10.71-10.64,4.65-21.46,6.7-32.45,6.16-7.97-.39-15.14-1.87-21.49-4.44-3.67-1.48-9.15-4.45-16.43-8.92-.71-.44-1.37-.97-1.95-1.57-6.99-7.26-11.17-11.78-12.53-13.56-2.94-3.85-5.52-9.15-7.74-15.88Z"/>
      <path class="cls-2" d="M25.16,252.27c.99.14,1.8.04,2.44-.3.3-.15.48-.46.49-.79.33-12.84.57-22.7.72-29.59.1-4.3.88-8.9,3.32-12.43.51-.74,1.11-1.68,1.79-2.81.63-1.06,1.16-2.17,1.59-3.31,1.3-3.47,2.43-6.07,3.39-7.79,1.72-3.06,4.04-4.76,7.57-7.67,3.07-2.53,5.69-6.07,9.15-8.11.75-.44,2.98-1.44,6.7-2.99,3.73-1.56,6.65-3.82,10.39-4.85,8.61-2.37,16.82-3.31,24.65-2.82,5.54.35,10.75-.26,16.32.34.2.02.39-.12.41-.33,0-.09-.01-.17-.06-.24l-.61-.94c7.87,2.63,14.88,6.85,21.02,12.64,5.29,4.99,10.4,10.37,13.72,16.98,1.8,3.59,3.43,7.5,4.9,11.73.14.4-.07.83-.47.97-.08.03-.17.04-.25.04h-18.75c-.78,0-1.5-.44-1.87-1.14-1.65-3.17-2.46-4.84-4.42-7.24-6.98-8.57-18.82-16.54-30.27-17.79-5.41-.59-9.88-.74-13.41-.43-1,.09-4.14.91-9.42,2.46-10.7,3.14-22.28,13.26-27.13,22.99-5.47,10.95-7.54,22.92-4.19,34.49,2.39,8.24,7.5,17.87,14.75,24.13,10.13,8.75,22.18,12.68,36.13,11.81,2.74-.17,5.73-.79,8.98-1.86,5.55-1.84,11.11-3.75,15.61-7.73,6.51-5.76,11.39-10.59,13.98-17.87.24-.65.85-1.08,1.53-1.08h19.14c.25,0,.45.2.45.45,0,.04,0,.09-.02.13-2.06,6.94-4.03,12.66-8.28,17.92-2.54,3.15-4.13,6.23-6.94,9.13-7.51,7.7-16.21,13.49-26.11,17.36-.79.31-3.87,1.05-9.26,2.2-16.09,3.46-33.54,1.16-47.44-7.57-4.79-3.01-8.29-5.5-10.5-7.49-8.94-8.06-16.33-17.93-19.74-30.6Z"/>
      <path class="cls-2" d="M328.91,171.39l-5.52,16.17c-.13.37-.53.57-.9.44-.16-.06-.3-.17-.39-.32l-6.59-11.4c-.36-.63-.14-1.43.49-1.79.08-.05.17-.09.26-.11l12.01-3.65c.28-.08.56.08.64.35.03.1.03.21,0,.31Z"/>
      <path class="cls-1" d="M299.67,207.71c0,13.8-11.18,24.98-24.98,24.98s-24.98-11.18-24.98-24.98,11.18-24.98,24.98-24.98,24.98,11.18,24.98,24.98ZM260.31,201.73c-3.3,7.81.49,16.88,8.46,20.25h0c7.97,3.37,17.11-.24,20.41-8.05,3.3-7.81-.49-16.88-8.46-20.25h0c-7.97-3.37-17.11.24-20.41,8.05Z"/>
      <path class="cls-2" d="M180.33,205.12c1.5-.89,2.78-1.44,3.85-1.65,1.16-.24,2.09-1.23,2.36-2.52.71-3.33,2.29-5.91,4.74-7.74,2.41-1.81,4.94-2.58,7.58-2.31.31.03.62-.03.89-.17,1.29-.67,1.71-1.99,1.25-3.96,7.34,2.24,12.05,9.45,11.23,17.21-.33,3.13-1.56,6.11-3.52,8.58-1.07,1.34-2.35,2.51-3.78,3.45-6.01,3.97-13.86,3.48-19.26-1.22-2.85-2.47-4.74-5.9-5.34-9.67Z"/>
      <ellipse class="cls-2" cx="274.75" cy="207.82" rx="15.36" ry="15.67" transform="translate(-23.61 380.05) rotate(-67.1)"/>
      <path class="cls-2" d="M179,231.78l1.21,8.04c.05.36-.2.68-.56.73h0c-4.57.55-8.56.75-11.97.58-8.44-.43-13.72.27-23.01-.15-3.4-.16-7.22-.07-11.45.27-3.25.26-7.12.22-11.61-.12-5.59-.43-10.11.54-16.05.2-4.04-.23-8.13-.26-12.26-.07-7.54.35-13.39-.82-14.84-8.85l4.09-1.41c.49-.17.91-.48,1.22-.89,2.07-2.73,5.29-5.45,8.82-3.68.23.12.41.3.53.53l1.86,3.56c.14.28.38.51.67.63,1.94.82,3.73,1.22,5.37,1.21,7.25-.04,15.85-.17,25.81-.4,8.63-.2,14.87-.25,18.7-.14,7.91.23,14.16.18,18.73-.13,5.02-.34,9.68,1.82,14.74.09Z"/>
      <path class="cls-2" d="M367.45,99.73l2.61,2.19c.23.2.26.55.06.78-.04.05-.09.08-.14.11l-42.48,24.48c.25-5.77,4.89-8.26,6.41-12.2,2.41-6.27-.65-11.05-5.57-14.73-3.36-2.52-6.66-5.18-9.9-7.99-.22-.2-.24-.54-.05-.76.09-.1.21-.16.34-.18,7.08-.89,13.97-.28,20.68,1.84,9.23,2.91,17.21,5.24,23.93,6.99,1.31.34,2.68.16,4.11-.53Z"/>
    </g>
  </g>
</svg>
