<?xml version="1.0" encoding="UTF-8"?>
<svg id="Capa_2" data-name="Capa 2" xmlns="http://www.w3.org/2000/svg" viewBox="0 0 621.95 208.79">
  <defs>
    <style>
      .cls-1 {
        fill: #2965e1;
      }

      .cls-2 {
        fill: #97c1fb;
      }
    </style>
  </defs>
  <g id="Capa_1-2" data-name="Capa 1">
    <g>
      <path class="cls-2" d="M228.93,171.45h166.66l-1.61,10.36c-55.63-.78-111.26-1.56-166.89-2.34.61-2.67,1.23-5.35,1.84-8.02Z"/>
      <path class="cls-1" d="M25.39,150.75c-.12,5.01.28,10-6.22,10.86-1.97.26-4.06.34-6.28.23-.39-.02-.73.27-.75.66-.01.17.04.35.15.49l4.26,5.41c.18.23.45.37.75.37h115.2c.97,0,1.81-.65,2.06-1.59,1.76-6.62,5.35-12.82,10.78-18.59,9.24-6.62,19.45-9.94,30.62-9.97,10.63-.03,20.5,2.75,29.6,8.33,7.5,5.37,11.99,12.26,13.48,20.67.09.54.57.94,1.12.94h53.07c.34,0,.62-.28.62-.62h0v-5.63c-.07-33.67-.06-67.21.02-100.62.01-4.38.48-7.6,4.07-9.96,2.42-1.59,5.1-2.39,8.03-2.39,20.93-.01,39.92-.04,56.98-.07,2.42,0,4.78.77,7.07,2.32,4.58,3.11,4.16,7.01,4.15,12.97-.05,32.19-.04,64.15.04,95.86l-.14,7.63c-.01.31.23.58.55.59.01,0,.02,0,.03,0,37.01-.22,74.69-.11,113.06.33,4.5.05,17.22-.09,38.15-.42.56-.01,1.03-.41,1.12-.96l.86-5.06c.08-.47-.24-.92-.72-1.01-.04,0-.08-.01-.12-.01-2.81-.11-6.52-.31-11.15-.61-3.93-.25-5.7-2.34-5.29-6.27l.54-7.69c.08-1.06.56-2.05,1.36-2.76,4.29-3.79,9.64-2.95,15.45-3.31.33-.02.58-.29.57-.62l-.46-13.64c-.01-.34-.3-.62-.64-.61-20.07.41-36.55.56-49.44.45-31.29-.26-56.68-.19-92.83-.11-1.19,0-2.15-.96-2.16-2.14,0-.06,0-.12,0-.18v-.12c.08-1.27,1.14-2.26,2.42-2.26h141.79c.36.01.66-.28.66-.65,0-.01,0-.03,0-.04l-.57-9.08c-.04-.58-.16-1.16-.37-1.7-.06-.17-1.73-5.49-5-15.94-2.28-7.3-6.31-16.83-12.08-28.6-1.81-3.69-3.87-6.71-6.17-9.04-6.99-7.1-14.69-12.07-23.11-14.92-6.23-2.1-13.49-2.74-18.04-3.56-1.39-.25-2.38-.94-2.97-2.06-.37-.71-.15-1.56.49-1.9.02,0,.04-.02.06-.03,3.06-1.43,11.13.84,15.99,1.79,14,2.73,25.52,9.51,34.57,20.36.22.27.57.39.91.32l6.29-1.32h.08l18.49-.07c.28,0,.5-.22.51-.49,0-.15-.06-.29-.18-.39-13.25-11.45-28.35-20.08-45.3-25.89-8.98-3.08-15.3-5-18.96-5.75-16.15-3.33-31.73-4.93-46.76-4.8-4.59.04-33.56.05-86.9.03-50.55-.02-77-.03-79.35-.03-2.42,0-10.09,0-23,.04-24.98.05-76.02.1-153.12.15-6.85,0-11.93.27-15.22.79-19.54,3.1-36.94,14.59-39.58,36.14-.23,1.85-1.76,3.26-3.62,3.33h-.21c-1.58.07-2.91-1.16-2.98-2.75,0-.11,0-.23,0-.34,1.12-14.65,10.46-29.05,23.74-35.56,8.03-3.93,16.61-6.43,25.75-7.49,8.36-.96,16.97-.82,25.72-.82,48.99.03,86.02-.21,129.65.17.32,0,.61-.21.71-.52,1.39-4.37,4.05-7.55,7.97-9.54,2.25-1.14,6.44-1.62,12.59-1.45,1.94.05,11.8.05,29.57-.02,6.52-.03,14.32,3.99,15.49,10.97.05.28.29.49.57.48,11.73-.15,22.39-.21,31.96-.17,37.69.15,66.34.16,85.97.03,13.71-.1,24.89.26,33.53,1.07,11.05,1.03,22.09,2.84,33.12,5.43,13.11,3.07,25.31,7.61,36.62,13.61,18.48,9.81,36.48,25.03,46.96,43.33,4.82,8.41,8.98,16.44,11.38,25.35,2.98,11.03,4.42,22.3,4.32,33.83-.01,1.93-.09,12.22-.23,30.86,0,.28.22.51.5.52,0,0,0,0,.01,0h42.03c.38,0,.69-.31.69-.69h0l.11-15.05c0-.11.02-.22.06-.33,1.22-3.46,3.33-5.44,6.33-5.95,3.51-.59,6.67-.59,9.48.02.79.17,1.59.84,2.39,2.03,1.1,1.62.42,3.12-.78,4.39-1.28,1.35-4.23.9-6.7.79-.62-.03-1.15.46-1.18,1.09,0,.02,0,.03,0,.05v12.67c0,.41.33.74.74.74,0,0,.01,0,.02,0,3.97-.1,9.04-.84,10.19,3.28.91,3.3-2.27,5.47-5.31,5.46-8.62-.03-12.99-.05-13.11-.06-.21-.04-.42.11-.45.32,0,.02,0,.04,0,.07l-.11,28.82c0,.31.25.56.55.56h17.01c1.3,0,2.35,1.05,2.35,2.36,0,.05,0,.1,0,.14l-.02.28c-.04,1.38-1.16,2.47-2.54,2.47H3.05c-1.36.01-2.56-.89-2.95-2.2l-.02-.08c-.3-1,.26-2.05,1.26-2.36.09-.03.18-.05.27-.06,1.87-.27,4.74-.4,8.6-.4,17.88,0,38.33-.33,58-.24,24.97.12,51.47.17,79.5.16,3.15,0,4.85,0,5.12-.02.17,0,.31-.12.31-.29,0-.13-.07-.25-.19-.29-4.75-2.19-9.16-6.11-13.23-11.76-.29-.39-.75-.62-1.24-.6-5.67.27-11.54.41-17.59.42-32.71.05-54.76,0-66.17-.13-4.69-.05-9.67-.58-14.95-1.59-11.96-2.29-25.02-10.42-31.74-20.68-5.98-9.15-7.1-16.84-7.12-28.77-.05-22.07-.02-40.51.09-55.32.01-1.57,1.29-2.84,2.86-2.84h1.32c1.53,0,2.77,1.24,2.77,2.77h0v54.71c0,.24.2.44.44.44,8.35.06,16.97-.03,17,11.1ZM214.68,11.49c5.41.24,10.58.24,15.51,0,5.48-.27,8.5-.39,9.07-.36,3.04.12,6.07,0,9.09-.34,1.53-.17,3.93-.1,7.2.21,2.47.23,4.99.27,7.54.1.44.19.89.27,1.36.23.45-.04.78-.44.74-.89-.01-.15-.07-.29-.15-.41-2.09-2.91-4.18-3.72-7.85-3.64-2.87.07-12.55,0-29.04-.21-4.35-.05-6.97.03-7.86.24-2.69.63-4.56,2.32-5.61,5.07ZM313.87,55.28c-9.29,0-18.68-.03-28.16-.1-1.95-.02-3.35.71-4.19,2.18-.53.93-.8,2.54-.79,4.83.11,43.78.13,78.01.06,102.7,0,.63.48,1.16,1.1,1.22,1.55.16,3.08.24,4.57.23,5.17,0,14.33-.01,27.49-.02,13.16-.01,22.32-.02,27.49-.02,1.49,0,3.02-.07,4.57-.24.62-.06,1.1-.59,1.1-1.22-.11-24.69-.14-58.92-.1-102.7,0-2.29-.26-3.9-.79-4.83-.85-1.47-2.25-2.2-4.2-2.18-9.47.09-18.86.14-28.15.15ZM508.63,61.77c-3.24-.13-9.2-.72-11.56.93-.56.39-.73,1.13-.4,1.73,6.55,11.81,10.94,24.58,14.85,37.92,1.22,4.17,4.3,6.23,9.24,6.18,2.89.87,5.71,1.32,8.47,1.33,6.14.03,11.89.28,17.25.74.86.07,1.61-.57,1.68-1.42.02-.24-.02-.48-.1-.71-1.55-3.86-2.65-6.94-3.3-9.23-2.05-7.27-4.72-12.73-7.42-18.12-1.29-2.59-2.93-5.12-4.92-7.59-3.3-4.1-5.84-7.99-9.6-12.49-.2-.25-.51-.39-.83-.4-4.9-.09-9.35.29-13.36,1.13ZM549.36,120.84v-5.2c0-.56-.45-1.01-1.01-1.01-.01,0-.03,0-.04,0-12.07.41-23.77-.08-35.11-1.45-.25-.03-.48.15-.51.41,0,.02,0,.05,0,.07l.25,7.45c.01.34.29.61.63.61h34.91c.49,0,.88-.39.88-.88h0ZM519.88,168.51l28.2.19c.53,0,.96-.4.99-.93l.75-14.81-.19-26.35c0-.19-.15-.34-.34-.34h-34.99c-.33,0-.6.26-.61.59l-.37,13.7c0,.33.23.61.55.67l7.93,1.35c1.33.22,2.37,1.27,2.59,2.61.01.06.09,2.88.24,8.46.14,5-6.43,7.95-10.3,8.14-.43.02-.78.37-.79.8l-.14,5.27c-.01.36.27.66.63.67.01,0,.02,0,.03,0l5.82-.02ZM19.13,155.75c.25-2.74.49-10.06-3.74-10.33-1.09-.07-3.22-.21-6.39-.41-.59-.04-1.11.4-1.16,1,0,.07,0,.15,0,.22l1.23,9.55c.06.44.44.78.89.78h8.27c.46,0,.84-.35.89-.81ZM212.13,173.82c-.03-15.82-15.75-28.61-35.12-28.58h0c-19.37.03-35.05,12.88-35.02,28.7h0c.03,15.82,15.75,28.61,35.12,28.58h0c19.37-.03,35.05-12.88,35.02-28.7h0ZM497.49,148.16l-.08,5.92c-.01.86.68,1.57,1.54,1.58h0l15.37.22c2.28.03,4.13-.79,4.15-1.83l.08-5.26c.02-1.04-1.82-1.92-4.1-1.95,0,0,0,0-.01,0l-15.37-.21c-.86-.01-1.56.67-1.58,1.53ZM201.62,203.43h390.68c.35,0,.64-.29.64-.64v-28.52c0-.34-.27-.61-.61-.61h-37.4c-.3,0-.58.15-.76.4-4.52,6.51-10.3,10.85-17.35,13.03-8.34,2.57-17.39,3.85-27.14,3.82-15.37-.05-29.39.02-42.05.22-8.89.14-16.84.14-23.85-.01-19.38-.42-38.83.04-57.3-.01-31.82-.08-64.58-.06-98.27.05-8.98.04-20.78-.29-31.66-.14-11.91.17-25.52.12-40.83-.13-.62,0-1.2.28-1.57.78-3.31,4.43-7.55,8.14-12.7,11.13-.16.1-.21.31-.11.47.06.1.17.16.28.16ZM135.57,183.01c-.77-1.78-1.21-4.2-1.3-7.27-.02-.85-.72-1.52-1.57-1.52h-1.28c-.91,0-1.64.73-1.64,1.63,0,.05,0,.1,0,.15.28,3.05,1.48,5.83,3.6,8.36.47.54,1.3.59,1.83.12.42-.37.56-.96.35-1.47ZM127.99,183.58l-3.53-4.48c-.08-.11-.13-.25-.13-.39v-3.31c0-.46-.38-.84-.84-.84H24.19c-.2,0-.36.16-.36.36,0,.05,0,.09.03.13.17.4.38.68.64.85,7.17,4.57,15.37,7.37,24.58,8.4,2.34.26,6.42.32,12.25.17,10.09-.25,20.63.26,28.63.08,10.93-.25,23.5-.34,37.69-.27.24,0,.43-.19.44-.42,0-.1-.03-.2-.1-.28ZM221.02,184c.95-.21,1.75-.86,2.17-1.74l2.89-6.07c.25-.53.02-1.16-.51-1.41-.12-.06-.24-.09-.37-.1l-4.28-.29c-.58-.04-1.09.4-1.12.98,0,.06,0,.13,0,.19.32,3-.07,5.51-1.17,7.53-.23.42-.07.94.35,1.17.18.1.39.13.59.08l1.45-.34ZM231.8,175.38c.14,2.25-.36,4.23-1.5,5.93-.72,1.06-1.83,1.33-2.55,2.23-.15.2-.12.49.08.64.08.06.18.09.28.1,54.3.11,104.41.15,150.32.11,36.53-.03,55.3-.04,56.29-.05,15.59-.09,27.92-.07,36.99.08,15.39.25,27.72.28,37,.08,7.91-.17,13.33-.55,16.24-1.14,6.89-1.41,13.16-3.89,18.79-7.45.36-.23.47-.72.24-1.08-.14-.22-.38-.35-.64-.35-4.11-.07-7.66.54-11.87.31-8.97-.5-16.8.25-26.65-.27-3.32-.18-7.06-.25-11.22-.22-38.48.29-76.96.35-115.43.19-48.32.11-96.64.08-144.96-.11-.81,0-1.28.33-1.41,1Z"/>
      <path class="cls-2" d="M263.09,11.1c-2.55.17-5.07.13-7.54-.1-3.27-.31-5.67-.38-7.2-.21-3.02.35-6.05.46-9.09.34-.57-.03-3.59.09-9.07.36-4.93.24-10.1.24-15.51,0,2.19-.1,3.34-1.21,5.06-1.49,1.07-.17,1.9-.25,2.47-.26,4.31-.05,8.45-.13,12.43-.23,3.23-.08,7.27-.02,12.13.17,4.05.16,8.11.23,12.16.2,1.09,0,2.47.4,4.16,1.22Z"/>
      <path class="cls-1" d="M82.16,37.76c-4.91-.16-12.23-.19-21.95-.08-8.21.09-15.52,2.29-21.93,6.6-6.37,4.29-9.91,9.92-10.6,16.9-.25,2.47-.32,7.84-.22,16.12l-.06,46.21c0,1.2-.99,2.17-2.2,2.17-.09,0-.17,0-.26-.02l-.1-.02c-1.41-.18-2.48-1.37-2.5-2.79-.24-15.18-.36-32.91-.36-53.19,0-6.82.44-11.6,1.33-14.34,5.76-17.79,24.95-23.24,41.09-22.78,19.68.55,37.66.08,60.41.11,38.85.07,93.07.07,162.65,0,10.65-.01,59.07.03,145.25.12,2.02,0,3.71.75,5.07,2.25.19.21.18.54-.03.73,0,0-.02.02-.03.03-1.51,1.22-3.15,1.83-4.94,1.84-146.89.09-222.49.13-226.82.13-41.26.02-82.53.02-123.8.01Z"/>
      <path class="cls-2" d="M82.16,37.76l-4.13,2.25c-1.35.74-2.81,1.26-4.31,1.56-4.63.9-6.98,1.36-7.05,1.38-13.59,3.09-26.43,9.27-32.53,21.43-3.27,6.51-5.49,10.82-6.68,12.92-.1-8.28-.03-13.65.22-16.12.69-6.98,4.23-12.61,10.6-16.9,6.41-4.31,13.72-6.51,21.93-6.6,9.72-.11,17.04-.08,21.95.08Z"/>
      <path class="cls-1" d="M379.56,102.53c-.2-7.73-.17-18.85.09-33.36.13-7.21,7.16-11.25,13.8-11.27,3.69,0,12.69.01,27,.06,9.2.03,18.93-.16,27.06-.18,5.07-.01,9.09.66,12.04,2.01,4.86,2.23,8.2,6.23,10.02,12.01,1.93,6.13,4.08,14.27,6.47,24.42,2.4,10.24-4.91,15.32-14.15,15.16-21.59-.36-44.73-.37-69.42-.03-5.14.07-10.76-2.55-12.71-7.76-.12-.34-.19-.7-.2-1.06ZM386.94,102.13c1.28,1.73,2.7,2.62,4.26,2.65,13.19.28,37.45.26,72.78-.06,2.37-.02,4.16-1.32,5.37-3.91.18-.37.25-.77.22-1.18-.33-3.99-1.14-7.76-2.45-11.31-3.06-8.32-2.38-18.31-10.64-23.07-1.46-.84-3.74-1.16-6.83-.96-8.34.54-18.45-.56-27.22-.48-15.94.16-26.22.2-30.83.12-.23,0-.46.03-.68.11-3.63,1.29-4.54,3.58-4.52,7.67.07,14.86.14,24.66.19,29.39,0,.37.13.73.35,1.03Z"/>
      <path class="cls-1" d="M146.97,102.24c0,6.53-5.3,11.83-11.83,11.83H56.54c-6.53,0-11.83-5.3-11.83-11.83h0v-30.62c0-6.53,5.3-11.83,11.83-11.83h78.6c6.53,0,11.83,5.3,11.83,11.83h0v30.62ZM76.46,107.66c19.6,0,39.15.11,58.75-.15.74-.01,1.58-.51,2.52-1.5,1.44-.59,2.2-2.11,2.27-4.57.27-9.67.23-19.46-.14-29.37-.08-2.17-1.24-3.94-3.48-5.32-.26-.16-.56-.27-.87-.31-6.01-.75-12.18-.18-17.73-.39-5.66-.22-10.04-.31-13.15-.28-24.29.24-39.23.31-44.84.22-4.62-.07-8.16,1.25-8.17,6.17,0,6.4,0,16.56.04,30.49,0,.36.09.72.25,1.05,1.17,2.33,2.94,3.61,5.29,3.85,3.18.32,9.6.36,19.26.11Z"/>
      <path class="cls-2" d="M520.76,108.53c-1.5-3.09-2.76-6.04-3.78-8.86-2.03-5.63-3.93-11.3-5.7-17.01-.72-2.35-2.62-6.77-5.7-13.27-1.24-2.61-.22-5.15,3.05-7.62,4.01-.84,8.46-1.22,13.36-1.13.32,0,.63.15.83.4,3.76,4.5,6.3,8.39,9.6,12.49,1.99,2.47,3.63,5,4.92,7.59,2.7,5.39,5.37,10.85,7.42,18.12.65,2.29,1.75,5.37,3.3,9.23.32.8-.07,1.71-.87,2.03-.22.09-.47.12-.71.1-5.36-.46-11.11-.71-17.25-.74-2.76-.01-5.58-.46-8.47-1.33Z"/>
      <path class="cls-1" d="M335.3,92.93c0,4.07-3.29,7.38-7.36,7.38l-27.38.05c-4.07,0-7.38-3.29-7.38-7.36h0l-.04-22.06c0-4.07,3.29-7.38,7.36-7.38h0l27.38-.05c4.07,0,7.38,3.29,7.38,7.36h0l.04,22.06ZM328.1,91.7l-.08-20.26c0-1.3-1.07-2.36-2.37-2.36l-21.79.08c-2.12,0-3.84,1.86-3.83,4.14h0s.06,16.74.06,16.74c0,2.28,1.73,4.12,3.85,4.12l21.79-.08c1.31,0,2.37-1.06,2.37-2.37h0Z"/>
      <path class="cls-2" d="M386.59,101.1c-.05-4.73-.12-14.53-.19-29.39-.02-4.09.89-6.38,4.52-7.67.22-.08.45-.12.68-.11,4.61.08,14.89.04,30.83-.12,8.77-.08,18.88,1.02,27.22.48,3.09-.2,5.37.12,6.83.96,8.26,4.76,7.58,14.75,10.64,23.07,1.31,3.55,2.12,7.32,2.45,11.31.03.41-.04.81-.22,1.18-1.21,2.59-3,3.89-5.37,3.91-35.33.32-59.59.34-72.78.06-1.56-.03-2.98-.92-4.26-2.65-.22-.3-.34-.66-.35-1.03Z"/>
      <rect class="cls-1" x="-.29" y="66.58" width="9.5" height="6.36" rx="2.6" ry="2.6" transform="translate(-65.41 71.91) rotate(-88.1)"/>
      <path class="cls-2" d="M137.73,106.01c-1.45.11-2.74.08-3.88-.11-2.37-.39-3.65-.59-3.85-.6-7.98-.43-14.85-.5-20.6-.23-4.3.21-15.52.85-33.66,1.92-.14,0-.26.13-.25.27,0,.1.07.19.16.23.19.09.46.14.81.17-9.66.25-16.08.21-19.26-.11-2.35-.24-4.12-1.52-5.29-3.85-.16-.33-.25-.69-.25-1.05-.03-13.93-.05-24.09-.04-30.49,0-4.92,3.55-6.24,8.17-6.17,5.61.09,20.55.02,44.84-.22,3.11-.03,7.49.06,13.15.28,5.55.21,11.72-.36,17.73.39.31.04.61.15.87.31,2.24,1.38,3.4,3.15,3.48,5.32.37,9.91.41,19.7.14,29.37-.07,2.46-.83,3.98-2.27,4.57Z"/>
      <path class="cls-2" d="M328.1,91.7c0,1.31-1.05,2.37-2.36,2.38h-.01l-21.79.08c-2.12,0-3.84-1.84-3.85-4.12l-.06-16.74c0-2.28,1.71-4.13,3.83-4.14h0l21.79-.08c1.3,0,2.36,1.05,2.37,2.36l.08,20.26Z"/>
      <rect class="cls-1" x="329.89" y="113.43" width="11" height="7.78" rx="3.19" ry="3.19" transform="translate(205.86 448.19) rotate(-87.9)"/>
      <rect class="cls-1" x="285.87" y="116.21" width="20.36" height="4.98" rx="2.42" ry="2.42" transform="translate(-.41 1.03) rotate(-.2)"/>
      <path class="cls-1" d="M187.11,124.09c0,1.28-1.3,1.93-3.9,1.95-41.63.38-63.97.54-67,.49-6.88-.13-13.46-.22-19.75-.29-1.93-.02-2.89-.7-2.89-2.03s.96-2,2.88-2.03c6.29-.09,12.87-.2,19.75-.35,3.03-.06,25.37.04,67.01.31,2.59.02,3.89.67,3.9,1.95Z"/>
      <path class="cls-2" d="M19.13,155.75c-.05.46-.43.81-.89.81h-8.27c-.45,0-.83-.34-.89-.78l-1.23-9.55c-.08-.59.34-1.13.93-1.21.07,0,.15-.01.22,0,3.17.2,5.3.34,6.39.41,4.23.27,3.99,7.59,3.74,10.33Z"/>
      <path class="cls-2" d="M212.13,173.82c.03,15.82-15.65,28.67-35.02,28.7h0c-19.37.03-35.09-12.76-35.12-28.58h0c-.03-15.82,15.65-28.67,35.02-28.7h0c19.37-.03,35.09,12.76,35.12,28.58h0ZM153.65,173.87c0,10.82,10.46,19.6,23.36,19.6h0c12.9,0,23.36-8.78,23.36-19.6h0c0-10.82-10.46-19.6-23.36-19.6s-23.36,8.78-23.36,19.6Z"/>
      <path class="cls-2" d="M497.49,148.16c.02-.86.72-1.54,1.58-1.53l15.37.21c2.28.03,4.12.9,4.11,1.94,0,0,0,0,0,0l-.08,5.26c-.02,1.04-1.87,1.86-4.15,1.83l-15.37-.22c-.86-.01-1.55-.72-1.54-1.58h0s.08-5.92.08-5.92Z"/>
      <path class="cls-2" d="M273.85,162.31v5.63c0,.34-.28.62-.62.62h-53.07c-.55,0-1.03-.4-1.12-.94-1.49-8.41-5.98-15.3-13.48-20.67,4.2.77,7.96,2.55,11.28,5.35,5.95,5.03,11.26,9.47,19,10.01,13.25.93,23.15,1.1,29.71.52,3.92-.35,6.69-.52,8.3-.52Z"/>
      <path class="cls-2" d="M145.34,148.59c-5.43,5.77-9.02,11.97-10.78,18.59-.25.94-1.09,1.59-2.06,1.59H17.3c-.3,0-.57-.14-.75-.37l-4.26-5.41c-.24-.31-.19-.75.11-1,.14-.11.31-.16.49-.15,2.22.11,4.31.03,6.28-.23,6.5-.86,6.1-5.85,6.22-10.86.56.01,1.07-.25,1.53-.78.22-.25.6-.28.86-.07,3.44,2.8,6.58,5.99,11.18,7.3,9.39,2.67,18.88,4.35,28.49,5.05,14.69,1.08,29.87,1.49,45.54,1.24,2.73-.04,5.45-.52,8.18-1.44,1.79-.6,4.23-1.87,7.33-3.8,5.42-3.39,11.03-6.61,16.84-9.66Z"/>
      <path class="cls-2" d="M549.82,152.96l-.75,14.81c-.03.53-.46.94-.99.93l-28.2-.19c1.64-1.85,2.99-2.89,4.05-3.12,7.35-1.59,15.52-4.73,20.95-10.03.51-.5,1.11-.89,1.77-1.15l3.17-1.25Z"/>
      <path class="cls-1" d="M153.65,173.87c0-10.82,10.46-19.6,23.36-19.6s23.36,8.78,23.36,19.6-10.46,19.6-23.36,19.6h0c-12.9,0-23.36-8.78-23.36-19.6h0ZM192.52,173.69c-.01-7.13-6.98-12.9-15.57-12.88h0c-8.59.02-15.54,5.81-15.53,12.94h0c.01,7.13,6.98,12.9,15.57,12.88h0c8.59-.01,15.54-5.81,15.53-12.94Z"/>
      <path class="cls-2" d="M490.56,154.63c-.41,3.93,1.36,6.02,5.29,6.27,4.63.3,8.34.5,11.15.61.49.02.87.42.85.9,0,.04,0,.08-.01.12l-.86,5.06c-.09.55-.56.95-1.12.96-20.93.33-33.65.47-38.15.42-38.37-.44-76.05-.55-113.06-.33-.31,0-.57-.24-.58-.56,0-.01,0-.02,0-.03l.14-7.63c5.51,1.89,9.14,2.86,10.87,2.89,29.83.51,60.01.5,90.56-.02,6.55-.11,11.56-.53,15.01-1.24,5.21-1.08,8.92-2.17,11.13-3.28,2.85-1.43,5.78-2.81,8.78-4.14Z"/>
      <path class="cls-2" d="M135.57,183.01c.27.66-.05,1.42-.71,1.7-.51.21-1.1.07-1.47-.35-2.12-2.53-3.32-5.31-3.6-8.36-.08-.9.58-1.69,1.48-1.77.05,0,.1,0,.15,0h1.28c.85,0,1.55.67,1.57,1.52.09,3.07.53,5.49,1.3,7.27Z"/>
      <path class="cls-2" d="M127.99,183.58c.15.18.12.46-.06.6-.08.06-.18.1-.28.1-14.19-.07-26.76.02-37.69.27-8,.18-18.54-.33-28.63-.08-5.83.15-9.91.09-12.25-.17-9.21-1.03-17.41-3.83-24.58-8.4-.26-.17-.47-.45-.64-.85-.08-.18,0-.38.19-.46.04-.02.09-.03.14-.03h99.3c.46,0,.84.38.84.84h0v3.31c0,.14.05.28.13.39l3.53,4.48Z"/>
      <path class="cls-2" d="M221.02,184l-1.45.34c-.46.1-.92-.19-1.02-.66-.04-.2-.01-.41.08-.59,1.1-2.02,1.49-4.53,1.17-7.53-.07-.58.35-1.1.93-1.16.06,0,.13,0,.19,0l4.28.29c.58.04,1.02.55.98,1.14,0,.13-.04.26-.1.37l-2.89,6.07c-.42.88-1.22,1.53-2.17,1.74Z"/>
      <path class="cls-2" d="M231.92,171.45c.05,1.35.35,3.94,2.25,5.52,1.88,1.56,4.37,1.25,5.4,1.27,6.66.13,13.16.06,19.49-.22,9.28-.41,15.77-.64,19.48-.68,18.96-.21,30.57-.26,34.84-.15,3.05.09,8.15-.1,15.28-.55,4.38-.28,9.48-.35,15.3-.21,14.88.35,23.3.81,34.96-.34.2-.04.33-.22.29-.42-.03-.15-.15-.27-.3-.29l-8.63-.54s-.01,0-.01-.01,0-.01.01-.01c.02,0,.05,0,.09-.01,2.59-.13,5.2-.24,7.81-.31,38.47.16,76.95.1,115.43-.19,4.16-.03,7.9.04,11.22.22,9.85.52,17.68-.23,26.65.27,4.21.23,7.76-.38,11.87-.31.43,0,.77.35.76.78,0,.26-.14.51-.36.65-5.63,3.56-11.9,6.04-18.79,7.45-2.91.59-8.33.97-16.24,1.14-9.28.2-21.61.17-37-.08-9.07-.15-21.4-.17-36.99-.08-.99,0-19.76.02-56.29.05-45.91.04-96.02,0-150.32-.11-.25,0-.46-.21-.46-.46,0-.1.03-.2.1-.28.72-.9,1.83-1.17,2.55-2.23.27-.4.48-.71.78-1.42,1.14-2.71.88-7.79.84-8.45Z"/>
    </g>
  </g>
</svg>