<?xml version="1.0" encoding="UTF-8"?>
<svg id="Capa_2" data-name="Capa 2" xmlns="http://www.w3.org/2000/svg" viewBox="0 0 980.74 334.22">
  <defs>
    <style>
      .cls-1 {
        fill: #edb894;
      }

      .cls-2 {
        fill: #c46a2d;
      }
    </style>
  </defs>
  <g id="Capa_1-2" data-name="Capa 1">
    <g>
      <g>
        <path class="cls-2" d="M442.16,250.48c4.9.19,9.22-.36,12.61-3.78,2.71-2.73,3.99-6.49,4.09-11.68h189.21s10.48,17.92,10.48,17.92c3.93,6.73,10.52,9.94,18.64,9.53l195.2-9.78c2.34.6,4.66,2.77,7.49,2.76l50.85-.25c5.15-.02,8.04-5.18,10.48-8.7l28.25-.75c8.38-.22,11.21-7.85,11.28-15.18.1-9.79-1.58-18.56-8.54-25.02-6.78-6.3-15.47-8.86-25.74-7.36v-22.72c5.42-2.45,7.93-6.9,7.84-12.46-.07-4.31-2.99-10.51-8.59-10.96-9.14-.73-18.54-.96-27.56.12-5.87.71-8.62,7.08-8.5,11.79.13,5.22,2.85,9.33,8.21,11.7l-.03,22.19-40.52.18c-2.29.76-3.93,1.78-5.89,3.86l-123.74-23.12.17-119.98c5.81-2.83,10.23-7.22,9.95-14.15v-26.82C757.81,6.63,749.6,0,738.72,0L54.66.03c-10.84,0-18.31,8.34-18.22,18.64l.25,28.05c.05,6,4.91,10.39,11.15,12.16v122.8c0,1.62-4.13,1.38-5.45,1.2-7.92-1.06-14.82,4.44-14.79,12.65l.14,31.95c.03,7.99,6.79,13.34,14.72,12.3,1.89-.25,5.11-.56,6.26,1.31,1.78,2.89,4.06,6.72,7.97,6.7l23.45-.12c5.71-.03,9.1-6.69,8.2-12.12-.17-1.01-.28-4.41,1.01-4.41l117.24-.12c-.49,9.43,6.12,15.32,14.74,15.19,5.6-.09,10.94.84,16.97-1.61-1.84,28.87,7.92,57.06,31.72,77.37l-264.89.19c-3.57,0-5.41,4.34-5.07,6.51.5,3.23,2.64,5.36,6.6,5.36l289.45.19h72.35s597.02-.2,597.02-.2c4.16,0,6.08-2.91,6.06-6.11-.02-2.23-1.8-5.79-5.42-5.79l-572.43-.15c21.96-19.34,32.41-45.28,31.49-73.83,7.07,3.32,11.63,2.14,17.01,2.35ZM921.9,161.96l20.66.06c.91,0,1.17,2.14.8,2.71-.42.64-1.46,1.42-2.68,1.41l-17.64-.06c-1.27,0-1.8-.62-2.16-1.08-.72-.91-.17-3.04,1.03-3.04ZM935.75,197.38c-2.25.81-4.47.8-7.22.22l-.03-21.43,6.94-.03.31,21.25ZM880.74,209.76l74.23.05c7.23,0,12.87,5.83,14,12.56l-41.08.24c-2.94.02-4.51,2.79-4.91,4.63-.49,2.31-.15,6.13,2.78,6.26l7.19-2.83,36.29.23c.2,2.79-1.46,3.92-3.34,3.94l-26.67.33c-4.54.06-7.66,4.17-9.85,8.39l-48.42-.02-.23-10.45.02-23.33ZM455.66,223.3l-12.27-33.65,11.36-.14h237.26s14.24.15,14.24.15l-.08,33.68-250.5-.03ZM88.7,124.1l-.1-14.05,617.26-.02c.84,5.22.62,9.63-.03,14.05-8.31,1.71-13.08,8.5-13.14,16.02-.06,7.81,5.34,14.38,13.6,16.3l.04,26.05-266.02-.05c-11.95-29.41-33.02-51.14-65.76-55.34l-84.22-.02c-33.43,3.93-54.2,24.95-67.34,55.46l-134.59-.08-.02-26.56c8.49-1.49,13.08-8.21,13.21-15.76.12-7.71-4.47-14.4-12.89-16ZM736.5,75.15l-.11,8.07-.04,124.59.05,15.72-18.89-.35v-11.02s-.02-55.97-.02-55.97c7.92-2.3,12.03-8.43,12.11-16.06.08-7.51-4.49-13.34-12.08-15.98l-.02-51.49.15-13.73,18.8-.17-.04,15.25.08,1.15ZM718.18,142.5c-1.69,3.86-11.72,3.69-13.69.06-.96-1.76-1.11-5.77,1.73-6.79,2.72-.97,6.87-1.03,9.98.03,3.32,1.13,2.73,4.97,1.98,6.7ZM706.08,102.95l-616.67-.07c-.54,0-1.03-.78-1.03-1.23l.07-28.02.39-14.72h617.04c.76,6.66,1.05,13.52-.21,19.63,1.3,7.7.78,15.83.42,24.41ZM760.09,193.2l98.87,17.95-26.47,1.22-59.53,1.39-25.12-3.96-.05-18.99,12.3,2.4ZM747.2,230.58c.03-.82.63-2.94,1.81-2.89l10.02.85,34.03-2.62,65.67-2.6,10.72-.11.05,17.82-12.84.64-180.5,9.37c-4.31.22-7.37-2.49-9.04-5.58l-5.56-10.27,79.74-.15,5.8-3.46c.18-.19.1-.74.11-.99ZM48.02,227.55c-3.02.56-6.3.96-8.68-.6-1.43-1.41-.62-3.5-.59-5.34l.34-26.43c1.94-1.35,7.58-1.92,8.38.1,1.31,3.28.28,6.69.31,9.29l.24,23ZM48.09,46.64l.16-29.86c.01-2.44,3.62-5.03,6.57-5.03l669.29.03,15.88.15c3.38.03,6.55,2.61,6.5,6.19l-.41,28.94-686.76-.05-11.24-.37ZM77.01,222.82l-.07,13.31-17.61.08-.21-14.25V72.4s.15-13.57.15-13.57l17.72-.08v15.23s.1,50.46.1,50.46c-7.25,1.96-11.16,7.97-11.41,15.23-.26,7.67,3.88,13.87,11.42,16.08l-.1,67.08ZM83.35,145.03c-2.98-.14-5.74-.31-6.59-3.22-.6-2.05-.29-5.52,2.72-6.24,2.4-.57,5.48-.74,8.42-.09,3.23.72,3.16,4.47,2.51,6.41-1.01,3.03-3.67,3.3-7.07,3.14ZM208.68,219.75l-103.55-.1-16.75-.04-.05-30,12.54-.07h117.64c.81,0,1.02,1.03.74,1.38-.22.28-.34.82-.54,1.39l-10.04,27.45ZM406.19,286.66c-8.85,19.19-25.88,35.6-48.02,35.56l-53.84-.12c-10.92-.02-20.81-4.73-29.18-11.57-10.9-8.9-17.81-20.98-22.17-34.17-5.14-15.58-4.53-31.48-.17-47.27,11.54-41.8,53.88-68.42,96.15-58.55,51.92,12.12,79.45,67.96,57.23,116.13ZM428.68,233.95l-15.18-40.67c-7.11-19.07-23.21-35.96-43.79-35.99l-75.31-.09c-13.17-.02-24.42,7.17-32.88,16.57-6.13,6.81-9.83,14.4-13.21,22.86l-14.83,37.11c-1.89,2.53-7.09,1.34-9.52,1.5-2.28.15-3.91.26-5.23-.69-1.11-.8-1.94-3.05-1.34-4.87,5.23-15.9,10.49-31.26,17.56-46.39,5.02-10.74,10.97-20.34,19.8-28.23,10.1-9.03,22.56-16.01,36.54-16.05l78.88-.26c8.32-.03,15.47,2.2,22.68,5.43,16.11,7.23,27.81,21.46,35.11,37.7,8.23,18.34,14.88,36.83,20.19,56.78-6,.91-10.59.72-15.7.29-2.06-.17-3.1-3.23-3.76-5Z"/>
        <path class="cls-2" d="M370.52,203.18c-17.71-14.91-41.66-18.77-62.88-9.33-33.15,14.74-47.56,53.95-30.91,86.2,11.12,21.54,32.88,34.56,56.87,33.83,23.32-.71,44.46-14.68,54.36-37.08,11.63-26.33,4.12-55.47-17.45-73.62ZM352.27,297.93c-21.09,9.59-44.87,3.31-58.91-13.1-14.81-17.31-16.55-41.11-4.37-60.62,10.05-16.09,27.48-25.27,46.5-23.88,18,1.32,34.17,12.47,42.17,29.94,11.53,25.22.61,55.83-25.39,67.65Z"/>
        <path class="cls-2" d="M911.53,232.8c2.93-1.57,4.23-5.02,2.46-7.95-1.55-2.58-4.54-4.58-7.69-2.96-3.27,1.68-4.85,5.51-2.97,8.54,1.54,2.48,5.28,3.93,8.19,2.37Z"/>
        <path class="cls-2" d="M331.89,223.65c-14.71-.1-26.92,11.56-27.35,26.91-.42,15.12,10.84,27.31,25.29,28.3,14.58,1,27.65-9.95,28.61-25.85.98-16.2-11.48-29.25-26.55-29.36ZM347.16,252.41c-.46,7.39-5.35,13.15-12.04,14.64-6.76,1.5-13.64-1.51-17.19-7.78-2.93-5.17-3-11.42.34-16.91,2.52-4.15,7.33-7.24,13.34-7.18,9.26.1,16.14,7.91,15.56,17.23Z"/>
      </g>
      <g>
        <path class="cls-1" d="M59.33,47.01l-.02-19.18c.02-4.11,3.05-6.17,7.39-6.18l661.74-.23-4.32-9.64,15.88.15c3.38.03,6.55,2.61,6.5,6.19l-.41,28.94-686.76-.05Z"/>
        <path class="cls-1" d="M705.66,78.54c-1.1.36-2.29-.07-2.42-.66-.15-.68-.17-2.08.17-4.15l-27.69-.53-587.27.43.39-14.72h617.04c.76,6.66,1.05,13.52-.21,19.63Z"/>
        <path class="cls-1" d="M252.99,276.35c2.45-.16,3.8,1.34,6.05,2.51l-2.35-16.93c-2.64-19,7.17-32.79-3.87-32.86,11.54-41.8,53.88-68.42,96.15-58.55,51.92,12.12,79.45,67.96,57.23,116.13-8.85,19.19-25.88,35.6-48.02,35.56l-53.84-.12c-10.92-.02-20.81-4.73-29.18-11.57-10.9-8.9-17.81-20.98-22.17-34.17ZM387.96,276.8c11.63-26.33,4.12-55.47-17.45-73.62-17.71-14.91-41.66-18.77-62.88-9.33-33.15,14.74-47.56,53.95-30.91,86.2,11.12,21.54,32.88,34.56,56.87,33.83,23.32-.71,44.46-14.68,54.36-37.08Z"/>
        <path class="cls-1" d="M223.97,235.24c6.58-18.83,12.89-37.7,22.05-55.93,3.05-6.08,8.09-10.47,12.28-15.74,5.87-7.39,24.54-16.61,35.29-16.65l83.56-.26,14.99,1.83.73-4.31c16.11,7.23,27.81,21.46,35.11,37.7,8.23,18.34,14.88,36.83,20.19,56.78-6,.91-10.59.72-15.7.29-2.06-.17-3.1-3.23-3.76-5l-15.18-40.67c-7.11-19.07-23.21-35.96-43.79-35.99l-75.31-.09c-13.17-.02-24.42,7.17-32.88,16.57-6.13,6.81-9.83,14.4-13.21,22.86l-14.83,37.11c-1.89,2.53-7.09,1.34-9.52,1.5Z"/>
        <path class="cls-1" d="M454.74,189.51c-.89,4.16,2.92,7,4.92,10.34,3.89,6.49,8.9,9.87,16.43,11,17.65,2.64,34.93,2.94,53.04,2.85l86.89-.43,56.96-.67c6.37-.08,13.06-2.21,16.12-7.94,2.43-4.55,2.23-10.4,2.89-15.14l14.24.14-.08,33.68-250.5-.03-12.27-33.65,11.36-.14Z"/>
        <path class="cls-1" d="M747.09,231.58c-.64.68.03,3.83,1.07,3.81l49.82-1.25,59.49-2.49,1.26-8.33,10.72-.11.05,17.82-12.84.64-180.5,9.37c-4.31.22-7.37-2.49-9.04-5.58l-5.56-10.27,79.74-.15,5.8-3.46Z"/>
        <path class="cls-1" d="M880.71,233.09c2.34,0,4.27.94,7.19,1.73l.09-13.26c.02-2.63,2.11-4.03,4.88-3.98l25,.41,18.57.02c6.37,0,12.64,1.24,18.8-1.04.87-2.45-.05-4.98-.29-7.15,7.23,0,12.87,5.83,14,12.56l-41.08.24c-2.94.02-4.51,2.79-4.91,4.63-.49,2.31-.15,6.13,2.78,6.26l7.19-2.83,36.29.23c.2,2.79-1.46,3.92-3.34,3.94l-26.67.33c-4.54.06-7.66,4.17-9.85,8.39l-48.42-.02-.23-10.45ZM906.31,221.89c-3.27,1.68-4.85,5.51-2.97,8.54,1.54,2.48,5.28,3.93,8.19,2.37s4.23-5.02,2.46-7.95c-1.55-2.58-4.54-4.58-7.69-2.96Z"/>
        <path class="cls-1" d="M760.09,193.2c.56,4.32,3.79,7.85,8.5,8.7l32.24,5.8c12.54,2.26,31.92,3.28,32,3.4.2.31.21.99-.35,1.27l-59.53,1.39-25.12-3.96-.05-18.99,12.3,2.4Z"/>
        <path class="cls-1" d="M100.87,189.53c-.7,7.99-.73,16.18,2.48,24.03.87,2.12,2.36,3.89,1.77,6.09l-16.75-.04-.05-30,12.54-.07Z"/>
        <path class="cls-1" d="M736.41,74c-2.31-.18-.76,1.6.08,1.15l-.11,8.07c-3.44-.15-9.97-5.52-12.02-9.86l-6.87-.7.15-13.73,18.8-.17-.04,15.25Z"/>
        <polygon class="cls-1" points="77 73.96 59.13 72.4 59.28 58.82 77 58.74 77 73.96"/>
        <path class="cls-1" d="M736.35,207.81l.05,15.72-18.89-.35v-11.02c7.69.93,12.83-4.21,18.84-4.34Z"/>
        <polygon class="cls-1" points="77.01 222.82 76.94 236.13 59.33 236.21 59.13 221.96 77.01 222.82"/>
        <path class="cls-1" d="M935.75,197.38c-2.25.81-4.47.8-7.22.22l-.03-21.43,6.94-.03.31,21.25Z"/>
        <path class="cls-1" d="M47.78,204.56l.24,23c-3.02.56-6.3.96-8.68-.6,1.87-2.93.67-6.12.71-9.5,8.53-4.15,2.26-13.79,7.73-12.89Z"/>
        <path class="cls-1" d="M940.67,166.14l-17.64-.06c-1.27,0-1.8-.62-2.16-1.08-.72-.91-.17-3.04,1.03-3.04l20.66.06c.91,0,1.17,2.14.8,2.71-.42.64-1.46,1.42-2.68,1.41Z"/>
        <path class="cls-1" d="M759.02,228.54l-11.82,2.04c.03-.82.63-2.94,1.81-2.89l10.02.85Z"/>
        <path class="cls-1" d="M218.72,192.3l-.2-2.77c.81,0,1.02,1.03.74,1.38-.22.28-.34.82-.54,1.39Z"/>
        <path class="cls-1" d="M89.41,102.88c-.53,0-1.03-.78-1.03-1.23l1.03,1.23Z"/>
        <path class="cls-1" d="M317.93,259.27c1.51-.16,5.31-1.83,4.93-3.59-1.35-6.08.78-11.75,7.44-13.44l1.32-7.05c9.26.1,16.14,7.91,15.56,17.23-.46,7.39-5.35,13.15-12.04,14.64-6.76,1.5-13.64-1.51-17.19-7.78Z"/>
      </g>
    </g>
  </g>
</svg>