<?xml version="1.0" encoding="UTF-8"?>
<svg id="Capa_2" data-name="Capa 2" xmlns="http://www.w3.org/2000/svg" viewBox="0 0 403.45 403.45">
  <defs>
    <style>
      .cls-1 {
        fill: #c46a2d;
      }

      .cls-2 {
        fill: #191919;
      }
    </style>
  </defs>
  <g id="Capa_1-2" data-name="Capa 1">
    <g>
      <rect class="cls-1" width="403.45" height="403.45" rx="75.37" ry="75.37"/>
      <path class="cls-2" d="M288.36,334.13c-5.12,0-9.22-2.05-12.04-6.02s-5.38-11.4-7.3-22.02l-9.09-44.82c-3.46-17.54-12.68-30.86-27.53-39.82-14.98-9.09-37.01-14.6-66.33-16.65,37.9-3.46,64.92-12.8,81.05-28.04s24.07-33.55,24.07-55.19-10.76-44.05-32.14-56.47c-21.38-12.29-53.91-18.57-97.57-18.57s-14.09,0-19.85.38h-5.63v7.81h23.3c4.1,0,12.8.26,20.87,5.76,4.35,2.95,7.81,6.79,10.76,12.29,6.4,12.04,9.73,29.83,9.73,53.4s-3.71,40.33-11.14,52.76c-7.43,12.55-21.38,18.69-41.74,18.69h-11.65v8.58h19.34c9.99,0,17.54,5.12,22.66,15.49,4.99,10.37,8.96,25.61,11.91,45.71l6.4,43.02c2.56,16.9,9.35,28.94,20.23,35.98s26.25,10.5,46.1,10.5,25.87-1.66,36.24-5.12,19.85-9.48,28.43-18.05l-5.63-5.63c-3.71,3.71-8.2,5.63-13.32,5.63v.38h-.13Z"/>
    </g>
  </g>
</svg>