<?xml version="1.0" encoding="UTF-8"?>
<svg xmlns="http://www.w3.org/2000/svg" viewBox="0 0 64 64" role="img" aria-label="Camping Los Robles">
  <rect width="64" height="64" rx="18" fill="#c46a2d"/>
  <path fill="#fffdf9" d="M22.57,37.63c-.68,0-1.2-.26-1.58-.79-.38-.53-.7-1.49-.96-2.88l-1.18-5.87c-.45-2.29-1.66-4.03-3.61-5.22-1.96-1.18-4.85-1.91-8.69-2.17,4.97-.45,8.5-1.67,10.61-3.67,2.11-1.99,3.16-4.4,3.16-7.22,0-3.31-1.4-5.77-4.2-7.39C13.31.81,9.05,0,3.33,0c-.98,0-1.84.02-2.6.06h-.73v1.02h3.05c.54-.02,1.68.03,2.74.75.56.38,1.02.88,1.41,1.62.85,1.58,1.27,3.91,1.27,7s-.49,5.28-1.47,6.91c-.98,1.64-2.8,2.45-5.47,2.45H0v1.13h2.54c1.32,0,2.3.68,2.96,2.03.66,1.35,1.18,3.35,1.55,5.98l.85,5.64c.34,2.22,1.22,3.79,2.65,4.71,1.43.92,3.44,1.38,6.04,1.38,1.81,0,3.39-.23,4.74-.68,1.35-.45,2.6-1.24,3.72-2.37l-.73-.73c-.49.49-1.07.73-1.75.73Z" transform="translate(18 8) scale(1.16)"/>
</svg>
