<?xml version="1.0" encoding="UTF-8"?>
<svg id="Capa_2" data-name="Capa 2" xmlns="http://www.w3.org/2000/svg" viewBox="0 0 563.04 209.73">
  <defs>
    <style>
      .cls-1 {
        fill: #2965e1;
      }

      .cls-2 {
        fill: #97c1fb;
      }
    </style>
  </defs>
  <g id="Capa_1-2" data-name="Capa 1">
    <g>
      <path class="cls-1" d="M137.92,142.61c2.85,4.66,5.07,9.58,6.67,14.75.1.32.4.54.73.54h113.91c.22,0,.39-.17.39-.39,0,0,0,0,0-.01l-.22-4.93c.13-19.5-.3-38.84.78-58.44.13-2.37,1.24-3.74,3.33-4.12,1.15-.21,2.27.65,2.5,1.93,0,0,0,0,0,0,.28,1.53.42,3.64.43,6.31.05,17.13.07,34.8.06,53.01l.17,6.1c.01.32.27.57.59.57h80.48c.41,0,.76-.27.87-.66,1.25-4.5,3.31-9.41,6.19-14.74,2.99-4.09,6.39-7.4,10.18-9.92,11.08-7.39,23.66-10.04,37.73-7.93,14.87,2.22,26.44,9.43,34.73,21.62l3.94,11.8c.12.35.45.59.82.59h107.9c.38,0,.69-.31.69-.69h0l-.12-17.17-.45-6.05c-.02-.25-.23-.44-.48-.42-.02,0-.05,0-.07.01-2.68.67-5.66,1.03-8.93,1.09-12.33.21-24.26.2-35.79-.05-4.96-.11-10.79-1.3-15.72-1.39-12.87-.25-21.86-.48-26.95-.7-4.76-.21-8.84-1.75-12.23-4.63-1.5-1.27-3.29-4.13-5.37-8.57-2.1-4.49-6.28-11.68-3.89-15.8,1.85-3.2,6.22-3.02,9.39-2.48.27.05.52-.12.58-.38.04-.2-.05-.41-.23-.52-2.15-1.43-4.58-2.7-7.29-3.81-8.06-3.3-16.01-6.85-23.85-10.64-8.33-4.03-15.93-9.5-22.81-16.43-14.18-14.27-29.98-29.64-47.4-46.1-2.86-2.7-.92-6.64,2.69-6.73,11.34-.27,21.94-.6,31.79-.98,5.94-.23,11.65-.17,17.13.2.16.02.3-.09.32-.25.02-.12-.04-.23-.14-.29-8.13-5.13-17.05-7.85-26.74-8.16-8.76-.28-19.18-.39-31.25-.32-8.83.05-67.32.05-175.47,0-9.43,0-16.09-.04-20-.1-9.2-.15-18.83.11-26.7.1-24.79-.05-49.74-.04-74.83.01-8.23.02-17.93,3.05-21.58,10.83-3.22,6.86-3.92,15.7-4.66,23.78-.19,2.12-1.98,3.73-4.1,3.71h-.26c-1.74-.02-3.14-1.44-3.12-3.17,0-.16.02-.32.04-.48,1.43-8.79,1.16-19.51,6.24-27.86C24.57,4.34,35.67.22,46.76.1c6.19-.07,11.02-.1,14.47-.1,161.91.03,264.75.1,308.5.21,14.57.04,30.88,5.12,42.03,15.36,4.26,3.91,7.96,7.29,11.09,10.16,14.07,12.84,27.44,25.41,40.09,37.71,3.85,3.74,8.5,7.58,15.58,9.66,14.58,4.28,28.7,8.58,42.35,12.89,12.7,4,26.37,10.31,32.34,22.66,1.94,4.01,3.33,10.21,4.16,18.58,1.09,10.97,1.56,21.44,1.41,31.39-.06,3.77-.8,7.84-2.21,12.22-3.75,11.59-14.85,14.1-25.58,14.08-.34,0-.66.21-.79.54-3.47,8.62-9.45,14.68-17.94,18.17-.27.12-.4.43-.29.71.08.2.28.33.49.32h48.08c1.3,0,2.39,1,2.48,2.3v.27c.14,1.25-.77,2.36-2.01,2.49-.08,0-.15.01-.23.01H2.48c-1.37,0-2.48-1.11-2.48-2.48v-.48c0-1.19.97-2.16,2.16-2.16h74.05c.23,0,.43-.17.43-.41,0-.18-.1-.34-.26-.4-10.85-4.97-18.11-12.89-21.79-23.76-.06-.19-.24-.32-.45-.32-11.9-.1-22.58.28-33.7-2.25-18.95-4.3-17.53-16.44-17.02-33.09.07-2.31,1.1-4.75,3.08-7.32.34-.45.53-1,.53-1.56-.01-6.55.15-13.51.48-20.88.55-12.41,1.42-26.46,2.61-42.14.14-1.78,1.68-3.11,3.46-2.99l1.33.09c1.61.11,2.83,1.51,2.72,3.12l-2.18,32.13c-.03.37.25.69.62.73,4.59.47,7.9.79,9.93.96,8.35.67,10.39,6.45,10.38,14.43,0,3.25,0,8.79.02,16.63,0,.22.17.4.39.42,2.77.22,7.15.75,13.16,1.58,3.59.5,6.73.4,11.19.42.37,0,.72-.16.97-.44,4.61-5.23,10.2-9.18,16.77-11.83,21.22-8.57,44.55-2.47,59.04,14.88ZM459.65,70.66v-.38c0-.05-.02-.1-.06-.13-13.62-12.71-24.64-23.09-33.07-31.15-4.91-4.69-9.87-9.33-14.89-13.9-1.59-1.45-3.38-2.14-5.39-2.07-8.37.28-23.11.43-44.2.46-.7,0-1.32.07-1.87.22-.45.12-.71.59-.59,1.03.04.16.14.31.27.42,6.97,5.81,13.06,11.43,18.25,16.88,2.95,3.1,5.64,5.71,8.05,7.83,5,4.4,9.03,9.48,14.21,13.71.47.38,3,2.67,7.59,6.86.81.75,1.87,1.16,2.98,1.16h47.78c.52,0,.94-.42.94-.94h0ZM417.14,78.52c4.28,2.67,9.32,4.56,19.45,9,6.78,2.96,13.42,6.32,19.93,10.07,2.02,1.17,7.48,2.93,10.71,3.36,6.1.83,10.71,1.58,13.82,2.27,3.89.86,8.38,1.36,13.45,1.5,15.17.41,25.84.6,32,.55,4.35-.03,10.43.45,14.96.46.26,0,.47-.21.47-.47,0-.14-.06-.27-.17-.36-5.3-4.51-11.15-7.86-17.55-10.05-10.26-3.51-16.88-5.79-19.87-6.82-1.73-.59-12.43-3.82-32.11-9.67-1.37-.41-2.74-.73-4.13-.96-.36-.06-.73-.07-1.1-.03-16.53,1.57-33.11,1.85-49.76.86-.09,0-.16.06-.17.15,0,.05.02.11.07.14ZM456.2,124.27c2.16,1.54,4.5,2.37,7.03,2.48,8.11.36,17.1.53,26.99.5.35,0,.64-.29.64-.64,0-.05,0-.11-.02-.16-1.49-5.99-4.45-11.39-8.89-16.22-.2-.21-.47-.35-.76-.38-9.32-1.05-18.73-1.47-28.22-1.28l-3.96-.14c-.5-.01-.91.38-.92.88,0,.1.01.2.04.29,1.79,5.51,4.48,10.4,8.07,14.67ZM493.3,111.57c-.13,0-.24.11-.24.24,0,.05.01.09.04.13l3.41,5.04c.04.07.12.11.2.11l33.6.68c.96.02,1.87-.45,2.43-1.24l1.63-2.34c.3-.44.2-1.04-.24-1.35-.15-.11-.34-.17-.52-.17l-40.31-1.1ZM544.92,111.87c-2.88.92-4.51,2.82-4.88,5.71-.44,3.43-.16,6.61.83,9.55.16.47.6.78,1.09.76l6.14-.21c.45-.02.8-.39.78-.83,0,0,0-.01,0-.02-.32-5.15-1.17-9.9-2.55-14.23-.19-.59-.81-.92-1.4-.73h0ZM29.33,135.41c-.38-7.77-.53-13.84-.44-18.23.04-2.19-.97-3.49-3.03-3.91-3.46-.72-6.79-1.03-9.98-.93-.38.01-.69.32-.7.7l-.59,21.74c0,.27.2.49.47.51l13.45.92c.43.02.8-.3.82-.73,0-.02,0-.05,0-.07ZM534.71,127.56l-2-3.46c-.44-.77-1.25-1.25-2.14-1.28-6.13-.19-11.88-.2-17.27-.02-2.79.09-5.01.07-6.66-.08-4.57-.4-6.87-.61-6.9-.62-.32-.09-.66.09-.76.41-.03.09-.03.19-.01.29l.84,4.19c.17.85.91,1.48,1.78,1.5l32.04.87c.66.02,1.22-.5,1.24-1.16,0-.22-.05-.45-.16-.64ZM60.64,164.97c-.98,19.28,15.33,35.77,36.41,36.84s38.97-13.69,39.95-32.97c.98-19.28-15.33-35.77-36.41-36.84s-38.97,13.69-39.95,32.97ZM356.31,164.94c-.94,19.31,15.57,35.8,36.88,36.85t0,0c21.31,1.04,39.36-13.76,40.3-33.07s-15.57-35.8-36.88-36.85h0c-21.31-1.04-39.36,13.76-40.3,33.07ZM11.09,152.43c-.63,6.98.64,13.53,7.51,16.85,3.69,1.78,8.41,2.77,14.16,2.97,8.29.28,14.69.69,19.21,1.23.33.04.63-.2.67-.53,0-.06,0-.12,0-.17-1.45-8.56-.34-16.76,3.33-24.61.69-.74,1.13-1.45,1.32-2.14.06-.21-.06-.43-.27-.49-.04-.01-.08-.02-.12-.02-3.64.13-7.28.02-10.93-.33-11.46-1.11-22.56-1.98-33.31-2.62-.68-.04-1.26.47-1.31,1.15,0,.01,0,.03,0,.04l-.25,8.67ZM348.75,177.45c.15.02.29-.09.31-.25,0-.02,0-.04,0-.06l-1.56-12.02c-.05-.39-.39-.67-.78-.65-11.19.59-23.82.77-37.89.54-15.31-.25-31.46-.24-41.4-.17-.46,0-.83.37-.83.83h0v10.41c0,.7.56,1.26,1.26,1.26.01,0,.02,0,.03,0,18.99-.41,33.04-.49,42.15-.26,7.73.2,14.2.22,19.4.05,8.33-.27,14.77-.16,19.31.32ZM145.59,165.59c.18,3.71-.12,7.23-.89,10.56-.06.28.11.56.39.62.03,0,.07.01.1.01,10.13.28,18.25.38,24.35.31,6.03-.07,10.33-.07,12.9,0,11.7.36,21.29-.36,32.21-.02,5.07.15,10.68.14,16.83-.04,8.1-.24,18.76.08,27.03-.04.55,0,.99-.45.99-1v-10.56c0-.3-.24-.54-.54-.54h-112.71c-.36,0-.66.29-.66.66,0,.01,0,.03,0,.04ZM537.19,165.49l-87.82-.42-6.46-.27c-.45-.02-.83.33-.85.78,0,.02,0,.05,0,.07.15,3.73-.18,7.43-1,11.08-.08.31.12.63.43.7.04.01.09.02.14.02,12.29.1,23.19-.18,35.8,0,16.79.24,35.31.22,55.56-.07,5.13-.07,8.71-.67,10.72-1.8,3.61-2.03,5.79-5.29,6.54-9.76.06-.35-.18-.69-.53-.75-.05,0-.09-.01-.14,0l-12.39.43ZM197.17,204.54h174.2c.18,0,.33-.15.33-.33,0-.12-.07-.23-.17-.29-8.35-4.41-14.79-10.77-19.31-19.07-.19-.33-.54-.54-.92-.54h-134.6c-.36,0-.66.25-.74.59-1.97,8.73-10.63,15.74-18.93,18.81-.22.09-.33.34-.24.56.06.16.21.27.38.27ZM121.41,204.45h39.36c.19,0,.34-.16.33-.35,0-.13-.08-.25-.2-.3-9.19-3.73-15.16-10.08-17.9-19.03-.13-.42-.57-.66-1-.54-.21.06-.38.21-.48.41-4.47,8.74-11.22,15.1-20.26,19.08-.19.08-.28.3-.2.5.06.14.2.23.35.23ZM175.48,190.29c4.41.39,7.91.21,10.5-.56,2.01-.59,4.16-1.82,6.44-3.68.39-.32.61-.58.67-.79.1-.37-.15-.75-.55-.84-.08-.02-.16-.02-.24-.02-9.52.46-18.17,1.21-26.81.09-.31-.03-.58.19-.62.5-.02.17.04.33.16.45,2.71,2.62,5.96,3.99,9.74,4.12.06,0,.11.02.16.05.11.08.18.18.19.31.02.2.17.35.36.37ZM476.17,203.81c-9.3-2.98-15.51-9.2-18.63-18.67-.09-.27-.34-.46-.63-.46h-18.38c-.39,0-.75.24-.89.61-3.36,8.31-11.77,15.13-19.61,18.56-.18.07-.26.28-.18.46.06.13.19.22.33.22h57.87c.2,0,.37-.17.37-.37,0-.16-.1-.3-.25-.35ZM493.63,190.76c5.22-.03,10.17-1.58,13.91-4.81.24-.21.26-.57.06-.8-.05-.06-.12-.11-.2-.15-.43-.19-.9-.27-1.42-.26-4.2.14-8.33.22-12.38.24-4.06.03-8.19,0-12.39-.1-.52,0-.99.09-1.42.28-.28.14-.4.48-.27.76.03.07.09.14.15.19,3.77,3.19,8.74,4.68,13.96,4.65Z"/>
      <path class="cls-1" d="M265.99,74.04c-.01,4.53-4.91,7.69-9.17,7.73-12.65.13-80.76.19-204.34.18-6.22,0-10.99.5-15.65-2.65-4.55-3.07-4.98-7.24-4.33-13.05,1.8-16.14,3.18-27.29,4.15-33.45,1.91-12.25,11.8-14.68,22.59-14.53,12.14.17,24.55.2,37.24.08,17.22-.15,31.47.27,48.34-.06,4.09-.08,10.53-.1,19.32-.07,44.77.16,75.22.22,91.34.17,5.02,0,10.47,2.3,10.56,8.05.03,2.23.02,18.09-.05,47.6ZM136.46,25.76c0-.24-.19-.43-.43-.44-19.68-.36-33.55.05-53.72-.09-3.56-.03-12.51.01-26.84.12-5.06.04-10.37,2.54-10.96,7.7-.34,2.98-.89,5.1-1.21,8.07-1.01,9.45-2.19,19.03-3.53,28.74-.46,3.34,3.77,4.89,6.46,4.73,9.23-.51,17.03-.22,25.46-.29,12.24-.1,19.28-.4,28.72-.04,10.6.39,22.2.45,34.81.16.69-.02,1.24-.58,1.24-1.27V25.76ZM143.97,73.69c0,.29.24.53.54.54,10.57.18,17.89.24,21.97.19,17.43-.23,43.68-.25,78.75-.05.81,0,3.62-.08,8.43-.26,3.14-.12,4.44-1.8,4.42-4.75-.08-12.24-.01-24.99.2-38.24.03-1.96,0-3.28-.08-3.95-.14-1.1-1.07-1.92-2.18-1.92h-111.06c-.55,0-.99.44-.99.99h0v47.45Z"/>
      <path class="cls-1" d="M383.76,73.62c3.87,4.17-1.27,8.48-5.54,8.46-37.84-.23-66.72-.28-86.63-.16-4.4.03-7.39-.43-8.96-1.36-2.62-1.55-3.92-4.19-3.89-7.92.09-13.71.04-26.78-.15-39.19-.09-5.45.33-8.94,1.25-10.49,1.82-3.06,4.89-4.62,9.2-4.67,11.31-.15,21.53-.16,30.68-.04,7.41.1,11.89,3.32,17.72,8.86,17.9,17.01,33.34,32.52,46.32,46.51ZM329.44,73.82c-.78-2.61-.98-5.43-.6-8.48,1.67-13.51,15.22-11.59,25.03-10.81.26.02.49-.18.51-.45,0-.14-.05-.29-.15-.38-1.93-1.75-3.4-3.77-5.42-5.7-6.85-6.53-13.76-12.94-20.73-19.22-2.57-2.31-5.26-3.46-8.09-3.47-15.87-.03-25.87-.17-30-.42-1.78-.11-3.15.91-4.11,3.05-.04.08-.06.17-.05.26l.71,44.62c.01.65.4,1.24,1,1.5,1.59.7,3.2.39,4.8.35,12-.36,24.21-.44,36.64-.23.27,0,.48-.21.48-.48,0-.05,0-.1-.02-.14ZM336.93,68.64c-.32,2.67.57,4.52,2.67,5.53.19.09.4.14.61.14h33.17c.17,0,.31-.15.3-.32,0-.07-.03-.14-.07-.19l-.91-1-10.83-10.89c-.29-.29-.69-.46-1.11-.46-5.93-.03-11.93-.04-18.02-.05-4.08,0-6.17,3.57-5.81,7.24Z"/>
      <path class="cls-2" d="M459.65,70.66c0,.52-.42.94-.94.94h-47.78c-1.11,0-2.17-.41-2.98-1.16-4.59-4.19-7.12-6.48-7.59-6.86-5.18-4.23-9.21-9.31-14.21-13.71-2.41-2.12-5.1-4.73-8.05-7.83-5.19-5.45-11.28-11.07-18.25-16.88-.35-.3-.4-.83-.1-1.18.11-.13.25-.22.42-.27.55-.15,1.17-.22,1.87-.22,21.09-.03,35.83-.18,44.2-.46,2.01-.07,3.8.62,5.39,2.07,5.02,4.57,9.98,9.21,14.89,13.9,8.43,8.06,19.45,18.44,33.07,31.15.04.03.06.08.06.13v.38Z"/>
      <path class="cls-2" d="M329.44,73.82c.08.25-.07.52-.32.6-.05.01-.09.02-.14.02-12.43-.21-24.64-.13-36.64.23-1.6.04-3.21.35-4.8-.35-.6-.26-.99-.85-1-1.5l-.71-44.62c0-.09.01-.18.05-.26.96-2.14,2.33-3.16,4.11-3.05,4.13.25,14.13.39,30,.42,2.83,0,5.52,1.16,8.09,3.47,6.97,6.28,13.88,12.69,20.73,19.22,2.02,1.93,3.49,3.95,5.42,5.7.19.18.2.48.02.68-.1.11-.24.16-.38.15-9.81-.78-23.36-2.7-25.03,10.81-.38,3.05-.18,5.87.6,8.48Z"/>
      <path class="cls-2" d="M136.46,25.76v47.39c0,.69-.55,1.25-1.24,1.27-12.61.29-24.21.23-34.81-.16-9.44-.36-16.48-.06-28.72.04-8.43.07-16.23-.22-25.46.29-2.69.16-6.92-1.39-6.46-4.73,1.34-9.71,2.52-19.29,3.53-28.74.32-2.97.87-5.09,1.21-8.07.59-5.16,5.9-7.66,10.96-7.7,14.33-.11,23.28-.15,26.84-.12,20.17.14,34.04-.27,53.72.09.24,0,.43.2.43.44Z"/>
      <path class="cls-2" d="M143.97,73.69V26.24c0-.55.44-.99.99-.99h111.06c1.11,0,2.04.82,2.18,1.92.09.67.11,1.99.08,3.95-.21,13.25-.28,26-.2,38.24.02,2.95-1.28,4.63-4.42,4.75-4.81.18-7.62.27-8.43.26-35.07-.2-61.32-.18-78.75.05-4.08.05-11.4-.01-21.97-.19-.3,0-.54-.25-.54-.54Z"/>
      <rect class="cls-1" x="9.67" y="54.02" width="9.68" height="6.88" rx="2.99" ry="2.99" transform="translate(-44.04 66.6) rotate(-84.7)"/>
      <path class="cls-2" d="M336.93,68.64c2.74,1.09,5.21,1.65,7.42,1.7,10.17.2,16.93.2,25.54,2.74.43.13,1.36.03,2.81-.28l.91,1c.11.13.09.33-.04.44-.05.05-.12.07-.19.07h-33.17c-.21,0-.42-.05-.61-.14-2.1-1.01-2.99-2.86-2.67-5.53Z"/>
      <rect class="cls-1" x="220.07" y="93.53" width="27.22" height="5.64" rx="2.75" ry="2.75" transform="translate(-.33 .82) rotate(-.2)"/>
      <rect class="cls-1" x="283.34" y="93.55" width="27.64" height="5.64" rx="2.76" ry="2.76" transform="translate(-.17 .52) rotate(-.1)"/>
      <path class="cls-2" d="M452.97,108.57c.81,2.75,2.3,5.65,4.47,8.7,1.75,2.47,1.33,4.8-1.24,7-3.59-4.27-6.28-9.16-8.07-14.67-.15-.47.11-.98.59-1.13.09-.03.19-.04.29-.04l3.96.14Z"/>
      <path class="cls-2" d="M493.3,111.57l40.31,1.1c.53.01.95.45.93.99,0,.19-.07.37-.17.53l-1.63,2.34c-.56.79-1.47,1.26-2.43,1.24l-33.6-.68c-.08,0-.16-.04-.2-.11l-3.41-5.04c-.07-.11-.04-.26.07-.33.04-.02.08-.04.13-.04Z"/>
      <path class="cls-2" d="M28.51,136.21l-13.45-.92c-.27-.02-.48-.24-.47-.51l.59-21.74c.01-.38.32-.69.7-.7,3.19-.1,6.52.21,9.98.93,2.06.42,3.07,1.72,3.03,3.91-.09,4.39.06,10.46.44,18.23.02.42-.32.78-.75.8-.02,0-.05,0-.07,0Z"/>
      <path class="cls-2" d="M534.71,127.56c.33.57.14,1.31-.44,1.64-.19.11-.42.17-.64.16l-32.04-.87c-.87-.02-1.61-.65-1.78-1.5l-.84-4.19c-.06-.33.15-.65.48-.71.09-.02.19-.01.29.01.03.01,2.33.22,6.9.62,1.65.15,3.87.17,6.66.08,5.39-.18,11.14-.17,17.27.02.89.03,1.7.51,2.14,1.28l2,3.46Z"/>
      <path class="cls-2" d="M60.64,164.97c.98-19.28,18.86-34.04,39.95-32.97s37.39,17.56,36.41,36.84c-.98,19.28-18.86,34.04-39.95,32.97s-37.39-17.56-36.41-36.84ZM73.38,166.08c-.63,12.97,10.2,24.04,24.19,24.72,13.99.68,25.85-9.27,26.49-22.24h0c.63-12.97-10.2-24.04-24.19-24.72-13.99-.68-25.85,9.27-26.49,22.24h0Z"/>
      <path class="cls-2" d="M356.31,164.94c.94-19.31,18.99-34.11,40.3-33.07,21.31,1.04,37.83,17.54,36.88,36.85t0,0c-.94,19.31-18.99,34.11-40.3,33.07-21.31-1.04-37.83-17.54-36.88-36.85h0ZM369.42,164.92c-1.18,12.96,9.33,24.52,23.48,25.8h0c14.15,1.29,26.57-8.18,27.75-21.14,1.18-12.96-9.33-24.52-23.48-25.8h0c-14.15-1.29-26.57,8.18-27.75,21.14Z"/>
      <path class="cls-2" d="M550.67,140.83l.12,17.17c0,.38-.31.69-.69.69h-107.9c-.37,0-.7-.24-.82-.59l-3.94-11.8,10.9,6.67c.82.51,1.75.82,2.72.91,11.03,1.1,22.14.79,33.31-.94,6.56-1.01,10.99-1.67,13.29-1.96,6.7-.85,13.37-1.69,20.01-2.54.15,1.93,1.14,3.16,2.98,3.68.22.06.44.09.67.09,6.36.03,12.74.03,19.13-.02,1.55-.01,2.69-.98,3.43-2.9.12-.31.11-.65-.03-.95-.8-1.7-2.17-2.57-4.12-2.61-7.05-.13-13.82,0-20.32.42,1.99-2.56,4.94-3.93,8.87-4.12,7.45-.35,14.91-.75,22.39-1.2Z"/>
      <path class="cls-2" d="M259.4,152.57l.22,4.93c0,.22-.16.39-.38.4,0,0,0,0-.01,0h-113.91c-.33,0-.63-.22-.73-.54-1.6-5.17-3.82-10.09-6.67-14.75,2.79.91,5.32,2.33,7.59,4.26.57.49,2.53,1.17,5.88,2.05,14,3.7,28.98,3.42,45.41,3.35,1.75,0,7.69.09,17.84.28,9.09.17,17.58-.12,26.32.17,5.35.18,12.27-.4,18.44-.15Z"/>
      <path class="cls-2" d="M354.8,142.53c-2.88,5.33-4.94,10.24-6.19,14.74-.11.39-.46.66-.87.66h-80.48c-.32,0-.58-.25-.59-.57l-.17-6.1c3.74,1.04,8.98,1.6,15.73,1.69,14.66.19,28.24.12,40.73-.19,4.09-.1,8.42-.52,12.99-1.27.72-.12,1.42-.35,2.08-.67l16.77-8.29Z"/>
      <path class="cls-1" d="M369.42,164.92c1.18-12.96,13.6-22.43,27.75-21.14,14.15,1.29,24.66,12.84,23.48,25.8h0c-1.18,12.96-13.6,22.43-27.75,21.14-14.15-1.29-24.66-12.84-23.48-25.8h0ZM377.79,166.46c-.35,8.71,7.04,16.09,16.51,16.47h0c9.47.38,17.43-6.38,17.78-15.09h0c.35-8.71-7.04-16.09-16.51-16.47h0c-9.47-.38-17.43,6.38-17.78,15.09h0Z"/>
      <path class="cls-1" d="M73.38,166.08c.63-12.97,12.49-22.93,26.49-22.24h0c13.99.68,24.83,11.75,24.19,24.72-.63,12.97-12.49,22.93-26.49,22.24h0c-13.99-.68-24.83-11.75-24.19-24.72ZM81.95,165.43c-.91,8.68,5.88,16.51,15.16,17.49h0c9.29.98,17.56-5.27,18.47-13.96h0c.91-8.68-5.88-16.51-15.16-17.49h0c-9.29-.98-17.56,5.27-18.47,13.96Z"/>
      <path class="cls-1" d="M517.67,148.44l1.74-2.29c6.5-.41,13.27-.55,20.32-.42,1.95.04,3.32.91,4.12,2.61.14.3.15.64.03.95-.74,1.92-1.88,2.89-3.43,2.9-6.39.05-12.77.05-19.13.02-.23,0-.45-.03-.67-.09-1.84-.52-2.83-1.75-2.98-3.68Z"/>
      <path class="cls-2" d="M55.96,148.17c-3.67,7.85-4.78,16.05-3.33,24.61.06.33-.16.64-.49.69-.06.01-.12.01-.17,0-4.52-.54-10.92-.95-19.21-1.23-5.75-.2-10.47-1.19-14.16-2.97-6.87-3.32-8.14-9.87-7.51-16.85,3.03.65,5.98,1.63,8.84,2.95,6.71,3.11,14.3,6.93,21.77,6.6,1.83-.08,3.32-1.93,4.11-3.77,1.39-3.23,3.38-6.24,5.99-9.04.99-1.06,2.37-1.39,4.16-1Z"/>
      <path class="cls-2" d="M348.75,177.45c-4.54-.48-10.98-.59-19.31-.32-5.2.17-11.67.15-19.4-.05-9.11-.23-23.16-.15-42.15.26-.7.02-1.27-.53-1.29-1.23,0-.01,0-.02,0-.03v-10.41c0-.46.37-.83.83-.83h0c9.94-.07,26.09-.08,41.4.17,14.07.23,26.7.05,37.89-.54.39-.02.73.26.78.65l1.56,12.02c.02.15-.09.29-.25.31-.02,0-.04,0-.06,0Z"/>
      <path class="cls-2" d="M146.25,164.89h112.71c.3,0,.54.24.54.54v10.56c0,.55-.44.99-.99,1-8.27.12-18.93-.2-27.03.04-6.15.18-11.76.19-16.83.04-10.92-.34-20.51.38-32.21.02-2.57-.07-6.87-.07-12.9,0-6.1.07-14.22-.03-24.35-.31-.28,0-.51-.24-.5-.53,0-.04,0-.07.01-.1.77-3.33,1.07-6.85.89-10.56-.02-.36.26-.68.62-.7.01,0,.03,0,.04,0Z"/>
      <path class="cls-2" d="M449.37,165.07c-.77,2.05-.43,3.94,1.02,5.66.32.37.75.61,1.23.68,2.82.43,5.45.62,7.9.59,12.95-.17,23.39.45,38.51.38,6.54-.03,12.68-.45,18.41-1.27,6.37-.91,14.78-2.05,25.22-3.41.58-.07.98-.59.91-1.17-.02-.19-.1-.38-.22-.53-.02-.03-.22-.05-.6-.08-1.53-.12-3.05-.26-4.56-.43l12.39-.43c.36-.02.66.26.68.62,0,.05,0,.09,0,.14-.75,4.47-2.93,7.73-6.54,9.76-2.01,1.13-5.59,1.73-10.72,1.8-20.25.29-38.77.31-55.56.07-12.61-.18-23.51.1-35.8,0-.33,0-.59-.27-.59-.59,0-.05,0-.09.02-.13.82-3.65,1.15-7.35,1-11.08-.02-.45.33-.83.78-.85.02,0,.05,0,.07,0l6.46.27Z"/>
      <path class="cls-2" d="M175.12,189.92c-.01-.13-.08-.23-.19-.31-.05-.03-.1-.05-.16-.05-3.78-.13-7.03-1.5-9.74-4.12-.22-.22-.21-.57,0-.79.12-.12.29-.18.45-.16,8.64,1.12,17.29.37,26.81-.09.41-.03.77.26.81.64,0,.07,0,.15-.02.22-.06.21-.28.47-.67.79-2.28,1.86-4.43,3.09-6.44,3.68-2.59.77-6.09.95-10.5.56-.19-.02-.34-.17-.36-.37Z"/>
      <path class="cls-2" d="M493.6,184.98c4.05-.02,8.18-.1,12.38-.24.52-.01.99.07,1.42.26.29.13.42.47.29.75-.03.08-.08.14-.15.2-3.74,3.23-8.69,4.78-13.91,4.81-5.22.03-10.19-1.46-13.96-4.65-.24-.2-.27-.56-.07-.8.05-.06.12-.11.19-.15.43-.19.9-.29,1.42-.28,4.2.09,8.33.13,12.39.1Z"/>
    </g>
  </g>
</svg>