<?xml version="1.0" encoding="UTF-8"?>
<svg id="Capa_2" data-name="Capa 2" xmlns="http://www.w3.org/2000/svg" viewBox="0 0 1096.15 361.39">
  <defs>
    <style>
      .cls-1 {
        fill: #191919;
      }
    </style>
  </defs>
  <g id="Capa_1-2" data-name="Capa 1">
    <g>
      <g>
        <path class="cls-1" d="M400.25,292.41c8.45-14.92,12.67-32.1,12.67-51.53s-4.08-37.03-12.39-51.39c-8.31-14.36-19.85-25.34-34.91-32.94-14.92-7.6-32.38-11.4-52.37-11.4s-36.6,4.08-51.81,12.39c-15.2,8.31-26.89,19.85-35.48,34.91-8.45,14.92-12.67,32.1-12.67,51.53s4.08,37.03,12.39,51.39,19.85,25.34,34.91,32.94c14.92,7.6,32.38,11.4,52.37,11.4s36.6-4.08,51.81-12.39,26.89-19.85,35.48-34.91ZM352.1,290.3c-3.52,14.08-8.59,25.06-15.2,32.94-6.62,7.88-14.22,11.83-22.81,11.83s-15.91-3.8-22.67-11.4c-6.9-7.6-12.39-18.3-16.33-32.24-4.08-13.94-6.05-29.99-6.05-48.43s1.69-34.21,5.35-48.43c3.52-14.08,8.59-25.06,15.2-32.94,6.62-7.88,14.22-11.83,22.81-11.83s15.91,3.8,22.67,11.4c6.9,7.6,12.39,18.3,16.33,32.24,4.08,13.94,6.05,29.99,6.05,48.43s-1.83,34.21-5.35,48.43Z"/>
        <path class="cls-1" d="M508.94,335.63c3.52,0,7.88.28,12.95.28,25.34,0,44.91-4.22,58.71-12.67,13.8-8.45,20.55-21.26,20.55-38.57s-2.53-14.78-7.6-21.54c-5.07-6.76-13.23-12.53-24.5-17.04-11.12-4.65-25.48-7.32-42.66-8.17v-.56c13.23-1.55,24.36-4.79,33.51-9.71,9.15-4.93,16.05-10.7,20.55-17.32,4.65-6.62,6.9-13.23,6.9-19.71,0-12.67-6.05-22.81-18.3-30.27-12.25-7.46-29.99-11.26-53.22-11.26s-8.59,0-12.11.28l-30.41.28c-20.27,0-35.48-.28-45.47-.84v5.35c5.63.42,9.71,1.13,12.11,2.11,2.53,1.13,4.22,3.1,5.21,6.05s1.41,7.88,1.41,14.5v131.07c0,6.76-.42,11.54-1.27,14.5-.84,2.96-2.53,5.07-5.21,6.05-2.53,1.13-6.62,1.83-12.25,2.11v5.35c10-.56,25.34-.84,46.04-.84s23.23,0,35.2.56h-.14ZM500.21,176.82c0-6.34.28-11.12,1.13-14.22.7-3.24,2.11-5.35,4.08-6.62s5.07-1.83,9.15-1.83c6.48,0,11.26,3.24,14.08,9.71,2.96,6.48,4.36,16.33,4.36,29.71s-1.83,23.51-5.63,31.25c-3.8,7.88-10.42,11.83-19.99,11.83h-7.18v-59.69h0v-.14ZM500.21,241.02h3.66c14.5,0,25.06,3.66,31.68,10.84,6.76,7.18,10,17.74,10,31.68,0,30.83-9.43,46.32-28.3,46.32s-8.59-.56-10.98-1.69-3.94-3.24-4.93-6.19c-.84-2.96-1.27-7.6-1.27-13.94v-66.87h.14v-.14Z"/>
        <path class="cls-1" d="M766.85,335.91c-1.27-12.39-1.83-28.02-1.83-47.02s.28-18.02.84-24.36h-6.05c-1.97,10.98-5.77,21.4-11.69,31.54-5.77,10.14-12.39,18.3-19.57,24.5-7.18,6.19-13.94,9.29-20.13,9.29h-8.73c-4.08,0-6.9-.42-8.73-1.13-1.83-.84-2.96-2.39-3.66-4.65s-1.13-5.91-1.13-10.84v-136.42c0-6.76.56-11.54,1.55-14.5,1.13-2.96,3.1-5.07,5.91-6.05,2.96-1.13,7.46-1.69,13.94-2.11v-5.35c-10.98.56-26.47.84-46.74.84s-37.03-.28-47.02-.84v5.35c5.63.42,9.71,1.13,12.11,2.11,2.53,1.13,4.22,3.1,5.21,6.05s1.41,7.88,1.41,14.5v131.07c0,6.76-.42,11.54-1.27,14.5-.84,2.96-2.53,5.07-5.21,6.05-2.53,1.13-6.62,1.83-12.25,2.11v5.35c20.41-.56,51.25-.84,92.5-.84s48.57.28,60.54.84h0Z"/>
        <path class="cls-1" d="M932.27,335.91c-1.27-11.69-1.83-26.47-1.83-44.35s.28-18.02.84-24.36h-6.05c-3.94,21.82-10.42,37.73-19.57,47.73s-18.86,14.92-29,14.92h-8.73c-4.79,0-8.31-.42-10.42-1.13-2.25-.84-3.66-2.25-4.51-4.51-.84-2.25-1.13-5.91-1.13-10.98v-68.7h2.67c9.71,0,17.88,3.24,24.5,9.85s10.7,14.92,12.25,24.92h6.05c-1.13-16.05-1.55-28.58-1.55-37.59v-12.67c0-9.15.28-17.46.84-24.78h-6.05c-1.83,8.87-5.91,16.89-12.39,24.07-6.48,7.18-14.36,10.84-23.51,10.84h-2.67v-67.72c0-5.07.42-8.73,1.13-10.98.84-2.25,2.25-3.66,4.51-4.51,2.25-.84,5.63-1.13,10.42-1.13h3.38c11.97,0,22.24,4.51,30.97,13.37,8.59,8.87,14.5,23.51,17.74,44.07h6.05c-.56-4.65-.84-10.98-.84-19.01,0-13.09.56-27.88,1.83-44.35-10.98.56-29.28.84-55.19.84-41.25,0-72.08-.28-92.5-.84v5.35c5.63.42,9.71,1.13,12.11,2.11,2.53,1.13,4.22,3.1,5.21,6.05s1.41,7.88,1.41,14.5v131.07c0,6.76-.42,11.54-1.27,14.5-.84,2.96-2.53,5.07-5.21,6.05-2.53,1.13-6.62,1.83-12.25,2.11v5.35c20.41-.56,51.25-.84,92.5-.84s48.57.28,60.54.84h-.28v-.14Z"/>
        <path class="cls-1" d="M1024.2,339.71c13.23,0,25.34-1.97,36.18-5.77,10.98-3.94,19.57-9.71,26.05-17.6,6.48-7.88,9.71-17.46,9.71-29s-1.83-16.89-5.35-23.79c-3.66-6.9-8.31-12.95-14.08-18.16s-13.52-11.12-23.23-17.88c-.84-.7-1.83-1.41-2.82-2.11s-1.97-1.27-3.1-1.83c-11.69-8.17-19.99-14.22-25.06-18.3s-9.01-8.45-11.69-12.81c-2.67-4.36-3.94-9.57-3.94-15.63s2.53-13.8,7.46-18.16,11.4-6.48,19.57-6.48,16.61,2.96,23.23,8.73c6.76,5.77,11.97,13.37,15.91,22.53s6.19,18.72,6.9,28.86h6.05c0-30.27.42-51.81,1.27-64.48h-6.05c-.56,4.08-1.27,7.04-2.11,8.87s-2.11,2.82-3.66,2.82-2.39-.28-3.8-1.13c-1.55-.7-3.24-1.55-5.21-2.67-6.05-3.38-12.11-5.91-18.3-7.74-6.19-1.83-14.36-2.82-24.5-2.82s-22.67,1.83-32.66,5.35c-10,3.66-17.88,9.15-23.93,16.61-6.05,7.46-9.01,16.75-9.01,27.88s1.97,17.18,6.05,24.21c4.08,6.9,9.29,13.09,15.63,18.3,6.34,5.35,14.78,11.4,25.34,18.44,13.23,8.87,22.95,16.75,29.14,23.93s9.43,15.77,9.43,25.76-2.82,14.5-8.59,19.01c-5.77,4.65-13.37,6.9-23.09,6.9-15.63,0-27.31-6.48-34.91-19.57-7.6-13.09-11.97-29.99-13.23-50.96h-6.05c0,39.14-.42,64.62-1.13,76.59h6.05c.56-4.08,1.27-7.04,2.11-8.87s2.11-2.82,3.66-2.82,5.07,1.27,9.01,3.66c6.19,2.96,12.81,5.35,19.99,7.18,7.18,1.83,16.05,2.67,26.89,2.67v.28h-.14Z"/>
        <path class="cls-1" d="M200.76,334.36c-6.05,0-10.7-2.39-14.08-7.04s-6.19-13.23-8.59-25.62l-10.56-52.09c-3.94-20.41-14.64-35.9-32.1-46.32-17.32-10.56-43.08-16.89-77.15-19.29,44.07-3.94,75.6-14.92,94.18-32.52,18.72-17.74,28.02-39.14,28.02-64.2s-12.39-51.25-37.31-65.75C118.26,7.18,80.39,0,29.56,0S13.23,0,6.48.56H0v9.01h27.03c4.79,0,14.92.28,24.36,6.76,5.07,3.38,9.01,7.88,12.53,14.36,7.46,14.08,11.26,34.77,11.26,62.23s-4.36,46.88-13.09,61.38c-8.73,14.5-24.92,21.82-48.57,21.82H0v10h22.53c11.69,0,20.41,6.05,26.33,18.02,5.91,11.97,10.42,29.71,13.8,53.08l7.46,50.12c2.96,19.71,10.84,33.65,23.51,41.81,12.67,8.17,30.55,12.25,53.64,12.25s30.13-1.97,42.09-6.05c11.97-3.94,23.09-10.98,33.08-21.12l-6.48-6.48c-4.36,4.36-9.57,6.48-15.49,6.48h.28v.14Z"/>
      </g>
      <g>
        <path class="cls-1" d="M279.46,5.91c-4.22.28-7.18.7-9.15,1.41s-3.24,1.97-3.94,3.94-.99,5.21-.99,9.57v89.54c0,3.24.28,5.63.7,7.18s1.27,2.53,2.39,3.1,3.1.84,5.77.84h5.77c4.08,0,8.45-1.97,13.23-6.05s9.01-9.43,12.81-16.05c3.8-6.62,6.34-13.52,7.6-20.7h3.94c-.28,4.22-.56,9.43-.56,15.91,0,12.53.42,22.81,1.27,30.83-7.88-.28-21.12-.56-39.7-.56-27.03,0-47.3,0-60.68.56v-3.52c3.66-.28,6.34-.7,8.02-1.41s2.82-1.97,3.38-3.94.84-5.21.84-9.57V20.98c0-4.36-.28-7.6-.99-9.57s-1.83-3.24-3.38-3.94c-1.69-.7-4.22-1.13-8.02-1.41v-3.52c6.62.28,16.89.56,30.83.56s23.51,0,30.69-.56v3.52h0l.14-.14Z"/>
        <path class="cls-1" d="M427.7,7.46c9.85,4.93,17.46,12.11,22.95,21.54,5.49,9.43,8.17,20.7,8.17,33.79s-2.82,23.93-8.31,33.79-13.23,17.46-23.23,22.95-21.26,8.17-33.93,8.17-24.5-2.53-34.35-7.46c-9.85-4.93-17.46-12.11-22.95-21.54-5.49-9.43-8.17-20.7-8.17-33.79s2.82-23.93,8.31-33.79,13.23-17.46,23.23-22.95S380.68,0,393.35,0s24.5,2.53,34.35,7.46ZM377.72,10.84c-4.36,5.21-7.6,12.39-10,21.54-2.25,9.29-3.52,19.85-3.52,31.68s1.27,22.67,3.94,31.68c2.67,9.15,6.19,16.19,10.7,21.12s9.43,7.46,14.92,7.46,10.7-2.53,15.06-7.74,7.6-12.39,10-21.54c2.25-9.29,3.52-19.85,3.52-31.68s-1.27-22.67-3.94-31.68c-2.67-9.15-6.19-16.19-10.7-21.12s-9.43-7.46-14.92-7.46-10.7,2.53-15.06,7.74Z"/>
        <path class="cls-1" d="M533.43,1.83c4.08,1.27,8.17,2.96,12.11,5.07,1.27.7,2.39,1.27,3.38,1.69s1.83.7,2.53.7,1.83-.56,2.39-1.83.99-3.1,1.41-5.77h3.94c-.56,8.31-.84,22.38-.84,42.38h-3.94c-.42-6.62-1.97-12.95-4.51-18.86-2.53-6.05-6.05-10.98-10.42-14.78-4.36-3.8-9.43-5.77-15.2-5.77s-9.57,1.41-12.81,4.22-4.79,6.76-4.79,11.83.84,7.32,2.53,10.28,4.22,5.63,7.6,8.45c3.38,2.67,8.87,6.76,16.47,12.11.7.28,1.41.7,1.97,1.27.7.42,1.27.99,1.83,1.41,6.34,4.36,11.4,8.31,15.2,11.69s6.9,7.32,9.29,11.83c2.39,4.51,3.52,9.71,3.52,15.63s-2.11,13.8-6.34,19.01-9.85,9.01-17.04,11.54c-7.18,2.53-15.06,3.8-23.79,3.8s-12.95-.56-17.6-1.69-9.01-2.67-13.09-4.65c-2.53-1.55-4.51-2.39-5.91-2.39s-1.83.56-2.39,1.83-.99,3.1-1.41,5.77h-3.94c.42-7.88.7-24.64.7-50.26h3.94c.84,13.8,3.66,24.92,8.73,33.51,4.93,8.59,12.67,12.81,22.95,12.81s11.4-1.55,15.2-4.51,5.63-7.18,5.63-12.53-2.11-12.25-6.19-16.89-10.56-9.85-19.15-15.63c-6.9-4.65-12.53-8.73-16.61-12.11-4.22-3.52-7.6-7.46-10.28-12.11-2.67-4.51-3.94-9.85-3.94-15.91s1.97-13.37,5.91-18.3,9.15-8.59,15.63-10.98,13.66-3.52,21.4-3.52,11.97.56,16.05,1.83h0l-.14-.14Z"/>
      </g>
    </g>
  </g>
</svg>