<?xml version="1.0" encoding="UTF-8"?>
<svg id="Capa_2" data-name="Capa 2" xmlns="http://www.w3.org/2000/svg" viewBox="0 0 623.83 277.19">
  <defs>
    <style>
      .cls-1 {
        fill: #c46a2d;
      }

      .cls-2 {
        fill: #d6a27d;
      }
    </style>
  </defs>
  <g id="Capa_1-2" data-name="Capa 1">
    <g>
      <path class="cls-1" d="M601.11,267.09c-.08.19,0,.42.19.5.05.02.1.03.15.03h18.11c2.36,0,4.27,1.91,4.27,4.26,0,.11,0,.21-.01.32l-.03.44c-.19,2.57-2.33,4.55-4.9,4.55H4.85c-2.49,0-4.57-1.9-4.79-4.38l-.04-.47c-.21-2.36,1.53-4.44,3.89-4.65.13-.01.25-.02.38-.02h11.73c.33,0,.59-.26.59-.59,0-.08-.01-.15-.04-.22l-4.85-12.14c-.15-.36-.35-.7-.61-.99l-1.75-1.99c-.49-.55-.84-1.22-1-1.94-.9-3.99-2.52-8.41-4.85-13.28-1.91-4-2.83-6.86-2.76-8.57.13-3.35,1.42-5.97,3.89-7.86,5.08-3.88,13.76-9.57,19.67-4.84,2.74,2.2,4.59,7.83,6.21,11.62.09.21.34.31.55.21.07-.03.12-.07.17-.13,2.65-3.5,6.81-7.43,10.06-11.38,13.59-16.54,24.27-30.39,32.06-41.56,1.71-2.46,5.78-8.3,12.19-17.53,17.35-24.93,34.11-50.76,50.29-77.48,6.67-11.02,10.14-16.73,10.41-17.14,3.87-5.98,6.32-11.22,9.97-16.43,3.17-4.52,6.2-10.87,8.86-14.84,1.72-2.57,3.36-5.31,4.93-8.23,1.09-2.02,3.46-6.11,7.1-12.26,2.14-3.61,4-5.89,5.57-6.82,5.09-3.05,9.42-3.81,15.99-2.75,9.83,1.59,20.7,2.96,32.62,4.11,38.37,3.71,71.99,5.33,106.75,4.01,5.74-.21,17.22-.91,34.43-2.1,9.68-.67,20.91-2.62,28.18-3.11,7.34-.51,14.14-2.15,22.38-3.22,10.16-1.33,16.78,3.45,20.97,12.48,1.97,4.26,5.26,11.28,8.11,16.93,5.56,10.97,11.49,22.59,17.79,34.85,3.6,7,6.23,11.87,7.9,14.62,1.56,2.57,4.2,7.37,7.93,14.4,3.23,6.1,11.94,20.97,26.11,44.6,1.28,2.14,3.67,5.25,5.11,7.86,3.58,6.49,8.31,12.89,11.71,18.51,2.11,3.48,7.14,11.29,15.1,23.43.32.49.69.94,1.12,1.35,8.93,8.53,13.13,13.13,20.44,19.03,4.9,3.95,12.94,11.84,21.45,17.63.23.16.55.1.7-.13,0,0,.01-.02.02-.03,1.53-2.61,2.71-4.82,3.53-6.61,1.59-3.52,2.84-5.67,3.75-6.45,5.9-5.09,14.38-.08,19.98,3.99,2.72,1.97,4.26,4.55,4.63,7.76.19,1.73-.53,4.15-2.16,7.26-1.87,3.54-4.68,9.54-6.03,14.84-.16.67-.46,1.31-.88,1.87l-1.96,2.63c-.23.31-.42.63-.57.98l-6.67,15.07ZM194.34,9.77c-.22-.03-.42.13-.45.34-.01.08,0,.17.05.24,3.58,6.63,5.37,10.93,9.06,16.61,3.16,4.89,6.21,11.84,9.56,17.76,17.89,31.59,30.74,53.46,38.54,65.63,5.1,7.95,8.14,12.75,9.13,14.41,5.76,9.71,10.14,15.5,16,24.94.84,1.35,3.15,4.77,6.94,10.28,4.86,7.09,9.57,13.85,14.13,20.3,3.75,5.31,6.48,9.05,8.18,11.24,5.14,6.59,8.14,10.99,12.59,16.05,1.2,1.37,2.55,3.06,4.05,5.08,4.41,5.93,9.53,12.06,15.36,18.39.67.72,1.61,1.12,2.6,1.09l10.65-.34c.33-.01.65-.16.87-.42.19-.22.41-.55.66-.98,2.92-4.98,8.9-5.73,13.84-3.53,1.63.73,3.58,1.85,5.83,3.38.82.56,1.8.84,2.79.81l180.94-5.86c.44-.01.78-.38.76-.82,0-.13-.04-.25-.1-.36-1.89-3.28-4.64-8.1-7.48-12.13-2.65-3.76-4.79-6.87-6.43-9.33-9.29-13.88-17.65-26.58-25.08-38.11-19.46-30.2-38.15-62.2-56.07-96.01-9.07-17.1-17.33-34.51-26.53-52.92-2.14-4.28-4.4-6.68-9.23-5.95-5.93.89-11.15,1.63-15.64,2.2-11.02,1.41-18.01,2.62-29.33,3.66-24.44,2.24-49.37,3.71-74.36,3.32-32.29-.51-63.67-2.74-94.12-6.69-7.77-1.01-13.67-1.77-17.71-2.28ZM180.38,56.65l.03-14.95.23-17.95c0-.12-.08-.22-.2-.22-.08,0-.15.03-.19.1-4.07,6.16-7.14,12.82-10.87,18.21-1.11,1.59-3.87,6.21-8.29,13.86-2.28,3.93-5.02,8.56-8.23,13.89-18.55,30.76-38.46,61.72-59.73,92.89-6.47,9.49-12,16.41-17.99,25.29-1.66,2.46-4.56,6.23-8.69,11.32-.79.97-1.18,2.16-1.17,3.57.1,18.3.08,35.8-.06,52.5-.03,3.71.13,7.34.47,10.91.08.88.82,1.56,1.7,1.56h38.88c.64,0,1.23-.32,1.59-.84,3.05-4.37,5.82-9.02,8.32-13.95,11.43-22.54,21.63-45.92,30.6-70.14,2.53-6.84,4.05-10.93,4.56-12.27,2.46-6.53,3.96-10.62,4.49-12.28,2.81-8.73,5.28-14.15,7.43-22.54.55-2.16,2.06-6.96,4.51-14.41,4.24-12.91,7.53-27.41,12.3-40.95.37-1.05.55-2.15.54-3.26l-.23-20.34ZM190.14,52.43l-.05,23.65c0,1.33.19,2.66.57,3.94,1.92,6.34,2.91,11.54,4.93,18,1.47,4.7,2.84,9.57,4.1,14.62.8,3.18,1.58,5.84,2.34,7.99,2.34,6.61,3.77,13.43,5.9,19.96,3.25,9.94,4.88,16.35,7.83,24.52,3.84,10.67,5.69,17.27,8.98,25.86.64,1.67,2.9,7.66,6.77,17.97,2.47,6.57,7.21,17.53,14.23,32.88,3.93,8.58,9.69,18.66,13.35,24.59.49.79,1.34,1.27,2.26,1.27h47.35c.34,0,.62-.28.63-.62l.38-28.36-.17-25.97c0-.77-.3-1.5-.82-2.07-3.89-4.18-7.4-8.69-10.53-13.53-3.36-5.2-7.3-9.02-10.71-14.5-2.77-4.45-5.85-7.76-8.35-11.84-5.56-9.04-12.03-17.09-17.41-26.48-2.47-4.32-5.07-8.31-7.79-11.97-5.18-6.96-8.56-14.55-13.4-21.33-4.46-6.24-8.18-14.7-12.87-21.28-3.34-4.69-5.29-9.74-8.6-14.95-4.84-7.6-8.11-14.87-12.52-22.15-1.1-1.82-3.17-5.5-6.2-11.05-3.32-6.08-6.59-12.1-9.8-18.07-.07-.15-.26-.22-.41-.15-.11.05-.18.17-.18.3l.19,28.77ZM180.04,112.22c-2.41,6.74-4.51,13.79-6.28,21.16-.46,1.92-2.05,6.58-4.76,13.99-1.3,3.57-2.54,8.35-4.03,12.71-6.41,18.81-13.61,37.53-21.82,57.25-5.85,14.05-12.01,27.11-18.48,39.18-.09.18-.03.39.15.49.06.03.13.05.19.04l54.86-3.24c.35-.02.62-.31.62-.66V112.3c0-.13-.09-.24-.22-.24-.11,0-.2.06-.23.16ZM190.76,112.72c-.06-.19-.26-.3-.45-.24-.05.02-.1.04-.14.08-.15.14-.24.51-.25,1.1-.22,8.69.53,17.16.43,25.67-.08,5.97-.15,10.83-.2,14.58-.06,4.15-.09,8.31-.08,12.5.05,37.43.08,66.36.11,86.78,0,.27.22.49.49.49,0,0,.01,0,.02,0l48.3-1.56c.55-.02.98-.48.96-1.04,0-.15-.04-.29-.11-.42-2.78-5.27-6.21-12.62-10.29-22.06-1.55-3.6-2.97-7.25-4.25-10.96-2.82-8.2-6.22-14.7-8.9-23.05-1.05-3.25-2.52-7.31-4.43-12.18-1.98-5.05-3.22-9.47-4.65-14.59-1.11-3.94-3.77-9.69-5.11-14.57-2.49-9.02-4.57-16.01-6.22-20.98-2.11-6.32-3.18-12.69-5.23-19.55ZM56.1,266.9v-53.43c0-.27-.21-.48-.48-.48-.15,0-.29.07-.39.19-7.79,10.25-16.35,19.75-25.67,28.5-3.13,2.95-6.24,5.34-9.32,7.17-.56.34-.79,1.04-.52,1.65l7.26,16.28c.22.5.71.82,1.26.82h27.16c.39,0,.7-.31.7-.7ZM602.24,219.83c-.55-.32-1.25-.13-1.57.42-.02.03-.03.06-.05.09l-5.24,11.23c-.23.49-.09,1.08.35,1.41l6.72,4.99c.51.38,1.23.27,1.61-.24.05-.06.09-.13.12-.2l5.64-12.11c.26-.54.06-1.19-.46-1.49l-7.12-4.1ZM565.17,221.72c.94,2.39,1,4.55.18,6.48-3.08,7.26-9.29,6.29-15.87,6.32-.42,0-.76.34-.76.77h0v31.88c0,.25.21.46.46.46h40.53c.29,0,.55-.17.67-.43l8.92-19.12c.17-.37.03-.81-.33-1-2.19-1.18-3.79-2.18-4.8-2.99-7.79-6.23-17.3-13.8-28.54-22.71-.13-.1-.32-.08-.42.04-.07.08-.08.2-.04.3ZM17.04,239.36l5.55-4.14c.71-.53.98-1.47.64-2.29l-1.83-4.49-2.39-4.79c-.38-.76-1.3-1.07-2.06-.69,0,0-.02,0-.03.01l-5.69,2.96c-.95.49-1.35,1.64-.91,2.63l4.9,11c.14.32.5.48.84.37.29-.09.61-.28.98-.57ZM319,224.3c-.65,3.93-.82,8.24-.51,12.93.39,5.89.52,11.57.38,17.06-.11,4.3.1,8.65.13,12.52,0,.44.36.79.8.79h20.03c.47,0,.91-.28,1.11-.71l5.16-11.05c.36-.78.28-1.7-.22-2.41-1.64-2.29-3.86-4.6-6.66-6.94-.98-.82-3.05-2.93-6.22-6.32-4.53-4.85-8.5-11.02-13.48-16.03-.12-.12-.32-.12-.44,0-.05.04-.08.1-.08.17ZM356.51,267.03l12.08-25.9c.54-1.17.1-2.57-1.02-3.22l-5.56-3.21c-.67-.38-1.52-.15-1.9.51l-5.8,10.05c-.61,1.05-.61,2.35,0,3.4l2.17,3.77c.14.24.22.5.24.78.12,1.72-.22,3.18-1.03,4.37-2.19,3.23-3.89,6.29-5.12,9.17-.19.44.02.95.46,1.14.11.05.22.07.34.07h3.66c.64,0,1.21-.36,1.48-.93ZM374.6,249.67l-7.48,17.24c-.12.26,0,.57.28.69.07.03.14.04.21.04h170.63c.38,0,.68-.3.69-.68l.37-20.04-.04-11.25c0-.52-.43-.94-.95-.93-.01,0-.02,0-.03,0-51.5,2.26-100.54,3.46-154.75,5.35-1.59.05-3.26-.02-5.01-.21-.35-.04-.68.17-.79.5l-3.13,9.29ZM119.41,267.61h128.29c.47,0,.86-.38.86-.85,0-.19-.06-.38-.18-.53l-1.38-1.74c-.65-.84-1.6-1.37-2.65-1.48-4.13-.43-8.32-.64-12.57-.63-23.43.06-48.6.77-75.49,2.13-3.89.2-7.06.42-9.51.66-9.34.92-19.2.19-27.45,1.75-.09.02-.15.09-.15.18v.29c0,.12.1.22.23.22Z"/>
      <path class="cls-2" d="M309.71,238.7l-.53-5.07c-.04-.29-.27-.52-.56-.55-1.2-.11-2.05-.62-2.54-1.55-1.7-3.18-4.14-6.25-6.23-9.4-.64-.97-1.39-1.88-2.23-2.7-2.74-2.71-4.39-4.52-4.94-5.43-2.44-4.01-4.74-7.26-6.9-9.75-2.91-3.37-5.07-6.16-6.46-8.37-3.98-6.32-6.62-9.04-10.44-15.43-.96-1.62-2.88-4.23-5.77-7.84-1.87-2.35-4.67-6.53-8.39-12.55-3-4.85-5.71-9.07-8.14-12.66-3.22-4.76-6.14-9.24-8.76-13.44-10.37-16.65-19.77-32.57-28.2-47.75-.7-1.26-1.73-2.08-2.06-3.39-.14-.57-.55-1.46-1.23-2.69-3.07-5.59-5.32-9.51-6.73-11.77-2.56-4.12-4.19-8.4-6.86-13.9-.66-1.38-1.53-2.06-2.6-2.03l-.19-28.77c0-.17.12-.32.29-.33.13,0,.24.06.3.18,3.21,5.97,6.48,11.99,9.8,18.07,3.03,5.55,5.1,9.23,6.2,11.05,4.41,7.28,7.68,14.55,12.52,22.15,3.31,5.21,5.26,10.26,8.6,14.95,4.69,6.58,8.41,15.04,12.87,21.28,4.84,6.78,8.22,14.37,13.4,21.33,2.72,3.66,5.32,7.65,7.79,11.97,5.38,9.39,11.85,17.44,17.41,26.48,2.5,4.08,5.58,7.39,8.35,11.84,3.41,5.48,7.35,9.3,10.71,14.5,3.13,4.84,6.64,9.35,10.53,13.53.52.57.81,1.3.82,2.07l.17,25.97Z"/>
      <path class="cls-2" d="M180.41,41.7l-.03,14.95c-1.38.91-2.28,2.34-2.7,4.27-.46,2.1-.84,3.4-1.15,3.89-1.97,3.12-3.85,5.47-5.76,9.23-3.73,7.34-5.28,11.71-9.31,17.7-1.03,1.53-3.04,5.08-6.04,10.63-3.59,6.67-7.9,12.42-11.91,19.72-1.17,2.12-2.77,4.74-4.8,7.87-10.44,16.02-20.62,30.97-30.53,44.85-3.87,5.42-8.02,10.35-12.45,14.79-.87.87-1.85,1.34-2.93,1.39-.31.01-.63-.06-.91-.2-3.59-1.83-2.76-4.53-1.06-7.61,3.35-6.08,5.29-9.57,5.82-10.46.35-.58.76-1.11,1.23-1.6,2.75-2.87,4.29-4.62,4.61-5.26,1.42-2.89,3.48-6.13,6.18-9.72,3.37-4.5,5.24-7.17,5.59-8.01.71-1.69,1.85-3.64,3.44-5.85,3.36-4.69,6.4-11.27,9.19-15.34,4.88-7.13,6.97-11.71,12.02-19.96,1.33-2.17,3.39-6.03,6.19-11.57,1.85-3.67,4.42-7.73,7.71-12.16.79-1.07,3.05-5.65,6.78-13.75.4-.86.9-1.68,1.49-2.42,1.97-2.47,3.05-4.02,3.25-4.66,1.3-4.11,3.01-7.57,5.12-10.38.44-.59.78-1.25,1.01-1.95,1.65-5.09,4.76-11.56,9.34-19.41.16-.27.27-.86.33-1.75,0-.08.07-.14.15-.13,0,0,0,0,0,0,.07,0,.13.07.13.14v12.76Z"/>
      <path class="cls-1" d="M414.6,90.42c-.13.13-.16.32-.09.48l15.36,34.44c.04.09.07.18.1.27.81,3.49.03,6.14-2.34,7.95-1.17.89-3.85,1.35-8.02,1.36-35.47.11-57.01.16-64.61.14-9.18-.03-11.06-5.48-14.68-13.91-5.05-11.76-10.28-23.53-15.67-35.32-.46-1.01-1.78-4.24-3.97-9.68-.21-.51-.35-1.05-.42-1.59-.59-4.62.69-7.96,3.85-10.02,1.57-1.03,5.23-1.57,10.98-1.62,15.01-.14,26.4-.12,34.17.05,8.83.2,19.69-.71,29.23.03,10.66.82,11.3,8.73,16.15,15.96,2.91,4.35,3.56,7.9-.04,11.46ZM400.64,72.64c-.11-.19-.31-.3-.53-.3h-70.07c-.34,0-.61.27-.61.61,0,.09.02.17.05.25l3.31,7.42c.1.22.32.36.56.36h71.04c.34,0,.61-.27.61-.61,0-.11-.03-.22-.08-.31l-4.28-7.42ZM352.37,125.02c.13.29.42.48.74.48h65.58c.45,0,.81-.36.81-.81,0-.11-.02-.23-.07-.33l-14.82-33.2c-.13-.29-.42-.48-.74-.48h-65.57c-.45,0-.81.36-.81.81,0,.11.02.23.07.33l14.81,33.2Z"/>
      <path class="cls-2" d="M352.37,125.02l-14.81-33.2c-.18-.41,0-.89.41-1.07.1-.05.22-.07.33-.07h65.57c.32,0,.61.19.74.48l14.82,33.2c.18.41,0,.89-.41,1.07-.1.05-.22.07-.33.07h-65.58c-.32,0-.61-.19-.74-.48Z"/>
      <path class="cls-2" d="M180.04,112.22c.04-.12.16-.19.29-.15.1.03.17.13.16.23v140.84c0,.35-.27.64-.62.66l-54.86,3.24c-.2.01-.37-.14-.38-.34,0-.07.01-.13.04-.19,6.47-12.07,12.63-25.13,18.48-39.18,8.21-19.72,15.41-38.44,21.82-57.25,1.49-4.36,2.73-9.14,4.03-12.71,2.71-7.41,4.3-12.07,4.76-13.99,1.77-7.37,3.87-14.42,6.28-21.16Z"/>
      <path class="cls-2" d="M190.76,112.72c2.05,6.86,3.12,13.23,5.23,19.55,1.65,4.97,3.73,11.96,6.22,20.98,1.34,4.88,4,10.63,5.11,14.57,1.43,5.12,2.67,9.54,4.65,14.59,1.91,4.87,3.38,8.93,4.43,12.18,2.68,8.35,6.08,14.85,8.9,23.05,1.28,3.71,2.7,7.36,4.25,10.96,4.08,9.44,7.51,16.79,10.29,22.06.25.49.06,1.09-.43,1.35-.13.07-.28.11-.42.11l-48.3,1.56c-.27.01-.5-.2-.51-.47,0,0,0-.01,0-.02-.03-20.42-.06-49.35-.11-86.78,0-4.19.02-8.35.08-12.5.05-3.75.12-8.61.2-14.58.1-8.51-.65-16.98-.43-25.67.01-.59.1-.96.25-1.1.15-.14.37-.13.51.02.04.04.07.09.08.14Z"/>
      <path class="cls-2" d="M602.24,219.83l7.12,4.1c.52.3.72.95.46,1.49l-5.64,12.11c-.27.58-.95.83-1.53.56-.07-.03-.14-.07-.2-.12l-6.72-4.99c-.44-.33-.58-.92-.35-1.41l5.24-11.23c.27-.58.95-.83,1.53-.56.03.01.06.03.09.05Z"/>
      <path class="cls-2" d="M319,224.3c.02-.16.18-.28.35-.25.06.01.13.04.17.09,4.98,5.01,8.95,11.18,13.48,16.03,3.17,3.39,5.24,5.5,6.22,6.32,2.8,2.34,5.02,4.65,6.66,6.94.5.71.58,1.63.22,2.41l-5.16,11.05c-.2.43-.64.71-1.11.71h-20.03c-.44,0-.79-.35-.8-.79-.03-3.87-.24-8.22-.13-12.52.14-5.49.01-11.17-.38-17.06-.31-4.69-.14-9,.51-12.93Z"/>
      <path class="cls-2" d="M21.4,228.44l1.83,4.49c.34.82.07,1.76-.64,2.29l-5.55,4.14c-1.63-1.97-2.29-3.87-1.96-5.72.46-2.62,2.57-4.35,6.32-5.2Z"/>
      <path class="cls-2" d="M356.51,267.03c-.27.57-.84.93-1.48.93h-3.66c-.48,0-.87-.39-.87-.87,0-.12.02-.23.07-.34,1.23-2.88,2.93-5.94,5.12-9.17.81-1.19,1.15-2.65,1.03-4.37-.02-.28-.1-.54-.24-.78l-2.17-3.77c-.61-1.05-.61-2.35,0-3.4l5.8-10.05c.38-.66,1.23-.89,1.9-.51l5.56,3.21c1.12.65,1.56,2.05,1.02,3.22l-12.08,25.9Z"/>
      <path class="cls-2" d="M539.3,246.92c-8.84.81-19.76.26-26.37.46-12.51.39-24.08.81-34.7,1.24-30.44,1.25-63.67,1.61-92.57,2.27-2.21.05-5.9-.35-11.06-1.22l3.13-9.29c.11-.33.44-.54.79-.5,1.75.19,3.42.26,5.01.21,54.21-1.89,103.25-3.09,154.75-5.35.52-.02.96.38.98.9,0,.01,0,.02,0,.03l.04,11.25Z"/>
      <path class="cls-2" d="M119.41,267.61c-.13,0-.23-.1-.23-.22v-.29c0-.09.06-.16.15-.18,8.25-1.56,18.11-.83,27.45-1.75,2.45-.24,5.62-.46,9.51-.66,26.89-1.36,52.06-2.07,75.49-2.13,4.25-.01,8.44.2,12.57.63,1.05.11,2,.64,2.65,1.48l1.38,1.74c.29.37.23.9-.15,1.2-.15.12-.34.18-.53.18H119.41Z"/>
    </g>
  </g>
</svg>
